HubotSans-ExtraLightNarrowItalic.ufo
<glyph name="exclam" format="2">
  <advance width="169"/>
  <unicode hex="0021"/>
  <outline>
    <contour>
      <point x="52" y="146" type="line"/>
      <point x="70" y="146" type="line"/>
      <point x="157" y="523" type="line"/>
      <point x="200" y="729" type="line"/>
      <point x="168" y="729" type="line"/>
      <point x="125" y="523" type="line"/>
    </contour>
    <contour>
      <point x="6" y="0" type="line"/>
      <point x="53" y="0" type="line"/>
      <point x="64" y="54" type="line"/>
      <point x="17" y="54" type="line"/>
    </contour>
  </outline>
</glyph>
<glyph name="numbersign" format="2">
  <advance width="467"/>
  <unicode hex="0023"/>
  <outline>
    <contour>
      <point x="80" y="0" type="line"/>
      <point x="108" y="0" type="line"/>
      <point x="156" y="227" type="line"/>
      <point x="305" y="227" type="line"/>
      <point x="257" y="0" type="line"/>
      <point x="285" y="0" type="line"/>
      <point x="333" y="227" type="line"/>
      <point x="431" y="227" type="line"/>
      <point x="436" y="251" type="line"/>
      <point x="338" y="251" type="line"/>
      <point x="391" y="502" type="line"/>
      <point x="489" y="502" type="line"/>
      <point x="494" y="526" type="line"/>
      <point x="396" y="526" type="line"/>
      <point x="439" y="729" type="line"/>
      <point x="411" y="729" type="line"/>
      <point x="368" y="526" type="line"/>
      <point x="219" y="526" type="line"/>
      <point x="262" y="729" type="line"/>
      <point x="234" y="729" type="line"/>
      <point x="191" y="526" type="line"/>
      <point x="87" y="526" type="line"/>
      <point x="82" y="502" type="line"/>
      <point x="186" y="502" type="line"/>
      <point x="133" y="251" type="line"/>
      <point x="29" y="251" type="line"/>
      <point x="24" y="227" type="line"/>
      <point x="128" y="227" type="line"/>
    </contour>
    <contour>
      <point x="161" y="251" type="line"/>
      <point x="214" y="502" type="line"/>
      <point x="363" y="502" type="line"/>
      <point x="310" y="251" type="line"/>
    </contour>
  </outline>
</glyph>
<glyph name="percent" format="2">
  <advance width="582"/>
  <unicode hex="0025"/>
  <outline>
    <contour>
      <point x="73" y="0" type="line"/>
      <point x="103" y="0" type="line"/>
      <point x="554" y="729" type="line"/>
      <point x="523" y="729" type="line"/>
    </contour>
    <contour>
      <point x="179" y="359" type="curve" smooth="yes"/>
      <point x="240" y="359"/>
      <point x="267" y="415"/>
      <point x="281" y="482" type="curve" smooth="yes"/>
      <point x="303" y="587" type="line" smooth="yes"/>
      <point x="321" y="674"/>
      <point x="306" y="735"/>
      <point x="226" y="735" type="curve" smooth="yes"/>
      <point x="168" y="735"/>
      <point x="140" y="683"/>
      <point x="125" y="612" type="curve" smooth="yes"/>
      <point x="103" y="507" type="line" smooth="yes"/>
      <point x="86" y="424"/>
      <point x="97" y="359"/>
    </contour>
    <contour>
      <point x="179" y="383" type="curve" smooth="yes"/>
      <point x="127" y="383"/>
      <point x="112" y="422"/>
      <point x="125" y="484" type="curve" smooth="yes"/>
      <point x="155" y="628" type="line" smooth="yes"/>
      <point x="166" y="680"/>
      <point x="188" y="711"/>
      <point x="226" y="711" type="curve" smooth="yes"/>
      <point x="282" y="711"/>
      <point x="294" y="670"/>
      <point x="281" y="610" type="curve" smooth="yes"/>
      <point x="250" y="466" type="line" smooth="yes"/>
      <point x="237" y="405"/>
      <point x="211" y="383"/>
    </contour>
    <contour>
      <point x="400" y="-6" type="curve" smooth="yes"/>
      <point x="461" y="-6"/>
      <point x="488" y="50"/>
      <point x="502" y="117" type="curve" smooth="yes"/>
      <point x="524" y="222" type="line" smooth="yes"/>
      <point x="542" y="309"/>
      <point x="527" y="370"/>
      <point x="447" y="370" type="curve" smooth="yes"/>
      <point x="389" y="370"/>
      <point x="361" y="318"/>
      <point x="346" y="247" type="curve" smooth="yes"/>
      <point x="324" y="142" type="line" smooth="yes"/>
      <point x="307" y="59"/>
      <point x="318" y="-6"/>
    </contour>
    <contour>
      <point x="400" y="18" type="curve" smooth="yes"/>
      <point x="348" y="18"/>
      <point x="333" y="57"/>
      <point x="346" y="119" type="curve" smooth="yes"/>
      <point x="376" y="263" type="line" smooth="yes"/>
      <point x="387" y="315"/>
      <point x="409" y="346"/>
      <point x="447" y="346" type="curve" smooth="yes"/>
      <point x="503" y="346"/>
      <point x="515" y="305"/>
      <point x="502" y="245" type="curve" smooth="yes"/>
      <point x="471" y="101" type="line" smooth="yes"/>
      <point x="458" y="40"/>
      <point x="432" y="18"/>
    </contour>
  </outline>
</glyph>
<glyph name="ampersand" format="2">
  <advance width="466"/>
  <unicode hex="0026"/>
  <outline>
    <contour>
      <point x="130" y="-6" type="curve" smooth="yes"/>
      <point x="190" y="-6"/>
      <point x="244" y="27"/>
      <point x="285" y="101" type="curve"/>
      <point x="320" y="0" type="line"/>
      <point x="352" y="0" type="line"/>
      <point x="303" y="138" type="line"/>
      <point x="325" y="183"/>
      <point x="342" y="235"/>
      <point x="357" y="298" type="curve"/>
      <point x="429" y="298" type="line"/>
      <point x="435" y="328" type="line"/>
      <point x="335" y="328" type="line"/>
      <point x="330" y="305" type="line" smooth="yes"/>
      <point x="320" y="257"/>
      <point x="305" y="212"/>
      <point x="290" y="173" type="curve"/>
      <point x="210" y="399" type="line"/>
      <point x="291" y="453"/>
      <point x="342" y="510"/>
      <point x="359" y="590" type="curve" smooth="yes"/>
      <point x="363" y="609" type="line" smooth="yes"/>
      <point x="377" y="676"/>
      <point x="346" y="735"/>
      <point x="274" y="735" type="curve" smooth="yes"/>
      <point x="221" y="735"/>
      <point x="176" y="695"/>
      <point x="163" y="632" type="curve" smooth="yes"/>
      <point x="155" y="594" type="line" smooth="yes"/>
      <point x="142" y="534"/>
      <point x="154" y="475"/>
      <point x="176" y="410" type="curve"/>
      <point x="174" y="398" type="line"/>
      <point x="106" y="359"/>
      <point x="66" y="303"/>
      <point x="44" y="205" type="curve" smooth="yes"/>
      <point x="34" y="160" type="line" smooth="yes"/>
      <point x="12" y="60"/>
      <point x="45" y="-6"/>
    </contour>
    <contour>
      <point x="135" y="22" type="curve" smooth="yes"/>
      <point x="72" y="22"/>
      <point x="43" y="66"/>
      <point x="65" y="161" type="curve" smooth="yes"/>
      <point x="75" y="205" type="line" smooth="yes"/>
      <point x="95" y="291"/>
      <point x="127" y="341"/>
      <point x="186" y="377" type="curve"/>
      <point x="273" y="134" type="line"/>
      <point x="245" y="67"/>
      <point x="191" y="22"/>
    </contour>
    <contour>
      <point x="202" y="423" type="curve"/>
      <point x="183" y="481"/>
      <point x="172" y="534"/>
      <point x="185" y="594" type="curve" smooth="yes"/>
      <point x="193" y="631" type="line" smooth="yes"/>
      <point x="203" y="676"/>
      <point x="230" y="709"/>
      <point x="275" y="709" type="curve" smooth="yes"/>
      <point x="324" y="709"/>
      <point x="346" y="667"/>
      <point x="333" y="609" type="curve" smooth="yes"/>
      <point x="328" y="587" type="line" smooth="yes"/>
      <point x="316" y="535"/>
      <point x="286" y="483"/>
    </contour>
  </outline>
</glyph>
<glyph name="quotesingle" format="2">
  <advance width="122"/>
  <unicode hex="0027"/>
  <anchor x="-26" y="0" name="#entry"/>
  <anchor x="94" y="0" name="#exit"/>
  <outline>
    <contour>
      <point x="93" y="452" type="line"/>
      <point x="113" y="452" type="line"/>
      <point x="149" y="605" type="line"/>
      <point x="175" y="729" type="line"/>
      <point x="147" y="729" type="line"/>
      <point x="121" y="605" type="line"/>
    </contour>
  </outline>
</glyph>
<glyph name="parenleft" format="2">
  <advance width="258"/>
  <unicode hex="0028"/>
  <outline>
    <contour>
      <point x="96" y="-168" type="curve"/>
      <point x="125" y="-168" type="line"/>
      <point x="96" y="-103"/>
      <point x="79" y="-11"/>
      <point x="79" y="95" type="curve" smooth="yes"/>
      <point x="79" y="367"/>
      <point x="187" y="664"/>
      <point x="334" y="793" type="curve"/>
      <point x="295" y="793" type="line"/>
      <point x="153" y="663"/>
      <point x="47" y="370"/>
      <point x="47" y="108" type="curve" smooth="yes"/>
      <point x="47" y="1"/>
      <point x="64" y="-98"/>
    </contour>
  </outline>
</glyph>
<glyph name="asterisk" format="2">
  <advance width="267"/>
  <unicode hex="002A"/>
  <outline>
    <contour>
      <point x="168" y="482" type="line"/>
      <point x="194" y="482" type="line"/>
      <point x="205" y="535" type="line"/>
      <point x="210" y="596" type="line"/>
      <point x="252" y="560" type="line"/>
      <point x="293" y="533" type="line"/>
      <point x="310" y="556" type="line"/>
      <point x="270" y="582" type="line"/>
      <point x="222" y="606" type="line"/>
      <point x="280" y="631" type="line"/>
      <point x="331" y="656" type="line"/>
      <point x="323" y="678" type="line"/>
      <point x="272" y="653" type="line"/>
      <point x="215" y="618" type="line"/>
      <point x="235" y="678" type="line"/>
      <point x="246" y="729" type="line"/>
      <point x="220" y="729" type="line"/>
      <point x="209" y="678" type="line"/>
      <point x="205" y="618" type="line"/>
      <point x="162" y="653" type="line"/>
      <point x="122" y="678" type="line"/>
      <point x="105" y="656" type="line"/>
      <point x="144" y="631" type="line"/>
      <point x="193" y="606" type="line"/>
      <point x="134" y="582" type="line"/>
      <point x="82" y="556" type="line"/>
      <point x="92" y="533" type="line"/>
      <point x="142" y="560" type="line"/>
      <point x="200" y="596" type="line"/>
      <point x="179" y="535" type="line"/>
    </contour>
  </outline>
</glyph>
<glyph name="plus" format="2">
  <advance width="500"/>
  <unicode hex="002B"/>
  <outline>
    <contour>
      <point x="216" y="168" type="line"/>
      <point x="246" y="168" type="line"/>
      <point x="328" y="554" type="line"/>
      <point x="298" y="554" type="line"/>
    </contour>
    <contour>
      <point x="76" y="347" type="line"/>
      <point x="462" y="347" type="line"/>
      <point x="468" y="375" type="line"/>
      <point x="82" y="375" type="line"/>
    </contour>
  </outline>
</glyph>
<glyph name="comma" format="2">
  <advance width="129"/>
  <unicode hex="002C"/>
  <anchor x="-12" y="0" name="#entry"/>
  <anchor x="97" y="0" name="#exit"/>
  <anchor x="119" y="515" name="top"/>
  <outline>
    <contour>
      <point x="-64" y="-145" type="line"/>
      <point x="-40" y="-145" type="line"/>
      <point x="32" y="0" type="line"/>
      <point x="45" y="61" type="line"/>
      <point x="-1" y="61" type="line"/>
      <point x="-14" y="0" type="line"/>
      <point x="11" y="0" type="line"/>
    </contour>
  </outline>
</glyph>
<glyph name="hyphen" format="2">
  <advance width="264"/>
  <unicode hex="002D"/>
  <outline>
    <contour>
      <point x="52" y="306" type="line"/>
      <point x="232" y="306" type="line"/>
      <point x="238" y="331" type="line"/>
      <point x="58" y="331" type="line"/>
    </contour>
  </outline>
</glyph>
<glyph name="period" format="2">
  <advance width="127"/>
  <unicode hex="002E"/>
  <anchor x="-64" y="0" name="#entry"/>
  <anchor x="71" y="0" name="#exit"/>
  <anchor x="21" y="61" name="_top"/>
  <anchor x="118" y="515" name="top"/>
  <outline>
    <contour>
      <point x="-14" y="0" type="line"/>
      <point x="32" y="0" type="line"/>
      <point x="44" y="61" type="line"/>
      <point x="-2" y="61" type="line"/>
    </contour>
  </outline>
</glyph>
<glyph name="slash" format="2">
  <advance width="284"/>
  <unicode hex="002F"/>
  <outline>
    <contour>
      <point x="-62" y="-82" type="line"/>
      <point x="-31" y="-82" type="line"/>
      <point x="346" y="729" type="line"/>
      <point x="315" y="729" type="line"/>
    </contour>
  </outline>
</glyph>
<glyph name="zero" format="2">
  <advance width="439"/>
  <unicode hex="0030"/>
  <note>
zero
</note>
  <outline>
    <contour>
      <point x="189" y="-6" type="curve" smooth="yes"/>
      <point x="278" y="-6"/>
      <point x="332" y="55"/>
      <point x="358" y="175" type="curve" smooth="yes"/>
      <point x="430" y="511" type="line" smooth="yes"/>
      <point x="457" y="639"/>
      <point x="417" y="735"/>
      <point x="296" y="735" type="curve" smooth="yes"/>
      <point x="207" y="735"/>
      <point x="153" y="674"/>
      <point x="127" y="554" type="curve" smooth="yes"/>
      <point x="55" y="218" type="line" smooth="yes"/>
      <point x="28" y="90"/>
      <point x="68" y="-6"/>
    </contour>
    <contour>
      <point x="190" y="20" type="curve" smooth="yes"/>
      <point x="85" y="20"/>
      <point x="60" y="97"/>
      <point x="84" y="212" type="curve" smooth="yes"/>
      <point x="156" y="550" type="line" smooth="yes"/>
      <point x="179" y="656"/>
      <point x="221" y="709"/>
      <point x="295" y="709" type="curve" smooth="yes"/>
      <point x="400" y="709"/>
      <point x="425" y="632"/>
      <point x="401" y="517" type="curve" smooth="yes"/>
      <point x="329" y="179" type="line" smooth="yes"/>
      <point x="306" y="73"/>
      <point x="264" y="20"/>
    </contour>
    <contour>
      <point x="87" y="351" type="line"/>
      <point x="380" y="351" type="line"/>
      <point x="386" y="378" type="line"/>
      <point x="93" y="378" type="line"/>
    </contour>
  </outline>
</glyph>
<glyph name="one" format="2">
  <advance width="241"/>
  <unicode hex="0031"/>
  <note>
one
</note>
  <outline>
    <contour>
      <point x="85" y="0" type="line"/>
      <point x="115" y="0" type="line"/>
      <point x="268" y="729" type="line"/>
      <point x="240" y="729" type="line"/>
      <point x="214" y="622" type="line"/>
      <point x="116" y="622" type="line"/>
      <point x="110" y="591" type="line"/>
      <point x="210" y="591" type="line"/>
    </contour>
  </outline>
</glyph>
<glyph name="two" format="2">
  <advance width="410"/>
  <unicode hex="0032"/>
  <note>
two
</note>
  <outline>
    <contour>
      <point x="-4" y="0" type="line"/>
      <point x="315" y="0" type="line"/>
      <point x="316" y="28" type="line"/>
      <point x="60" y="28" type="line"/>
      <point x="30" y="27" type="line"/>
      <point x="30" y="29" type="line"/>
      <point x="43" y="44" type="line"/>
      <point x="287" y="342" type="line" smooth="yes"/>
      <point x="363" y="433"/>
      <point x="415" y="511"/>
      <point x="415" y="600" type="curve" smooth="yes"/>
      <point x="415" y="658"/>
      <point x="393" y="734"/>
      <point x="283" y="734" type="curve" smooth="yes"/>
      <point x="186" y="734"/>
      <point x="129" y="657"/>
      <point x="103" y="530" type="curve"/>
      <point x="132" y="526" type="line"/>
      <point x="152" y="634"/>
      <point x="198" y="708"/>
      <point x="282" y="708" type="curve" smooth="yes"/>
      <point x="380" y="708"/>
      <point x="397" y="632"/>
      <point x="380" y="558" type="curve" smooth="yes"/>
      <point x="376" y="539" type="line" smooth="yes"/>
      <point x="365" y="486"/>
      <point x="324" y="430"/>
      <point x="253" y="343" type="curve" smooth="yes"/>
      <point x="3" y="38" type="line"/>
    </contour>
  </outline>
</glyph>
<glyph name="three" format="2">
  <advance width="410"/>
  <unicode hex="0033"/>
  <note>
three
</note>
  <outline>
    <contour>
      <point x="159" y="-6" type="curve" smooth="yes"/>
      <point x="287" y="-6"/>
      <point x="346" y="111"/>
      <point x="346" y="247" type="curve" smooth="yes"/>
      <point x="346" y="304"/>
      <point x="328" y="347"/>
      <point x="280" y="368" type="curve"/>
      <point x="281" y="372" type="line"/>
      <point x="392" y="398"/>
      <point x="418" y="528"/>
      <point x="418" y="598" type="curve" smooth="yes"/>
      <point x="418" y="680"/>
      <point x="377" y="735"/>
      <point x="289" y="735" type="curve" smooth="yes"/>
      <point x="181" y="735"/>
      <point x="134" y="648"/>
      <point x="109" y="518" type="curve"/>
      <point x="138" y="518" type="line"/>
      <point x="168" y="656"/>
      <point x="211" y="708"/>
      <point x="287" y="708" type="curve" smooth="yes"/>
      <point x="369" y="708"/>
      <point x="404" y="648"/>
      <point x="380" y="547" type="curve" smooth="yes"/>
      <point x="371" y="503" type="line" smooth="yes"/>
      <point x="355" y="432"/>
      <point x="310" y="388"/>
      <point x="229" y="390" type="curve" smooth="yes"/>
      <point x="181" y="391" type="line"/>
      <point x="174" y="358" type="line"/>
      <point x="212" y="358" type="line" smooth="yes"/>
      <point x="311" y="358"/>
      <point x="329" y="281"/>
      <point x="311" y="202" type="curve" smooth="yes"/>
      <point x="300" y="149" type="line" smooth="yes"/>
      <point x="282" y="61"/>
      <point x="233" y="22"/>
      <point x="163" y="22" type="curve" smooth="yes"/>
      <point x="53" y="22"/>
      <point x="53" y="122"/>
      <point x="64" y="198" type="curve"/>
      <point x="34" y="198" type="line"/>
      <point x="20" y="103"/>
      <point x="34" y="-6"/>
    </contour>
  </outline>
</glyph>
<glyph name="four" format="2">
  <advance width="433"/>
  <unicode hex="0034"/>
  <note>
four
</note>
  <outline>
    <contour>
      <point x="29" y="200" type="line"/>
      <point x="381" y="200" type="line"/>
      <point x="388" y="228" type="line"/>
      <point x="66" y="228" type="line"/>
      <point x="70" y="234" type="line"/>
      <point x="394" y="729" type="line"/>
      <point x="359" y="729" type="line"/>
      <point x="38" y="237" type="line"/>
    </contour>
    <contour>
      <point x="228" y="0" type="line"/>
      <point x="258" y="0" type="line"/>
      <point x="337" y="378" type="line"/>
      <point x="312" y="378" type="line"/>
      <point x="273" y="221" type="line"/>
    </contour>
  </outline>
</glyph>
<glyph name="five" format="2">
  <advance width="412"/>
  <unicode hex="0035"/>
  <note>
five
</note>
  <outline>
    <contour>
      <point x="158" y="-6" type="curve" smooth="yes"/>
      <point x="263" y="-6"/>
      <point x="315" y="60"/>
      <point x="346" y="203" type="curve" smooth="yes"/>
      <point x="378" y="349"/>
      <point x="373" y="477"/>
      <point x="244" y="477" type="curve" smooth="yes"/>
      <point x="199" y="477"/>
      <point x="156" y="453"/>
      <point x="126" y="403" type="curve"/>
      <point x="122" y="403" type="line"/>
      <point x="207" y="701" type="line"/>
      <point x="456" y="701" type="line"/>
      <point x="462" y="729" type="line"/>
      <point x="185" y="729" type="line"/>
      <point x="76" y="337" type="line"/>
      <point x="106" y="337" type="line"/>
      <point x="135" y="407"/>
      <point x="180" y="451"/>
      <point x="241" y="451" type="curve" smooth="yes"/>
      <point x="315" y="451"/>
      <point x="350" y="389"/>
      <point x="323" y="258" type="curve" smooth="yes"/>
      <point x="307" y="179" type="line" smooth="yes"/>
      <point x="287" y="75"/>
      <point x="238" y="22"/>
      <point x="164" y="22" type="curve" smooth="yes"/>
      <point x="70" y="22"/>
      <point x="48" y="92"/>
      <point x="65" y="198" type="curve"/>
      <point x="35" y="198" type="line"/>
      <point x="16" y="85"/>
      <point x="49" y="-6"/>
    </contour>
  </outline>
</glyph>
<glyph name="six" format="2">
  <advance width="426"/>
  <unicode hex="0036"/>
  <note>
six
</note>
  <outline>
    <contour>
      <point x="179" y="-6" type="curve" smooth="yes"/>
      <point x="280" y="-6"/>
      <point x="341" y="68"/>
      <point x="364" y="219" type="curve" smooth="yes"/>
      <point x="394" y="383"/>
      <point x="356" y="468"/>
      <point x="252" y="468" type="curve" smooth="yes"/>
      <point x="194" y="468"/>
      <point x="144" y="430"/>
      <point x="119" y="370" type="curve"/>
      <point x="114" y="370" type="line"/>
      <point x="118" y="387"/>
      <point x="134" y="458"/>
      <point x="145" y="510" type="curve" smooth="yes"/>
      <point x="176" y="658"/>
      <point x="225" y="707"/>
      <point x="301" y="707" type="curve" smooth="yes"/>
      <point x="409" y="707"/>
      <point x="410" y="612"/>
      <point x="398" y="531" type="curve"/>
      <point x="428" y="531" type="line"/>
      <point x="442" y="621"/>
      <point x="430" y="735"/>
      <point x="305" y="735" type="curve" smooth="yes"/>
      <point x="190" y="735"/>
      <point x="143" y="648"/>
      <point x="110" y="489" type="curve" smooth="yes"/>
      <point x="64" y="265" type="line" smooth="yes"/>
      <point x="38" y="141"/>
      <point x="39" y="-6"/>
    </contour>
    <contour>
      <point x="184" y="22" type="curve" smooth="yes"/>
      <point x="66" y="22"/>
      <point x="71" y="150"/>
      <point x="94" y="245" type="curve" smooth="yes"/>
      <point x="109" y="316" type="line"/>
      <point x="140" y="391"/>
      <point x="187" y="441"/>
      <point x="246" y="441" type="curve" smooth="yes"/>
      <point x="352" y="441"/>
      <point x="350" y="338"/>
      <point x="335" y="249" type="curve" smooth="yes"/>
      <point x="324" y="190" type="line" smooth="yes"/>
      <point x="302" y="77"/>
      <point x="256" y="22"/>
    </contour>
  </outline>
</glyph>
<glyph name="seven" format="2">
  <advance width="397"/>
  <unicode hex="0037"/>
  <note>
seven
</note>
  <outline>
    <contour>
      <point x="47" y="0" type="line"/>
      <point x="81" y="0" type="line"/>
      <point x="449" y="697" type="line"/>
      <point x="455" y="729" type="line"/>
      <point x="146" y="729" type="line"/>
      <point x="106" y="536" type="line"/>
      <point x="133" y="536" type="line"/>
      <point x="167" y="701" type="line"/>
      <point x="418" y="701" type="line"/>
      <point x="415" y="695" type="line"/>
    </contour>
  </outline>
</glyph>
<glyph name="eight" format="2">
  <advance width="409"/>
  <unicode hex="0038"/>
  <note>
eight
</note>
  <outline>
    <contour>
      <point x="169" y="-6" type="curve" smooth="yes"/>
      <point x="308" y="-6"/>
      <point x="343" y="143"/>
      <point x="343" y="240" type="curve" smooth="yes"/>
      <point x="343" y="291"/>
      <point x="330" y="343"/>
      <point x="279" y="366" type="curve"/>
      <point x="281" y="372" type="line"/>
      <point x="392" y="395"/>
      <point x="416" y="519"/>
      <point x="416" y="595" type="curve" smooth="yes"/>
      <point x="416" y="686"/>
      <point x="369" y="735"/>
      <point x="287" y="735" type="curve" smooth="yes"/>
      <point x="158" y="735"/>
      <point x="119" y="598"/>
      <point x="119" y="510" type="curve" smooth="yes"/>
      <point x="119" y="450"/>
      <point x="139" y="402"/>
      <point x="181" y="383" type="curve"/>
      <point x="180" y="377" type="line"/>
      <point x="70" y="357"/>
      <point x="37" y="222"/>
      <point x="37" y="138" type="curve" smooth="yes"/>
      <point x="37" y="50"/>
      <point x="79" y="-6"/>
    </contour>
    <contour>
      <point x="172" y="23" type="curve" smooth="yes"/>
      <point x="68" y="23"/>
      <point x="56" y="108"/>
      <point x="72" y="185" type="curve" smooth="yes"/>
      <point x="83" y="238" type="line" smooth="yes"/>
      <point x="99" y="317"/>
      <point x="150" y="360"/>
      <point x="212" y="360" type="curve" smooth="yes"/>
      <point x="312" y="360"/>
      <point x="326" y="273"/>
      <point x="310" y="201" type="curve" smooth="yes"/>
      <point x="298" y="142" type="line" smooth="yes"/>
      <point x="283" y="71"/>
      <point x="246" y="23"/>
    </contour>
    <contour>
      <point x="249" y="389" type="curve" smooth="yes"/>
      <point x="150" y="389"/>
      <point x="137" y="480"/>
      <point x="153" y="554" type="curve" smooth="yes"/>
      <point x="161" y="588" type="line" smooth="yes"/>
      <point x="177" y="666"/>
      <point x="221" y="706"/>
      <point x="283" y="706" type="curve" smooth="yes"/>
      <point x="384" y="706"/>
      <point x="396" y="626"/>
      <point x="380" y="544" type="curve" smooth="yes"/>
      <point x="373" y="510" type="line" smooth="yes"/>
      <point x="356" y="430"/>
      <point x="313" y="389"/>
    </contour>
  </outline>
</glyph>
<glyph name="greater" format="2">
  <advance width="500"/>
  <unicode hex="003E"/>
  <outline>
    <contour>
      <point x="-37" y="148" type="line"/>
      <point x="435" y="342" type="line"/>
      <point x="444" y="382" type="line"/>
      <point x="55" y="581" type="line"/>
      <point x="49" y="551" type="line"/>
      <point x="409" y="366" type="line"/>
      <point x="409" y="362" type="line"/>
      <point x="-29" y="185" type="line"/>
    </contour>
  </outline>
</glyph>
<glyph name="question" format="2">
  <advance width="343"/>
  <unicode hex="003F"/>
  <outline>
    <contour>
      <point x="141" y="160" type="line"/>
      <point x="173" y="160" type="line"/>
      <point x="178" y="187" type="line" smooth="yes"/>
      <point x="206" y="337"/>
      <point x="327" y="403"/>
      <point x="361" y="554" type="curve" smooth="yes"/>
      <point x="385" y="662"/>
      <point x="347" y="735"/>
      <point x="251" y="735" type="curve" smooth="yes"/>
      <point x="180" y="735"/>
      <point x="124" y="680"/>
      <point x="99" y="548" type="curve"/>
      <point x="131" y="548" type="line"/>
      <point x="149" y="645"/>
      <point x="184" y="707"/>
      <point x="250" y="707" type="curve" smooth="yes"/>
      <point x="328" y="707"/>
      <point x="349" y="647"/>
      <point x="330" y="556" type="curve" smooth="yes"/>
      <point x="300" y="411"/>
      <point x="182" y="352"/>
      <point x="148" y="193" type="curve" smooth="yes"/>
    </contour>
    <contour>
      <point x="99" y="0" type="line"/>
      <point x="146" y="0" type="line"/>
      <point x="158" y="55" type="line"/>
      <point x="111" y="55" type="line"/>
    </contour>
  </outline>
</glyph>
<glyph name="at" format="2">
  <advance width="645"/>
  <unicode hex="0040"/>
  <outline>
    <contour>
      <point x="348" y="-101" type="curve" smooth="yes"/>
      <point x="404" y="-101"/>
      <point x="472" y="-80"/>
      <point x="514" y="-32" type="curve"/>
      <point x="498" y="-13" type="line"/>
      <point x="462" y="-53"/>
      <point x="408" y="-76"/>
      <point x="347" y="-76" type="curve" smooth="yes"/>
      <point x="186" y="-76"/>
      <point x="95" y="98"/>
      <point x="95" y="314" type="curve" smooth="yes"/>
      <point x="95" y="552"/>
      <point x="195" y="713"/>
      <point x="351" y="713" type="curve" smooth="yes"/>
      <point x="494" y="713"/>
      <point x="590" y="569"/>
      <point x="590" y="365" type="curve" smooth="yes"/>
      <point x="590" y="229"/>
      <point x="551" y="129"/>
      <point x="494" y="129" type="curve" smooth="yes"/>
      <point x="458" y="129"/>
      <point x="442" y="167"/>
      <point x="445" y="245" type="curve" smooth="yes"/>
      <point x="456" y="504" type="line"/>
      <point x="434" y="504" type="line"/>
      <point x="428" y="408" type="line"/>
      <point x="425" y="408" type="line"/>
      <point x="414" y="478"/>
      <point x="382" y="516"/>
      <point x="342" y="516" type="curve" smooth="yes"/>
      <point x="276" y="516"/>
      <point x="232" y="423"/>
      <point x="232" y="293" type="curve" smooth="yes"/>
      <point x="232" y="163"/>
      <point x="279" y="106"/>
      <point x="331" y="106" type="curve" smooth="yes"/>
      <point x="367" y="106"/>
      <point x="406" y="140"/>
      <point x="423" y="225" type="curve"/>
      <point x="425" y="225" type="line"/>
      <point x="425" y="150"/>
      <point x="449" y="105"/>
      <point x="495" y="105" type="curve" smooth="yes"/>
      <point x="569" y="105"/>
      <point x="617" y="217"/>
      <point x="617" y="367" type="curve" smooth="yes"/>
      <point x="617" y="589"/>
      <point x="507" y="738"/>
      <point x="352" y="738" type="curve" smooth="yes"/>
      <point x="181" y="738"/>
      <point x="67" y="566"/>
      <point x="67" y="312" type="curve" smooth="yes"/>
      <point x="67" y="64"/>
      <point x="181" y="-101"/>
    </contour>
    <contour>
      <point x="334" y="132" type="curve" smooth="yes"/>
      <point x="288" y="132"/>
      <point x="258" y="186"/>
      <point x="258" y="296" type="curve" smooth="yes"/>
      <point x="258" y="411"/>
      <point x="290" y="493"/>
      <point x="346" y="493" type="curve" smooth="yes"/>
      <point x="392" y="493"/>
      <point x="422" y="433"/>
      <point x="424" y="323" type="curve"/>
      <point x="421" y="211"/>
      <point x="387" y="132"/>
    </contour>
  </outline>
</glyph>
<glyph name="A" format="2">
  <advance width="439"/>
  <unicode hex="0041"/>
  <note>
A
</note>
  <anchor x="313" y="0" name="#exit"/>
  <anchor x="179" y="0" name="bottom"/>
  <anchor x="343" y="0" name="ogonek"/>
  <anchor x="318" y="729" name="top"/>
  <outline>
    <contour>
      <point x="-15" y="0" type="line"/>
      <point x="17" y="0" type="line"/>
      <point x="270" y="598" type="line"/>
      <point x="311" y="699" type="line"/>
      <point x="313" y="699" type="line"/>
      <point x="313" y="598" type="line"/>
      <point x="313" y="0" type="line"/>
      <point x="343" y="0" type="line"/>
      <point x="340" y="729" type="line"/>
      <point x="296" y="729" type="line"/>
    </contour>
    <contour>
      <point x="86" y="183" type="line"/>
      <point x="320" y="183" type="line"/>
      <point x="320" y="211" type="line"/>
      <point x="98" y="211" type="line"/>
    </contour>
  </outline>
</glyph>
<glyph name="B" format="2">
  <advance width="386"/>
  <unicode hex="0042"/>
  <note>
B
</note>
  <anchor x="137" y="0" name="bottom"/>
  <anchor x="292" y="729" name="top"/>
  <outline>
    <contour>
      <point x="17" y="0" type="line"/>
      <point x="113" y="0" type="line" smooth="yes"/>
      <point x="222" y="0"/>
      <point x="288" y="39"/>
      <point x="318" y="194" type="curve" smooth="yes"/>
      <point x="339" y="307"/>
      <point x="318" y="353"/>
      <point x="257" y="374" type="curve"/>
      <point x="258" y="378" type="line"/>
      <point x="323" y="396"/>
      <point x="366" y="441"/>
      <point x="388" y="554" type="curve" smooth="yes"/>
      <point x="413" y="677"/>
      <point x="368" y="729"/>
      <point x="269" y="729" type="curve" smooth="yes"/>
      <point x="171" y="729" type="line"/>
    </contour>
    <contour>
      <point x="52" y="27" type="line"/>
      <point x="196" y="702" type="line"/>
      <point x="277" y="702" type="line" smooth="yes"/>
      <point x="345" y="702"/>
      <point x="382" y="663"/>
      <point x="361" y="565" type="curve" smooth="yes"/>
      <point x="350" y="515" type="line" smooth="yes"/>
      <point x="331" y="425"/>
      <point x="279" y="390"/>
      <point x="214" y="390" type="curve" smooth="yes"/>
      <point x="123" y="390" type="line"/>
      <point x="117" y="363" type="line"/>
      <point x="208" y="363" type="line" smooth="yes"/>
      <point x="277" y="363"/>
      <point x="314" y="327"/>
      <point x="292" y="217" type="curve" smooth="yes"/>
      <point x="278" y="152" type="line" smooth="yes"/>
      <point x="263" y="78"/>
      <point x="220" y="27"/>
      <point x="127" y="27" type="curve" smooth="yes"/>
    </contour>
  </outline>
</glyph>
<glyph name="C" format="2">
  <advance width="432"/>
  <unicode hex="0043"/>
  <note>
C
</note>
  <anchor x="184" y="0" name="bottom"/>
  <anchor x="308" y="729" name="top"/>
  <outline>
    <contour>
      <point x="186" y="-6" type="curve" smooth="yes"/>
      <point x="297" y="-6"/>
      <point x="345" y="80"/>
      <point x="377" y="247" type="curve"/>
      <point x="349" y="247" type="line"/>
      <point x="317" y="90"/>
      <point x="278" y="20"/>
      <point x="187" y="20" type="curve" smooth="yes"/>
      <point x="91" y="20"/>
      <point x="58" y="88"/>
      <point x="84" y="214" type="curve" smooth="yes"/>
      <point x="156" y="550" type="line" smooth="yes"/>
      <point x="179" y="658"/>
      <point x="223" y="709"/>
      <point x="304" y="709" type="curve" smooth="yes"/>
      <point x="403" y="709"/>
      <point x="433" y="632"/>
      <point x="396" y="477" type="curve"/>
      <point x="426" y="477" type="line"/>
      <point x="464" y="647"/>
      <point x="422" y="735"/>
      <point x="305" y="735" type="curve" smooth="yes"/>
      <point x="209" y="735"/>
      <point x="153" y="674"/>
      <point x="126" y="554" type="curve" smooth="yes"/>
      <point x="55" y="218" type="line" smooth="yes"/>
      <point x="25" y="75"/>
      <point x="71" y="-6"/>
    </contour>
  </outline>
</glyph>
<glyph name="D" format="2">
  <advance width="434"/>
  <unicode hex="0044"/>
  <note>
D
</note>
  <anchor x="164" y="0" name="bottom"/>
  <anchor x="125" y="365" name="center"/>
  <anchor x="319" y="729" name="top"/>
  <outline>
    <contour>
      <point x="18" y="0" type="line"/>
      <point x="155" y="0" type="line" smooth="yes"/>
      <point x="269" y="0"/>
      <point x="329" y="60"/>
      <point x="359" y="201" type="curve" smooth="yes"/>
      <point x="422" y="495" type="line" smooth="yes"/>
      <point x="454" y="643"/>
      <point x="418" y="729"/>
      <point x="300" y="729" type="curve" smooth="yes"/>
      <point x="171" y="729" type="line"/>
    </contour>
    <contour>
      <point x="52" y="13" type="line"/>
      <point x="199" y="716" type="line"/>
      <point x="182" y="702" type="line"/>
      <point x="300" y="702" type="line" smooth="yes"/>
      <point x="401" y="702"/>
      <point x="421" y="631"/>
      <point x="391" y="494" type="curve" smooth="yes"/>
      <point x="329" y="208" type="line" smooth="yes"/>
      <point x="301" y="76"/>
      <point x="254" y="27"/>
      <point x="159" y="27" type="curve" smooth="yes"/>
      <point x="41" y="27" type="line"/>
    </contour>
  </outline>
</glyph>
<glyph name="E" format="2">
  <advance width="356"/>
  <unicode hex="0045"/>
  <note>
E
</note>
  <anchor x="18" y="0" name="#entry"/>
  <anchor x="149" y="0" name="bottom"/>
  <anchor x="261" y="0" name="ogonek"/>
  <anchor x="290" y="729" name="top"/>
  <anchor x="134" y="729" name="topleft"/>
  <outline>
    <contour>
      <point x="18" y="0" type="line"/>
      <point x="261" y="0" type="line"/>
      <point x="267" y="28" type="line"/>
      <point x="55" y="28" type="line"/>
      <point x="196" y="701" type="line"/>
      <point x="403" y="701" type="line"/>
      <point x="409" y="729" type="line"/>
      <point x="171" y="729" type="line"/>
    </contour>
    <contour>
      <point x="119" y="362" type="line"/>
      <point x="266" y="362" type="line"/>
      <point x="271" y="390" type="line"/>
      <point x="124" y="390" type="line"/>
    </contour>
  </outline>
</glyph>
<glyph name="F" format="2">
  <advance width="345"/>
  <unicode hex="0046"/>
  <note>
F
</note>
  <anchor x="130" y="0" name="bottom"/>
  <anchor x="285" y="729" name="top"/>
  <outline>
    <contour>
      <point x="18" y="0" type="line"/>
      <point x="49" y="0" type="line"/>
      <point x="196" y="701" type="line"/>
      <point x="399" y="701" type="line"/>
      <point x="405" y="729" type="line"/>
      <point x="171" y="729" type="line"/>
    </contour>
    <contour>
      <point x="118" y="361" type="line"/>
      <point x="311" y="361" type="line"/>
      <point x="317" y="389" type="line"/>
      <point x="124" y="389" type="line"/>
    </contour>
  </outline>
</glyph>
<glyph name="G" format="2">
  <advance width="429"/>
  <unicode hex="0047"/>
  <note>
G
</note>
  <anchor x="178" y="0" name="bottom"/>
  <anchor x="306" y="729" name="top"/>
  <outline>
    <contour>
      <point x="169" y="-6" type="curve" smooth="yes"/>
      <point x="216" y="-6"/>
      <point x="261" y="17"/>
      <point x="293" y="58" type="curve"/>
      <point x="296" y="58" type="line"/>
      <point x="287" y="0" type="line"/>
      <point x="312" y="0" type="line"/>
      <point x="389" y="362" type="line"/>
      <point x="236" y="362" type="line"/>
      <point x="230" y="334" type="line"/>
      <point x="352" y="334" type="line"/>
      <point x="301" y="97" type="line"/>
      <point x="271" y="49"/>
      <point x="226" y="23"/>
      <point x="180" y="23" type="curve" smooth="yes"/>
      <point x="60" y="23"/>
      <point x="65" y="123"/>
      <point x="82" y="203" type="curve" smooth="yes"/>
      <point x="155" y="542" type="line" smooth="yes"/>
      <point x="177" y="642"/>
      <point x="214" y="707"/>
      <point x="301" y="707" type="curve" smooth="yes"/>
      <point x="420" y="707"/>
      <point x="408" y="610"/>
      <point x="389" y="500" type="curve"/>
      <point x="419" y="500" type="line"/>
      <point x="444" y="625"/>
      <point x="444" y="735"/>
      <point x="302" y="735" type="curve" smooth="yes"/>
      <point x="210" y="735"/>
      <point x="153" y="674"/>
      <point x="125" y="544" type="curve" smooth="yes"/>
      <point x="52" y="205" type="line" smooth="yes"/>
      <point x="31" y="106"/>
      <point x="42" y="-6"/>
    </contour>
  </outline>
</glyph>
<glyph name="H" format="2">
  <advance width="445"/>
  <unicode hex="0048"/>
  <note>
H
</note>
  <anchor x="179" y="0" name="bottom"/>
  <anchor x="289" y="577" name="center"/>
  <anchor x="334" y="729" name="top"/>
  <anchor x="115" y="729" name="topleft"/>
  <outline>
    <contour>
      <point x="18" y="0" type="line"/>
      <point x="49" y="0" type="line"/>
      <point x="202" y="729" type="line"/>
      <point x="171" y="729" type="line"/>
    </contour>
    <contour>
      <point x="288" y="0" type="line"/>
      <point x="319" y="0" type="line"/>
      <point x="472" y="729" type="line"/>
      <point x="441" y="729" type="line"/>
    </contour>
    <contour>
      <point x="119" y="364" type="line"/>
      <point x="372" y="364" type="line"/>
      <point x="378" y="392" type="line"/>
      <point x="125" y="392" type="line"/>
    </contour>
  </outline>
</glyph>
<glyph name="I" format="2">
  <advance width="302"/>
  <unicode hex="0049"/>
  <note>
I
</note>
  <anchor x="96" y="0" name="bottom"/>
  <anchor x="207" y="0" name="ogonek"/>
  <anchor x="251" y="729" name="top"/>
  <anchor x="361" y="729" name="topleft"/>
  <outline>
    <contour>
      <point x="84" y="20" type="line"/>
      <point x="115" y="20" type="line"/>
      <point x="263" y="709" type="line"/>
      <point x="232" y="709" type="line"/>
    </contour>
    <contour>
      <point x="-14" y="0" type="line"/>
      <point x="207" y="0" type="line"/>
      <point x="212" y="28" type="line"/>
      <point x="-9" y="28" type="line"/>
    </contour>
    <contour>
      <point x="135" y="701" type="line"/>
      <point x="356" y="701" type="line"/>
      <point x="361" y="729" type="line"/>
      <point x="140" y="729" type="line"/>
    </contour>
  </outline>
</glyph>
<glyph name="J" format="2">
  <advance width="244"/>
  <unicode hex="004A"/>
  <note>
J
</note>
  <anchor x="110" y="0" name="bottom"/>
  <anchor x="256" y="729" name="top"/>
  <outline>
    <contour>
      <point x="-17" y="0" type="line"/>
      <point x="55" y="0" type="line" smooth="yes"/>
      <point x="99" y="0"/>
      <point x="120" y="14"/>
      <point x="130" y="57" type="curve" smooth="yes"/>
      <point x="271" y="729" type="line"/>
      <point x="240" y="729" type="line"/>
      <point x="93" y="28" type="line"/>
      <point x="-11" y="28" type="line"/>
    </contour>
  </outline>
</glyph>
<glyph name="K" format="2">
  <advance width="428"/>
  <unicode hex="004B"/>
  <note>
K
</note>
  <anchor x="143" y="0" name="bottom"/>
  <anchor x="298" y="729" name="top"/>
  <outline>
    <contour>
      <point x="18" y="0" type="line"/>
      <point x="49" y="0" type="line"/>
      <point x="103" y="259" type="line"/>
      <point x="216" y="395" type="line"/>
      <point x="303" y="0" type="line"/>
      <point x="334" y="0" type="line"/>
      <point x="240" y="422" type="line"/>
      <point x="485" y="729" type="line"/>
      <point x="451" y="729" type="line"/>
      <point x="114" y="310" type="line"/>
      <point x="202" y="729" type="line"/>
      <point x="171" y="729" type="line"/>
    </contour>
  </outline>
</glyph>
<glyph name="L" format="2">
  <advance width="347"/>
  <unicode hex="004C"/>
  <note>
L
</note>
  <anchor x="136" y="0" name="bottom"/>
  <anchor x="109" y="365" name="center"/>
  <anchor x="187" y="729" name="top"/>
  <anchor x="246" y="729" name="topright"/>
  <outline>
    <contour>
      <point x="18" y="0" type="line"/>
      <point x="253" y="0" type="line"/>
      <point x="259" y="28" type="line"/>
      <point x="54" y="28" type="line"/>
      <point x="202" y="729" type="line"/>
      <point x="171" y="729" type="line"/>
    </contour>
  </outline>
</glyph>
<glyph name="M" format="2">
  <advance width="512"/>
  <unicode hex="004D"/>
  <note>
M
</note>
  <anchor x="218" y="0" name="bottom"/>
  <anchor x="373" y="729" name="top"/>
  <outline>
    <contour>
      <point x="17" y="0" type="line"/>
      <point x="47" y="0" type="line"/>
      <point x="187" y="665" type="line"/>
      <point x="193" y="696" type="line"/>
      <point x="197" y="696" type="line"/>
      <point x="195" y="666" type="line"/>
      <point x="179" y="0" type="line"/>
      <point x="226" y="0" type="line"/>
      <point x="490" y="666" type="line"/>
      <point x="501" y="696" type="line"/>
      <point x="504" y="696" type="line"/>
      <point x="497" y="665" type="line"/>
      <point x="356" y="0" type="line"/>
      <point x="386" y="0" type="line"/>
      <point x="539" y="729" type="line"/>
      <point x="488" y="729" type="line"/>
      <point x="228" y="76" type="line"/>
      <point x="210" y="25" type="line"/>
      <point x="206" y="25" type="line"/>
      <point x="209" y="76" type="line"/>
      <point x="224" y="729" type="line"/>
      <point x="171" y="729" type="line"/>
    </contour>
  </outline>
</glyph>
<glyph name="N" format="2">
  <advance width="442"/>
  <unicode hex="004E"/>
  <note>
N
</note>
  <anchor x="177" y="0" name="bottom"/>
  <anchor x="332" y="729" name="top"/>
  <outline>
    <contour>
      <point x="17" y="0" type="line"/>
      <point x="48" y="0" type="line"/>
      <point x="194" y="695" type="line"/>
      <point x="197" y="695" type="line"/>
      <point x="199" y="664" type="line"/>
      <point x="265" y="0" type="line"/>
      <point x="316" y="0" type="line"/>
      <point x="469" y="729" type="line"/>
      <point x="438" y="729" type="line"/>
      <point x="293" y="36" type="line"/>
      <point x="289" y="36" type="line"/>
      <point x="288" y="62" type="line"/>
      <point x="222" y="729" type="line"/>
      <point x="171" y="729" type="line"/>
    </contour>
  </outline>
</glyph>
<glyph name="O" format="2">
  <advance width="445"/>
  <unicode hex="004F"/>
  <note>
O
</note>
  <anchor x="168" y="0" name="bottom"/>
  <anchor x="245" y="365" name="center"/>
  <anchor x="362" y="10" name="ogonek"/>
  <anchor x="323" y="729" name="top"/>
  <anchor x="129" y="729" name="topleft"/>
  <anchor x="386" y="709" name="topright"/>
  <outline>
    <contour>
      <point x="193" y="-6" type="curve" smooth="yes"/>
      <point x="283" y="-6"/>
      <point x="338" y="54"/>
      <point x="364" y="175" type="curve" smooth="yes"/>
      <point x="436" y="511" type="line" smooth="yes"/>
      <point x="463" y="637"/>
      <point x="424" y="735"/>
      <point x="298" y="735" type="curve" smooth="yes"/>
      <point x="208" y="735"/>
      <point x="153" y="675"/>
      <point x="127" y="554" type="curve" smooth="yes"/>
      <point x="55" y="218" type="line" smooth="yes"/>
      <point x="28" y="92"/>
      <point x="68" y="-6"/>
    </contour>
    <contour>
      <point x="194" y="20" type="curve" smooth="yes"/>
      <point x="83" y="20"/>
      <point x="61" y="99"/>
      <point x="85" y="212" type="curve" smooth="yes"/>
      <point x="157" y="550" type="line" smooth="yes"/>
      <point x="180" y="658"/>
      <point x="224" y="709"/>
      <point x="297" y="709" type="curve" smooth="yes"/>
      <point x="404" y="709"/>
      <point x="431" y="634"/>
      <point x="406" y="517" type="curve" smooth="yes"/>
      <point x="334" y="179" type="line" smooth="yes"/>
      <point x="311" y="71"/>
      <point x="268" y="20"/>
    </contour>
  </outline>
</glyph>
<glyph name="P" format="2">
  <advance width="378"/>
  <unicode hex="0050"/>
  <note>
P
</note>
  <anchor x="137" y="0" name="bottom"/>
  <anchor x="292" y="729" name="top"/>
  <outline>
    <contour>
      <point x="18" y="0" type="line"/>
      <point x="49" y="0" type="line"/>
      <point x="196" y="702" type="line"/>
      <point x="277" y="702" type="line" smooth="yes"/>
      <point x="351" y="702"/>
      <point x="383" y="654"/>
      <point x="365" y="562" type="curve" smooth="yes"/>
      <point x="352" y="501" type="line" smooth="yes"/>
      <point x="336" y="418"/>
      <point x="294" y="362"/>
      <point x="203" y="362" type="curve" smooth="yes"/>
      <point x="118" y="362" type="line"/>
      <point x="112" y="335" type="line"/>
      <point x="196" y="335" type="line" smooth="yes"/>
      <point x="302" y="335"/>
      <point x="363" y="389"/>
      <point x="390" y="537" type="curve" smooth="yes"/>
      <point x="416" y="675"/>
      <point x="367" y="729"/>
      <point x="270" y="729" type="curve" smooth="yes"/>
      <point x="171" y="729" type="line"/>
    </contour>
  </outline>
</glyph>
<glyph name="R" format="2">
  <advance width="383"/>
  <unicode hex="0052"/>
  <note>
R
</note>
  <anchor x="143" y="0" name="bottom"/>
  <anchor x="263" y="729" name="top"/>
  <outline>
    <contour>
      <point x="18" y="0" type="line"/>
      <point x="49" y="0" type="line"/>
      <point x="196" y="702" type="line"/>
      <point x="281" y="702" type="line" smooth="yes"/>
      <point x="349" y="702"/>
      <point x="383" y="658"/>
      <point x="360" y="544" type="curve" smooth="yes"/>
      <point x="352" y="505" type="line" smooth="yes"/>
      <point x="329" y="394"/>
      <point x="276" y="362"/>
      <point x="199" y="362" type="curve" smooth="yes"/>
      <point x="118" y="362" type="line"/>
      <point x="112" y="335" type="line"/>
      <point x="193" y="335" type="line"/>
      <point x="249" y="0" type="line"/>
      <point x="280" y="0" type="line"/>
      <point x="220" y="350" type="line"/>
      <point x="213" y="336" type="line"/>
      <point x="220" y="336" type="line"/>
      <point x="312" y="346"/>
      <point x="361" y="393"/>
      <point x="389" y="535" type="curve" smooth="yes"/>
      <point x="412" y="651"/>
      <point x="381" y="729"/>
      <point x="286" y="729" type="curve" smooth="yes"/>
      <point x="171" y="729" type="line"/>
    </contour>
  </outline>
</glyph>
<glyph name="S" format="2">
  <advance width="405"/>
  <unicode hex="0053"/>
  <note>
S
</note>
  <anchor x="173" y="0" name="bottom"/>
  <anchor x="293" y="729" name="top"/>
  <outline>
    <contour>
      <point x="172" y="-6" type="curve" smooth="yes"/>
      <point x="271" y="-6"/>
      <point x="333" y="73"/>
      <point x="333" y="191" type="curve" smooth="yes"/>
      <point x="333" y="270"/>
      <point x="298" y="319"/>
      <point x="258" y="358" type="curve" smooth="yes"/>
      <point x="219" y="395" type="line" smooth="yes"/>
      <point x="182" y="430"/>
      <point x="150" y="469"/>
      <point x="150" y="539" type="curve" smooth="yes"/>
      <point x="150" y="640"/>
      <point x="200" y="707"/>
      <point x="271" y="707" type="curve" smooth="yes"/>
      <point x="385" y="707"/>
      <point x="399" y="631"/>
      <point x="375" y="500" type="curve"/>
      <point x="405" y="500" type="line"/>
      <point x="429" y="642"/>
      <point x="407" y="735"/>
      <point x="272" y="735" type="curve" smooth="yes"/>
      <point x="183" y="735"/>
      <point x="120" y="657"/>
      <point x="120" y="539" type="curve" smooth="yes"/>
      <point x="120" y="458"/>
      <point x="155" y="414"/>
      <point x="194" y="377" type="curve" smooth="yes"/>
      <point x="234" y="340" type="line" smooth="yes"/>
      <point x="270" y="306"/>
      <point x="302" y="265"/>
      <point x="302" y="191" type="curve" smooth="yes"/>
      <point x="302" y="88"/>
      <point x="255" y="19"/>
      <point x="173" y="19" type="curve" smooth="yes"/>
      <point x="91" y="19"/>
      <point x="41" y="69"/>
      <point x="70" y="226" type="curve"/>
      <point x="42" y="226" type="line"/>
      <point x="19" y="87"/>
      <point x="44" y="-6"/>
    </contour>
  </outline>
</glyph>
<glyph name="T" format="2">
  <advance width="387"/>
  <unicode hex="0054"/>
  <note>
T
</note>
  <anchor x="141" y="0" name="bottom"/>
  <anchor x="218" y="365" name="center"/>
  <anchor x="295" y="729" name="top"/>
  <outline>
    <contour>
      <point x="125" y="0" type="line"/>
      <point x="156" y="0" type="line"/>
      <point x="304" y="701" type="line"/>
      <point x="443" y="701" type="line"/>
      <point x="449" y="729" type="line"/>
      <point x="138" y="729" type="line"/>
      <point x="132" y="701" type="line"/>
      <point x="273" y="701" type="line"/>
    </contour>
  </outline>
</glyph>
<glyph name="U" format="2">
  <advance width="440"/>
  <unicode hex="0055"/>
  <note>
U
</note>
  <anchor x="176" y="0" name="bottom"/>
  <anchor x="195" y="0" name="ogonek"/>
  <anchor x="318" y="729" name="top"/>
  <anchor x="440" y="729" name="topright"/>
  <outline>
    <contour>
      <point x="181" y="-6" type="curve" smooth="yes"/>
      <point x="267" y="-6"/>
      <point x="326" y="41"/>
      <point x="354" y="172" type="curve" smooth="yes"/>
      <point x="471" y="729" type="line"/>
      <point x="440" y="729" type="line"/>
      <point x="325" y="177" type="line" smooth="yes"/>
      <point x="303" y="71"/>
      <point x="262" y="21"/>
      <point x="183" y="21" type="curve" smooth="yes"/>
      <point x="101" y="21"/>
      <point x="58" y="72"/>
      <point x="86" y="203" type="curve" smooth="yes"/>
      <point x="197" y="729" type="line"/>
      <point x="166" y="729" type="line"/>
      <point x="57" y="212" type="line" smooth="yes"/>
      <point x="36" y="110"/>
      <point x="48" y="-6"/>
    </contour>
  </outline>
</glyph>
<glyph name="V" format="2">
  <advance width="411"/>
  <unicode hex="0056"/>
  <note>
V
</note>
  <anchor x="166" y="0" name="bottom"/>
  <anchor x="321" y="729" name="top"/>
  <outline>
    <contour>
      <point x="127" y="0" type="line"/>
      <point x="171" y="0" type="line"/>
      <point x="466" y="729" type="line"/>
      <point x="435" y="729" type="line"/>
      <point x="172" y="73" type="line"/>
      <point x="157" y="34" type="line"/>
      <point x="153" y="34" type="line"/>
      <point x="155" y="75" type="line"/>
      <point x="169" y="729" type="line"/>
      <point x="141" y="729" type="line"/>
    </contour>
  </outline>
</glyph>
<glyph name="W" format="2">
  <advance width="593"/>
  <unicode hex="0057"/>
  <note>
W
</note>
  <anchor x="263" y="0" name="bottom"/>
  <anchor x="418" y="729" name="top"/>
  <outline>
    <contour>
      <point x="85" y="0" type="line"/>
      <point x="133" y="0" type="line"/>
      <point x="351" y="589" type="line"/>
      <point x="387" y="690" type="line"/>
      <point x="390" y="690" type="line"/>
      <point x="385" y="589" type="line"/>
      <point x="353" y="0" type="line"/>
      <point x="401" y="0" type="line"/>
      <point x="650" y="729" type="line"/>
      <point x="619" y="729" type="line"/>
      <point x="470" y="287" type="line"/>
      <point x="385" y="35" type="line"/>
      <point x="381" y="35" type="line"/>
      <point x="384" y="77" type="line"/>
      <point x="419" y="729" type="line"/>
      <point x="373" y="729" type="line"/>
      <point x="130" y="70" type="line"/>
      <point x="118" y="35" type="line"/>
      <point x="114" y="35" type="line"/>
      <point x="135" y="287" type="line"/>
      <point x="172" y="729" type="line"/>
      <point x="143" y="729" type="line"/>
    </contour>
  </outline>
</glyph>
<glyph name="X" format="2">
  <advance width="420"/>
  <unicode hex="0058"/>
  <note>
X
</note>
  <anchor x="170" y="0" name="bottom"/>
  <anchor x="325" y="729" name="top"/>
  <outline>
    <contour>
      <point x="-16" y="0" type="line"/>
      <point x="18" y="0" type="line"/>
      <point x="227" y="347" type="line"/>
      <point x="231" y="347" type="line"/>
      <point x="296" y="0" type="line"/>
      <point x="325" y="0" type="line"/>
      <point x="253" y="376" type="line"/>
      <point x="467" y="729" type="line"/>
      <point x="434" y="729" type="line"/>
      <point x="243" y="410" type="line"/>
      <point x="239" y="410" type="line"/>
      <point x="180" y="729" type="line"/>
      <point x="151" y="729" type="line"/>
      <point x="217" y="381" type="line"/>
    </contour>
  </outline>
</glyph>
<glyph name="Y" format="2">
  <advance width="411"/>
  <unicode hex="0059"/>
  <note>
Y
</note>
  <anchor x="152" y="0" name="bottom"/>
  <anchor x="304" y="729" name="top"/>
  <anchor x="127" y="729" name="topleft"/>
  <outline>
    <contour>
      <point x="137" y="0" type="line"/>
      <point x="167" y="0" type="line"/>
      <point x="228" y="289" type="line"/>
      <point x="472" y="729" type="line"/>
      <point x="439" y="729" type="line"/>
      <point x="291" y="458" type="line"/>
      <point x="222" y="329" type="line"/>
      <point x="218" y="329" type="line"/>
      <point x="203" y="458" type="line"/>
      <point x="169" y="729" type="line"/>
      <point x="139" y="729" type="line"/>
      <point x="198" y="289" type="line"/>
    </contour>
  </outline>
</glyph>
<glyph name="Z" format="2">
  <advance width="369"/>
  <unicode hex="005A"/>
  <note>
Z
</note>
  <anchor x="129" y="0" name="bottom"/>
  <anchor x="207" y="365" name="center"/>
  <anchor x="284" y="729" name="top"/>
  <outline>
    <contour>
      <point x="-13" y="0" type="line"/>
      <point x="272" y="0" type="line"/>
      <point x="278" y="28" type="line"/>
      <point x="23" y="28" type="line"/>
      <point x="415" y="697" type="line"/>
      <point x="421" y="729" type="line"/>
      <point x="150" y="729" type="line"/>
      <point x="144" y="701" type="line"/>
      <point x="385" y="701" type="line"/>
      <point x="-6" y="32" type="line"/>
    </contour>
  </outline>
</glyph>
<glyph name="bracketleft" format="2">
  <advance width="248"/>
  <unicode hex="005B"/>
  <outline>
    <contour>
      <point x="-18" y="-167" type="line"/>
      <point x="119" y="-167" type="line"/>
      <point x="125" y="-140" type="line"/>
      <point x="18" y="-140" type="line"/>
      <point x="210" y="766" type="line"/>
      <point x="317" y="766" type="line"/>
      <point x="323" y="793" type="line"/>
      <point x="186" y="793" type="line"/>
    </contour>
  </outline>
</glyph>
<glyph name="backslash" format="2">
  <advance width="281"/>
  <unicode hex="005C"/>
  <outline>
    <contour>
      <point x="171" y="-82" type="line"/>
      <point x="199" y="-82" type="line"/>
      <point x="166" y="729" type="line"/>
      <point x="138" y="729" type="line"/>
    </contour>
  </outline>
</glyph>
<glyph name="asciicircum" format="2">
  <advance width="500"/>
  <unicode hex="005E"/>
  <outline>
    <contour>
      <point x="109" y="475" type="line"/>
      <point x="142" y="475" type="line"/>
      <point x="296" y="695" type="line"/>
      <point x="355" y="475" type="line"/>
      <point x="385" y="475" type="line"/>
      <point x="315" y="729" type="line"/>
      <point x="287" y="729" type="line"/>
    </contour>
  </outline>
</glyph>
<glyph name="underscore" format="2">
  <advance width="261"/>
  <unicode hex="005F"/>
  <outline>
    <contour>
      <point x="-55" y="-25" type="line"/>
      <point x="195" y="-25" type="line"/>
      <point x="201" y="0" type="line"/>
      <point x="-49" y="0" type="line"/>
    </contour>
  </outline>
</glyph>
<glyph name="a" format="2">
  <advance width="375"/>
  <unicode hex="0061"/>
  <note>
a
</note>
  <anchor x="145" y="0" name="bottom"/>
  <anchor x="260" y="0" name="ogonek"/>
  <anchor x="255" y="515" name="top"/>
  <outline>
    <contour>
      <point x="123" y="-6" type="curve" smooth="yes"/>
      <point x="169" y="-6"/>
      <point x="214" y="21"/>
      <point x="242" y="73" type="curve"/>
      <point x="247" y="73" type="line"/>
      <point x="234" y="0" type="line"/>
      <point x="261" y="0" type="line"/>
      <point x="370" y="515" type="line"/>
      <point x="344" y="515" type="line"/>
      <point x="321" y="430" type="line"/>
      <point x="317" y="430" type="line"/>
      <point x="306" y="488"/>
      <point x="272" y="521"/>
      <point x="216" y="521" type="curve" smooth="yes"/>
      <point x="151" y="521"/>
      <point x="100" y="478"/>
      <point x="76" y="367" type="curve" smooth="yes"/>
      <point x="32" y="167" type="line" smooth="yes"/>
      <point x="11" y="70"/>
      <point x="37" y="-6"/>
    </contour>
    <contour>
      <point x="130" y="21" type="curve" smooth="yes"/>
      <point x="64" y="21"/>
      <point x="43" y="72"/>
      <point x="62" y="162" type="curve" smooth="yes"/>
      <point x="107" y="370" type="line" smooth="yes"/>
      <point x="123" y="444"/>
      <point x="156" y="494"/>
      <point x="216" y="494" type="curve" smooth="yes"/>
      <point x="273" y="494"/>
      <point x="303" y="448"/>
      <point x="308" y="368" type="curve"/>
      <point x="259" y="137" type="line"/>
      <point x="224" y="60"/>
      <point x="183" y="21"/>
    </contour>
  </outline>
</glyph>
<glyph name="b" format="2">
  <advance width="374"/>
  <unicode hex="0062"/>
  <note>
b
</note>
  <anchor x="156" y="0" name="bottom"/>
  <anchor x="326" y="800" name="top"/>
  <outline>
    <contour>
      <point x="158" y="-6" type="curve" smooth="yes"/>
      <point x="223" y="-6"/>
      <point x="274" y="38"/>
      <point x="298" y="148" type="curve" smooth="yes"/>
      <point x="342" y="348" type="line" smooth="yes"/>
      <point x="365" y="452"/>
      <point x="334" y="521"/>
      <point x="252" y="521" type="curve" smooth="yes"/>
      <point x="205" y="521"/>
      <point x="162" y="494"/>
      <point x="134" y="442" type="curve"/>
      <point x="128" y="442" type="line"/>
      <point x="190" y="729" type="line"/>
      <point x="159" y="729" type="line"/>
      <point x="6" y="0" type="line"/>
      <point x="30" y="0" type="line"/>
      <point x="53" y="85" type="line"/>
      <point x="56" y="85" type="line"/>
      <point x="67" y="30"/>
      <point x="104" y="-6"/>
    </contour>
    <contour>
      <point x="158" y="21" type="curve" smooth="yes"/>
      <point x="101" y="21"/>
      <point x="72" y="66"/>
      <point x="67" y="143" type="curve"/>
      <point x="116" y="376" type="line"/>
      <point x="152" y="450"/>
      <point x="191" y="494"/>
      <point x="247" y="494" type="curve" smooth="yes"/>
      <point x="302" y="494"/>
      <point x="334" y="452"/>
      <point x="312" y="353" type="curve" smooth="yes"/>
      <point x="267" y="145" type="line" smooth="yes"/>
      <point x="249" y="63"/>
      <point x="213" y="21"/>
    </contour>
  </outline>
</glyph>
<glyph name="c" format="2">
  <advance width="364"/>
  <unicode hex="0063"/>
  <note>
c
</note>
  <anchor x="138" y="0" name="bottom"/>
  <anchor x="238" y="515" name="top"/>
  <outline>
    <contour>
      <point x="145" y="-6" type="curve" smooth="yes"/>
      <point x="222" y="-6"/>
      <point x="278" y="43"/>
      <point x="303" y="161" type="curve"/>
      <point x="273" y="161" type="line"/>
      <point x="255" y="82"/>
      <point x="222" y="21"/>
      <point x="146" y="21" type="curve" smooth="yes"/>
      <point x="68" y="21"/>
      <point x="42" y="72"/>
      <point x="62" y="167" type="curve" smooth="yes"/>
      <point x="104" y="364" type="line" smooth="yes"/>
      <point x="119" y="438"/>
      <point x="155" y="494"/>
      <point x="228" y="494" type="curve" smooth="yes"/>
      <point x="313" y="494"/>
      <point x="330" y="431"/>
      <point x="309" y="336" type="curve"/>
      <point x="339" y="336" type="line"/>
      <point x="362" y="447"/>
      <point x="335" y="521"/>
      <point x="229" y="521" type="curve" smooth="yes"/>
      <point x="159" y="521"/>
      <point x="99" y="480"/>
      <point x="74" y="364" type="curve" smooth="yes"/>
      <point x="32" y="171" type="line" smooth="yes"/>
      <point x="9" y="65"/>
      <point x="41" y="-6"/>
    </contour>
  </outline>
</glyph>
<glyph name="d" format="2">
  <advance width="374"/>
  <unicode hex="0064"/>
  <note>
d
</note>
  <anchor x="152" y="0" name="bottom"/>
  <anchor x="358" y="611" name="center"/>
  <anchor x="322" y="800" name="top"/>
  <anchor x="414" y="729" name="topright"/>
  <outline>
    <contour>
      <point x="124" y="-6" type="curve" smooth="yes"/>
      <point x="170" y="-6"/>
      <point x="216" y="21"/>
      <point x="244" y="73" type="curve"/>
      <point x="248" y="73" type="line"/>
      <point x="234" y="0" type="line"/>
      <point x="260" y="0" type="line"/>
      <point x="414" y="729" type="line"/>
      <point x="383" y="729" type="line"/>
      <point x="321" y="430" type="line"/>
      <point x="316" y="430" type="line"/>
      <point x="305" y="488"/>
      <point x="272" y="521"/>
      <point x="216" y="521" type="curve" smooth="yes"/>
      <point x="151" y="521"/>
      <point x="100" y="478"/>
      <point x="76" y="367" type="curve" smooth="yes"/>
      <point x="32" y="167" type="line" smooth="yes"/>
      <point x="11" y="70"/>
      <point x="38" y="-6"/>
    </contour>
    <contour>
      <point x="131" y="21" type="curve" smooth="yes"/>
      <point x="65" y="21"/>
      <point x="43" y="72"/>
      <point x="62" y="162" type="curve" smooth="yes"/>
      <point x="107" y="370" type="line" smooth="yes"/>
      <point x="123" y="444"/>
      <point x="156" y="494"/>
      <point x="216" y="494" type="curve" smooth="yes"/>
      <point x="273" y="494"/>
      <point x="302" y="448"/>
      <point x="307" y="368" type="curve"/>
      <point x="257" y="131" type="line"/>
      <point x="222" y="58"/>
      <point x="182" y="21"/>
    </contour>
  </outline>
</glyph>
<glyph name="e" format="2">
  <advance width="367"/>
  <unicode hex="0065"/>
  <note>
e
</note>
  <anchor x="-5" y="0" name="#entry"/>
  <anchor x="142" y="0" name="bottom"/>
  <anchor x="214" y="0" name="ogonek"/>
  <anchor x="232" y="515" name="top"/>
  <outline>
    <contour>
      <point x="142" y="-6" type="curve" smooth="yes"/>
      <point x="223" y="-6"/>
      <point x="277" y="48"/>
      <point x="299" y="153" type="curve"/>
      <point x="270" y="153" type="line"/>
      <point x="250" y="63"/>
      <point x="211" y="20"/>
      <point x="146" y="20" type="curve" smooth="yes"/>
      <point x="58" y="20"/>
      <point x="43" y="78"/>
      <point x="63" y="175" type="curve" smooth="yes"/>
      <point x="100" y="352" type="line" smooth="yes"/>
      <point x="118" y="437"/>
      <point x="154" y="494"/>
      <point x="228" y="494" type="curve" smooth="yes"/>
      <point x="314" y="494"/>
      <point x="328" y="436"/>
      <point x="309" y="340" type="curve" smooth="yes"/>
      <point x="296" y="274" type="line"/>
      <point x="302" y="279" type="line"/>
      <point x="78" y="279" type="line"/>
      <point x="73" y="253" type="line"/>
      <point x="322" y="253" type="line"/>
      <point x="339" y="337" type="line" smooth="yes"/>
      <point x="361" y="447"/>
      <point x="335" y="521"/>
      <point x="231" y="521" type="curve" smooth="yes"/>
      <point x="152" y="521"/>
      <point x="95" y="469"/>
      <point x="70" y="352" type="curve" smooth="yes"/>
      <point x="33" y="178" type="line" smooth="yes"/>
      <point x="10" y="71"/>
      <point x="34" y="-6"/>
    </contour>
  </outline>
</glyph>
<glyph name="f" format="2">
  <advance width="235"/>
  <unicode hex="0066"/>
  <note>
f
</note>
  <anchor x="95" y="0" name="bottom"/>
  <anchor x="265" y="800" name="top"/>
  <outline>
    <contour>
      <point x="43" y="0" type="line"/>
      <point x="74" y="0" type="line"/>
      <point x="177" y="488" type="line"/>
      <point x="257" y="488" type="line"/>
      <point x="263" y="515" type="line"/>
      <point x="182" y="515" type="line"/>
      <point x="222" y="702" type="line"/>
      <point x="303" y="702" type="line"/>
      <point x="307" y="729" type="line"/>
      <point x="234" y="729" type="line" smooth="yes"/>
      <point x="208" y="729"/>
      <point x="195" y="719"/>
      <point x="189" y="693" type="curve" smooth="yes"/>
      <point x="151" y="515" type="line"/>
      <point x="82" y="515" type="line"/>
      <point x="76" y="488" type="line"/>
      <point x="146" y="488" type="line"/>
    </contour>
  </outline>
</glyph>
<glyph name="g" format="2">
  <advance width="381"/>
  <unicode hex="0067"/>
  <note>
g
</note>
  <anchor x="101" y="-200" name="bottom"/>
  <anchor x="246" y="515" name="top"/>
  <outline>
    <contour>
      <point x="102" y="-171" type="curve" smooth="yes"/>
      <point x="180" y="-171"/>
      <point x="237" y="-136"/>
      <point x="260" y="-27" type="curve" smooth="yes"/>
      <point x="376" y="515" type="line"/>
      <point x="349" y="515" type="line"/>
      <point x="326" y="425" type="line"/>
      <point x="322" y="425" type="line"/>
      <point x="312" y="484"/>
      <point x="276" y="521"/>
      <point x="216" y="521" type="curve" smooth="yes"/>
      <point x="142" y="521"/>
      <point x="90" y="466"/>
      <point x="65" y="344" type="curve" smooth="yes"/>
      <point x="39" y="217" type="line" smooth="yes"/>
      <point x="17" y="113"/>
      <point x="37" y="34"/>
      <point x="130" y="34" type="curve" smooth="yes"/>
      <point x="176" y="34"/>
      <point x="223" y="58"/>
      <point x="258" y="117" type="curve"/>
      <point x="260" y="117" type="line"/>
      <point x="230" y="-23" type="line" smooth="yes"/>
      <point x="213" y="-101"/>
      <point x="185" y="-145"/>
      <point x="103" y="-145" type="curve" smooth="yes"/>
      <point x="47" y="-145"/>
      <point x="11" y="-116"/>
      <point x="16" y="-44" type="curve"/>
      <point x="-13" y="-44" type="line"/>
      <point x="-19" y="-119"/>
      <point x="22" y="-171"/>
    </contour>
    <contour>
      <point x="134" y="60" type="curve" smooth="yes"/>
      <point x="57" y="60"/>
      <point x="49" y="127"/>
      <point x="70" y="223" type="curve" smooth="yes"/>
      <point x="96" y="344" type="line" smooth="yes"/>
      <point x="116" y="438"/>
      <point x="152" y="495"/>
      <point x="215" y="495" type="curve" smooth="yes"/>
      <point x="269" y="495"/>
      <point x="299" y="466"/>
      <point x="314" y="370" type="curve"/>
      <point x="272" y="174" type="line"/>
      <point x="232" y="104"/>
      <point x="194" y="60"/>
    </contour>
  </outline>
</glyph>
<glyph name="h" format="2">
  <advance width="393"/>
  <unicode hex="0068"/>
  <note>
h
</note>
  <anchor x="154" y="0" name="bottom"/>
  <anchor x="164" y="611" name="center"/>
  <anchor x="175" y="729" name="top"/>
  <outline>
    <contour>
      <point x="6" y="0" type="line"/>
      <point x="37" y="0" type="line"/>
      <point x="116" y="378" type="line"/>
      <point x="152" y="448"/>
      <point x="196" y="494"/>
      <point x="257" y="494" type="curve" smooth="yes"/>
      <point x="327" y="494"/>
      <point x="345" y="436"/>
      <point x="329" y="358" type="curve" smooth="yes"/>
      <point x="252" y="0" type="line"/>
      <point x="283" y="0" type="line"/>
      <point x="358" y="354" type="line" smooth="yes"/>
      <point x="379" y="450"/>
      <point x="353" y="521"/>
      <point x="262" y="521" type="curve" smooth="yes"/>
      <point x="214" y="521"/>
      <point x="166" y="495"/>
      <point x="133" y="442" type="curve"/>
      <point x="128" y="442" type="line"/>
      <point x="190" y="729" type="line"/>
      <point x="159" y="729" type="line"/>
    </contour>
  </outline>
</glyph>
<glyph name="k" format="2">
  <advance width="365"/>
  <unicode hex="006B"/>
  <note>
k
</note>
  <anchor x="142" y="0" name="bottom"/>
  <anchor x="312" y="800" name="top"/>
  <outline>
    <contour>
      <point x="6" y="0" type="line"/>
      <point x="37" y="0" type="line"/>
      <point x="190" y="729" type="line"/>
      <point x="159" y="729" type="line"/>
    </contour>
    <contour>
      <point x="252" y="0" type="line"/>
      <point x="282" y="0" type="line"/>
      <point x="190" y="312" type="line"/>
      <point x="167" y="287" type="line"/>
    </contour>
    <contour>
      <point x="65" y="160" type="line"/>
      <point x="175" y="287" type="line"/>
      <point x="178" y="288" type="line"/>
      <point x="373" y="515" type="line"/>
      <point x="337" y="515" type="line"/>
      <point x="76" y="210" type="line"/>
    </contour>
  </outline>
</glyph>
<glyph name="l" format="2">
  <advance width="151"/>
  <unicode hex="006C"/>
  <note>
l
</note>
  <anchor x="22" y="0" name="bottom"/>
  <anchor x="99" y="365" name="center"/>
  <anchor x="175" y="729" name="top"/>
  <anchor x="190" y="729" name="topright"/>
  <outline>
    <contour>
      <point x="6" y="0" type="line"/>
      <point x="37" y="0" type="line"/>
      <point x="190" y="729" type="line"/>
      <point x="159" y="729" type="line"/>
    </contour>
  </outline>
</glyph>
<glyph name="m" format="2">
  <advance width="637"/>
  <unicode hex="006D"/>
  <note>
m
</note>
  <anchor x="276" y="0" name="bottom"/>
  <anchor x="386" y="515" name="top"/>
  <outline>
    <contour>
      <point x="4" y="0" type="line"/>
      <point x="35" y="0" type="line"/>
      <point x="114" y="372" type="line"/>
      <point x="150" y="452"/>
      <point x="196" y="496"/>
      <point x="253" y="496" type="curve" smooth="yes"/>
      <point x="328" y="496"/>
      <point x="342" y="433"/>
      <point x="325" y="355" type="curve" smooth="yes"/>
      <point x="250" y="0" type="line"/>
      <point x="281" y="0" type="line"/>
      <point x="355" y="351" type="line" smooth="yes"/>
      <point x="356" y="355"/>
      <point x="358" y="364"/>
      <point x="359" y="370" type="curve"/>
      <point x="395" y="451"/>
      <point x="442" y="496"/>
      <point x="499" y="496" type="curve" smooth="yes"/>
      <point x="570" y="496"/>
      <point x="589" y="440"/>
      <point x="571" y="355" type="curve" smooth="yes"/>
      <point x="496" y="0" type="line"/>
      <point x="527" y="0" type="line"/>
      <point x="601" y="351" type="line" smooth="yes"/>
      <point x="625" y="462"/>
      <point x="586" y="521"/>
      <point x="504" y="521" type="curve" smooth="yes"/>
      <point x="449" y="521"/>
      <point x="401" y="488"/>
      <point x="366" y="426" type="curve"/>
      <point x="362" y="426" type="line"/>
      <point x="356" y="488"/>
      <point x="319" y="521"/>
      <point x="258" y="521" type="curve" smooth="yes"/>
      <point x="211" y="521"/>
      <point x="168" y="496"/>
      <point x="137" y="448" type="curve"/>
      <point x="130" y="448" type="line"/>
      <point x="139" y="515" type="line"/>
      <point x="114" y="515" type="line"/>
    </contour>
  </outline>
</glyph>
<glyph name="n" format="2">
  <advance width="393"/>
  <unicode hex="006E"/>
  <note>
n
</note>
  <anchor x="154" y="0" name="bottom"/>
  <anchor x="264" y="515" name="top"/>
  <outline>
    <contour>
      <point x="6" y="0" type="line"/>
      <point x="37" y="0" type="line"/>
      <point x="116" y="378" type="line"/>
      <point x="152" y="448"/>
      <point x="196" y="494"/>
      <point x="257" y="494" type="curve" smooth="yes"/>
      <point x="327" y="494"/>
      <point x="345" y="436"/>
      <point x="329" y="358" type="curve" smooth="yes"/>
      <point x="252" y="0" type="line"/>
      <point x="283" y="0" type="line"/>
      <point x="358" y="354" type="line" smooth="yes"/>
      <point x="379" y="450"/>
      <point x="353" y="521"/>
      <point x="262" y="521" type="curve" smooth="yes"/>
      <point x="214" y="521"/>
      <point x="166" y="495"/>
      <point x="133" y="442" type="curve"/>
      <point x="128" y="442" type="line"/>
      <point x="140" y="515" type="line"/>
      <point x="114" y="515" type="line"/>
    </contour>
  </outline>
</glyph>
<glyph name="o" format="2">
  <advance width="374"/>
  <unicode hex="006F"/>
  <note>
o
</note>
  <anchor x="238" y="0" name="#exit"/>
  <anchor x="145" y="0" name="bottom"/>
  <anchor x="187" y="258" name="center"/>
  <anchor x="307" y="10" name="ogonek"/>
  <anchor x="242" y="515" name="top"/>
  <anchor x="309" y="495" name="topright"/>
  <outline>
    <contour>
      <point x="145" y="-6" type="curve" smooth="yes"/>
      <point x="215" y="-6"/>
      <point x="275" y="35"/>
      <point x="300" y="151" type="curve" smooth="yes"/>
      <point x="342" y="344" type="line" smooth="yes"/>
      <point x="365" y="450"/>
      <point x="333" y="521"/>
      <point x="229" y="521" type="curve" smooth="yes"/>
      <point x="159" y="521"/>
      <point x="99" y="480"/>
      <point x="74" y="364" type="curve" smooth="yes"/>
      <point x="32" y="171" type="line" smooth="yes"/>
      <point x="9" y="65"/>
      <point x="41" y="-6"/>
    </contour>
    <contour>
      <point x="146" y="21" type="curve" smooth="yes"/>
      <point x="68" y="21"/>
      <point x="42" y="72"/>
      <point x="62" y="167" type="curve" smooth="yes"/>
      <point x="104" y="364" type="line" smooth="yes"/>
      <point x="120" y="438"/>
      <point x="155" y="494"/>
      <point x="228" y="494" type="curve" smooth="yes"/>
      <point x="306" y="494"/>
      <point x="332" y="443"/>
      <point x="312" y="348" type="curve" smooth="yes"/>
      <point x="270" y="151" type="line" smooth="yes"/>
      <point x="254" y="77"/>
      <point x="219" y="21"/>
    </contour>
  </outline>
</glyph>
<glyph name="p" format="2">
  <advance width="374"/>
  <unicode hex="0070"/>
  <note>
p
</note>
  <anchor x="144" y="0" name="bottom"/>
  <anchor x="254" y="515" name="top"/>
  <outline>
    <contour>
      <point x="-31" y="-167" type="line"/>
      <point x="0" y="-167" type="line"/>
      <point x="53" y="85" type="line"/>
      <point x="56" y="85" type="line"/>
      <point x="67" y="30"/>
      <point x="104" y="-6"/>
      <point x="158" y="-6" type="curve" smooth="yes"/>
      <point x="223" y="-6"/>
      <point x="274" y="38"/>
      <point x="298" y="148" type="curve" smooth="yes"/>
      <point x="342" y="348" type="line" smooth="yes"/>
      <point x="365" y="452"/>
      <point x="334" y="521"/>
      <point x="252" y="521" type="curve" smooth="yes"/>
      <point x="205" y="521"/>
      <point x="162" y="494"/>
      <point x="134" y="442" type="curve"/>
      <point x="128" y="442" type="line"/>
      <point x="140" y="515" type="line"/>
      <point x="114" y="515" type="line"/>
    </contour>
    <contour>
      <point x="158" y="21" type="curve" smooth="yes"/>
      <point x="101" y="21"/>
      <point x="72" y="66"/>
      <point x="67" y="143" type="curve"/>
      <point x="116" y="376" type="line"/>
      <point x="152" y="450"/>
      <point x="191" y="494"/>
      <point x="247" y="494" type="curve" smooth="yes"/>
      <point x="302" y="494"/>
      <point x="334" y="452"/>
      <point x="312" y="353" type="curve" smooth="yes"/>
      <point x="267" y="145" type="line" smooth="yes"/>
      <point x="249" y="63"/>
      <point x="213" y="21"/>
    </contour>
  </outline>
</glyph>
<glyph name="q" format="2">
  <advance width="373"/>
  <unicode hex="0071"/>
  <note>
q
</note>
  <anchor x="145" y="0" name="bottom"/>
  <anchor x="255" y="515" name="top"/>
  <outline>
    <contour>
      <point x="194" y="-167" type="line"/>
      <point x="224" y="-167" type="line"/>
      <point x="369" y="515" type="line"/>
      <point x="344" y="515" type="line"/>
      <point x="321" y="430" type="line"/>
      <point x="318" y="430" type="line"/>
      <point x="307" y="485"/>
      <point x="270" y="521"/>
      <point x="216" y="521" type="curve" smooth="yes"/>
      <point x="151" y="521"/>
      <point x="100" y="477"/>
      <point x="76" y="367" type="curve" smooth="yes"/>
      <point x="32" y="167" type="line" smooth="yes"/>
      <point x="9" y="63"/>
      <point x="40" y="-6"/>
      <point x="122" y="-6" type="curve" smooth="yes"/>
      <point x="169" y="-6"/>
      <point x="212" y="21"/>
      <point x="240" y="73" type="curve"/>
      <point x="245" y="73" type="line"/>
    </contour>
    <contour>
      <point x="127" y="21" type="curve" smooth="yes"/>
      <point x="72" y="21"/>
      <point x="40" y="63"/>
      <point x="62" y="162" type="curve" smooth="yes"/>
      <point x="107" y="370" type="line" smooth="yes"/>
      <point x="125" y="452"/>
      <point x="161" y="494"/>
      <point x="216" y="494" type="curve" smooth="yes"/>
      <point x="273" y="494"/>
      <point x="303" y="449"/>
      <point x="308" y="372" type="curve"/>
      <point x="258" y="139" type="line"/>
      <point x="223" y="65"/>
      <point x="183" y="21"/>
    </contour>
  </outline>
</glyph>
<glyph name="r" format="2">
  <advance width="233"/>
  <unicode hex="0072"/>
  <note>
r
</note>
  <anchor x="21" y="0" name="bottom"/>
  <anchor x="164" y="515" name="top"/>
  <outline>
    <contour>
      <point x="5" y="0" type="line"/>
      <point x="36" y="0" type="line"/>
      <point x="116" y="382" type="line"/>
      <point x="163" y="454"/>
      <point x="196" y="488"/>
      <point x="241" y="488" type="curve" smooth="yes"/>
      <point x="256" y="488" type="line"/>
      <point x="263" y="520" type="line"/>
      <point x="248" y="520" type="line" smooth="yes"/>
      <point x="209" y="520"/>
      <point x="168" y="495"/>
      <point x="131" y="431" type="curve"/>
      <point x="127" y="431" type="line"/>
      <point x="141" y="515" type="line"/>
      <point x="114" y="515" type="line"/>
    </contour>
  </outline>
</glyph>
<glyph name="s" format="2">
  <advance width="327"/>
  <unicode hex="0073"/>
  <note>
s
</note>
  <anchor x="112" y="0" name="bottom"/>
  <anchor x="222" y="515" name="top"/>
  <outline>
    <contour>
      <point x="124" y="-6" type="curve" smooth="yes"/>
      <point x="208" y="-6"/>
      <point x="259" y="50"/>
      <point x="259" y="133" type="curve" smooth="yes"/>
      <point x="259" y="185"/>
      <point x="236" y="223"/>
      <point x="179" y="272" type="curve" smooth="yes"/>
      <point x="161" y="288" type="line" smooth="yes"/>
      <point x="128" y="317"/>
      <point x="108" y="346"/>
      <point x="108" y="392" type="curve" smooth="yes"/>
      <point x="108" y="450"/>
      <point x="138" y="494"/>
      <point x="200" y="494" type="curve" smooth="yes"/>
      <point x="264" y="494"/>
      <point x="290" y="448"/>
      <point x="280" y="379" type="curve"/>
      <point x="309" y="379" type="line"/>
      <point x="317" y="467"/>
      <point x="280" y="520"/>
      <point x="201" y="520" type="curve" smooth="yes"/>
      <point x="129" y="520"/>
      <point x="78" y="470"/>
      <point x="78" y="388" type="curve" smooth="yes"/>
      <point x="78" y="338"/>
      <point x="99" y="300"/>
      <point x="154" y="253" type="curve" smooth="yes"/>
      <point x="172" y="237" type="line" smooth="yes"/>
      <point x="209" y="206"/>
      <point x="229" y="174"/>
      <point x="229" y="129" type="curve" smooth="yes"/>
      <point x="229" y="66"/>
      <point x="193" y="20"/>
      <point x="126" y="20" type="curve" smooth="yes"/>
      <point x="53" y="20"/>
      <point x="30" y="72"/>
      <point x="42" y="150" type="curve"/>
      <point x="13" y="150" type="line"/>
      <point x="-2" y="56"/>
      <point x="37" y="-6"/>
    </contour>
  </outline>
</glyph>
<glyph name="t" format="2">
  <advance width="250"/>
  <unicode hex="0074"/>
  <note>
t
</note>
  <anchor x="107" y="0" name="bottom"/>
  <anchor x="123" y="258" name="center"/>
  <anchor x="200" y="515" name="top"/>
  <anchor x="222" y="729" name="topright"/>
  <outline>
    <contour>
      <point x="86" y="0" type="curve" smooth="yes"/>
      <point x="165" y="0" type="line"/>
      <point x="171" y="27" type="line"/>
      <point x="85" y="27" type="line"/>
      <point x="220" y="669" type="line"/>
      <point x="190" y="669" type="line"/>
      <point x="56" y="34" type="line" smooth="yes"/>
      <point x="52" y="14"/>
      <point x="58" y="0"/>
    </contour>
    <contour>
      <point x="76" y="488" type="line"/>
      <point x="268" y="488" type="line"/>
      <point x="274" y="515" type="line"/>
      <point x="82" y="515" type="line"/>
    </contour>
  </outline>
</glyph>
<glyph name="v" format="2">
  <advance width="337"/>
  <unicode hex="0076"/>
  <note>
v
</note>
  <anchor x="130" y="0" name="bottom"/>
  <anchor x="240" y="515" name="top"/>
  <outline>
    <contour>
      <point x="96" y="0" type="line"/>
      <point x="136" y="0" type="line"/>
      <point x="362" y="515" type="line"/>
      <point x="331" y="515" type="line"/>
      <point x="139" y="71" type="line"/>
      <point x="124" y="37" type="line"/>
      <point x="120" y="37" type="line"/>
      <point x="119" y="70" type="line"/>
      <point x="114" y="515" type="line"/>
      <point x="85" y="515" type="line"/>
    </contour>
  </outline>
</glyph>
<glyph name="w" format="2">
  <advance width="509"/>
  <unicode hex="0077"/>
  <note>
w
</note>
  <anchor x="219" y="0" name="bottom"/>
  <anchor x="308" y="515" name="top"/>
  <outline>
    <contour>
      <point x="69" y="0" type="line"/>
      <point x="115" y="0" type="line"/>
      <point x="285" y="438" type="line"/>
      <point x="300" y="479" type="line"/>
      <point x="304" y="479" type="line"/>
      <point x="301" y="438" type="line"/>
      <point x="285" y="0" type="line"/>
      <point x="331" y="0" type="line"/>
      <point x="532" y="515" type="line"/>
      <point x="500" y="515" type="line"/>
      <point x="327" y="63" type="line"/>
      <point x="317" y="36" type="line"/>
      <point x="313" y="36" type="line"/>
      <point x="314" y="62" type="line"/>
      <point x="329" y="515" type="line"/>
      <point x="287" y="515" type="line"/>
      <point x="111" y="62" type="line"/>
      <point x="100" y="34" type="line"/>
      <point x="97" y="34" type="line"/>
      <point x="98" y="62" type="line"/>
      <point x="116" y="515" type="line"/>
      <point x="86" y="515" type="line"/>
    </contour>
  </outline>
</glyph>
<glyph name="x" format="2">
  <advance width="342"/>
  <unicode hex="0078"/>
  <note>
x
</note>
  <anchor x="131" y="0" name="bottom"/>
  <anchor x="241" y="515" name="top"/>
  <outline>
    <contour>
      <point x="-26" y="0" type="line"/>
      <point x="6" y="0" type="line"/>
      <point x="167" y="244" type="line"/>
      <point x="169" y="244" type="line"/>
      <point x="230" y="0" type="line"/>
      <point x="258" y="0" type="line"/>
      <point x="191" y="267" type="line"/>
      <point x="361" y="515" type="line"/>
      <point x="327" y="515" type="line"/>
      <point x="179" y="292" type="line"/>
      <point x="176" y="292" type="line"/>
      <point x="119" y="515" type="line"/>
      <point x="89" y="515" type="line"/>
      <point x="156" y="273" type="line"/>
    </contour>
  </outline>
</glyph>
<glyph name="y" format="2">
  <advance width="346"/>
  <unicode hex="0079"/>
  <note>
y
</note>
  <anchor x="224" y="0" name="bottom"/>
  <anchor x="213" y="515" name="top"/>
  <outline>
    <contour>
      <point x="-39" y="-167" type="line"/>
      <point x="64" y="-167" type="line" smooth="yes"/>
      <point x="86" y="-167"/>
      <point x="101" y="-155"/>
      <point x="106" y="-131" type="curve" smooth="yes"/>
      <point x="140" y="27" type="line"/>
      <point x="372" y="515" type="line"/>
      <point x="339" y="515" type="line"/>
      <point x="153" y="115" type="line"/>
      <point x="135" y="72" type="line"/>
      <point x="131" y="72" type="line"/>
      <point x="131" y="115" type="line"/>
      <point x="114" y="515" type="line"/>
      <point x="84" y="515" type="line"/>
      <point x="109" y="28" type="line"/>
      <point x="74" y="-139" type="line"/>
      <point x="-33" y="-139" type="line"/>
    </contour>
  </outline>
</glyph>
<glyph name="z" format="2">
  <advance width="301"/>
  <unicode hex="007A"/>
  <note>
z
</note>
  <anchor x="108" y="0" name="bottom"/>
  <anchor x="163" y="258" name="center"/>
  <anchor x="218" y="515" name="top"/>
  <outline>
    <contour>
      <point x="-24" y="0" type="line"/>
      <point x="216" y="0" type="line"/>
      <point x="222" y="27" type="line"/>
      <point x="16" y="27" type="line"/>
      <point x="315" y="490" type="line"/>
      <point x="321" y="515" type="line"/>
      <point x="93" y="515" type="line"/>
      <point x="87" y="488" type="line"/>
      <point x="281" y="488" type="line"/>
      <point x="-18" y="24" type="line"/>
    </contour>
  </outline>
</glyph>
<glyph name="braceleft" format="2">
  <advance width="299"/>
  <unicode hex="007B"/>
  <outline>
    <contour>
      <point x="70" y="-167" type="curve" smooth="yes"/>
      <point x="170" y="-167" type="line"/>
      <point x="176" y="-140" type="line"/>
      <point x="69" y="-140" type="line"/>
      <point x="143" y="210" type="line" smooth="yes"/>
      <point x="156" y="266"/>
      <point x="140" y="301"/>
      <point x="96" y="311" type="curve"/>
      <point x="96" y="315" type="line"/>
      <point x="148" y="324"/>
      <point x="174" y="356"/>
      <point x="187" y="416" type="curve" smooth="yes"/>
      <point x="261" y="766" type="line"/>
      <point x="368" y="766" type="line"/>
      <point x="374" y="793" type="line"/>
      <point x="274" y="793" type="line" smooth="yes"/>
      <point x="249" y="793"/>
      <point x="233" y="777"/>
      <point x="228" y="754" type="curve" smooth="yes"/>
      <point x="156" y="415" type="line" smooth="yes"/>
      <point x="145" y="361"/>
      <point x="125" y="329"/>
      <point x="55" y="329" type="curve" smooth="yes"/>
      <point x="54" y="329" type="line"/>
      <point x="48" y="297" type="line"/>
      <point x="69" y="297" type="line" smooth="yes"/>
      <point x="113" y="297"/>
      <point x="126" y="271"/>
      <point x="113" y="211" type="curve" smooth="yes"/>
      <point x="41" y="-128" type="line" smooth="yes"/>
      <point x="36" y="-151"/>
      <point x="45" y="-167"/>
    </contour>
  </outline>
</glyph>
<glyph name="bar" format="2">
  <advance width="269"/>
  <unicode hex="007C"/>
  <outline>
    <contour>
      <point x="50" y="-67" type="line"/>
      <point x="80" y="-67" type="line"/>
      <point x="250" y="729" type="line"/>
      <point x="220" y="729" type="line"/>
    </contour>
  </outline>
</glyph>
<glyph name="asciitilde" format="2">
  <advance width="401"/>
  <unicode hex="007E"/>
  <outline>
    <contour>
      <point x="77" y="319" type="curve"/>
      <point x="97" y="319" type="line"/>
      <point x="103" y="360"/>
      <point x="114" y="384"/>
      <point x="148" y="384" type="curve" smooth="yes"/>
      <point x="186" y="384"/>
      <point x="243" y="320"/>
      <point x="292" y="320" type="curve" smooth="yes"/>
      <point x="336" y="320"/>
      <point x="366" y="351"/>
      <point x="369" y="411" type="curve"/>
      <point x="349" y="411" type="line"/>
      <point x="343" y="370"/>
      <point x="332" y="346"/>
      <point x="298" y="346" type="curve" smooth="yes"/>
      <point x="260" y="346"/>
      <point x="203" y="410"/>
      <point x="154" y="410" type="curve" smooth="yes"/>
      <point x="110" y="410"/>
      <point x="80" y="379"/>
    </contour>
  </outline>
</glyph>
<glyph name="cent" format="2">
  <advance width="386"/>
  <unicode hex="00A2"/>
  <anchor x="170" y="107" name="bottom"/>
  <anchor x="280" y="622" name="top"/>
  <outline>
    <contour>
      <point x="259" y="615" type="line"/>
      <point x="287" y="615" type="line"/>
      <point x="311" y="729" type="line"/>
      <point x="283" y="729" type="line"/>
    </contour>
    <contour>
      <point x="129" y="0" type="line"/>
      <point x="157" y="0" type="line"/>
      <point x="181" y="114" type="line"/>
      <point x="153" y="114" type="line"/>
    </contour>
    <contour>
      <point x="177" y="101" type="curve" smooth="yes"/>
      <point x="254" y="101"/>
      <point x="310" y="150"/>
      <point x="335" y="268" type="curve"/>
      <point x="305" y="268" type="line"/>
      <point x="287" y="189"/>
      <point x="254" y="128"/>
      <point x="178" y="128" type="curve" smooth="yes"/>
      <point x="100" y="128"/>
      <point x="74" y="179"/>
      <point x="94" y="274" type="curve" smooth="yes"/>
      <point x="136" y="471" type="line" smooth="yes"/>
      <point x="151" y="545"/>
      <point x="187" y="601"/>
      <point x="260" y="601" type="curve" smooth="yes"/>
      <point x="345" y="601"/>
      <point x="362" y="538"/>
      <point x="341" y="443" type="curve"/>
      <point x="371" y="443" type="line"/>
      <point x="394" y="554"/>
      <point x="367" y="628"/>
      <point x="261" y="628" type="curve" smooth="yes"/>
      <point x="191" y="628"/>
      <point x="131" y="587"/>
      <point x="106" y="471" type="curve" smooth="yes"/>
      <point x="64" y="278" type="line" smooth="yes"/>
      <point x="41" y="172"/>
      <point x="73" y="101"/>
    </contour>
  </outline>
</glyph>
<glyph name="sterling" format="2">
  <advance width="481"/>
  <unicode hex="00A3"/>
  <outline>
    <contour>
      <point x="-7" y="0" type="line"/>
      <point x="369" y="0" type="line"/>
      <point x="406" y="177" type="line"/>
      <point x="377" y="177" type="line"/>
      <point x="346" y="29" type="line"/>
      <point x="97" y="29" type="line"/>
      <point x="166" y="351" type="line"/>
      <point x="343" y="351" type="line"/>
      <point x="349" y="379" type="line"/>
      <point x="172" y="379" type="line"/>
      <point x="206" y="542" type="line" smooth="yes"/>
      <point x="227" y="642"/>
      <point x="265" y="707"/>
      <point x="352" y="707" type="curve" smooth="yes"/>
      <point x="423" y="707"/>
      <point x="467" y="673"/>
      <point x="446" y="539" type="curve" smooth="yes"/>
      <point x="440" y="500" type="line"/>
      <point x="470" y="500" type="line"/>
      <point x="477" y="539" type="line" smooth="yes"/>
      <point x="498" y="657"/>
      <point x="458" y="735"/>
      <point x="353" y="735" type="curve" smooth="yes"/>
      <point x="261" y="735"/>
      <point x="204" y="674"/>
      <point x="176" y="544" type="curve" smooth="yes"/>
      <point x="141" y="379" type="line"/>
      <point x="72" y="372" type="line"/>
      <point x="67" y="351" type="line"/>
      <point x="135" y="351" type="line"/>
      <point x="67" y="29" type="line"/>
      <point x="-1" y="29" type="line"/>
    </contour>
  </outline>
</glyph>
<glyph name="currency" format="2">
  <advance width="705"/>
  <unicode hex="00A4"/>
  <outline>
    <contour>
      <point x="198" y="156" type="line"/>
      <point x="282" y="245" type="line"/>
      <point x="308" y="225"/>
      <point x="340" y="214"/>
      <point x="375" y="214" type="curve" smooth="yes"/>
      <point x="411" y="214"/>
      <point x="442" y="226"/>
      <point x="465" y="246" type="curve"/>
      <point x="552" y="156" type="line"/>
      <point x="573" y="176" type="line"/>
      <point x="487" y="266" type="line"/>
      <point x="505" y="286"/>
      <point x="520" y="319"/>
      <point x="520" y="360" type="curve" smooth="yes"/>
      <point x="520" y="397"/>
      <point x="509" y="429"/>
      <point x="488" y="457" type="curve"/>
      <point x="572" y="545" type="line"/>
      <point x="552" y="566" type="line"/>
      <point x="465" y="477" type="line"/>
      <point x="441" y="497"/>
      <point x="409" y="507"/>
      <point x="375" y="507" type="curve" smooth="yes"/>
      <point x="340" y="507"/>
      <point x="308" y="496"/>
      <point x="283" y="477" type="curve"/>
      <point x="198" y="566" type="line"/>
      <point x="176" y="545" type="line"/>
      <point x="261" y="457" type="line"/>
      <point x="240" y="431"/>
      <point x="228" y="396"/>
      <point x="228" y="360" type="curve" smooth="yes"/>
      <point x="228" y="328"/>
      <point x="238" y="292"/>
      <point x="260" y="266" type="curve"/>
      <point x="176" y="176" type="line"/>
    </contour>
    <contour>
      <point x="375" y="243" type="curve" smooth="yes"/>
      <point x="308" y="243"/>
      <point x="258" y="293"/>
      <point x="258" y="360" type="curve" smooth="yes"/>
      <point x="258" y="428"/>
      <point x="307" y="478"/>
      <point x="375" y="478" type="curve" smooth="yes"/>
      <point x="440" y="478"/>
      <point x="489" y="429"/>
      <point x="489" y="360" type="curve" smooth="yes"/>
      <point x="489" y="292"/>
      <point x="440" y="243"/>
    </contour>
  </outline>
</glyph>
<glyph name="brokenbar" format="2">
  <advance width="269"/>
  <unicode hex="00A6"/>
  <outline>
    <contour>
      <point x="154" y="419" type="line"/>
      <point x="184" y="419" type="line"/>
      <point x="250" y="729" type="line"/>
      <point x="220" y="729" type="line"/>
    </contour>
    <contour>
      <point x="50" y="-67" type="line"/>
      <point x="80" y="-67" type="line"/>
      <point x="146" y="243" type="line"/>
      <point x="116" y="243" type="line"/>
    </contour>
  </outline>
</glyph>
<glyph name="section" format="2">
  <advance width="341"/>
  <unicode hex="00A7"/>
  <outline>
    <contour>
      <point x="127" y="-10" type="curve" smooth="yes"/>
      <point x="196" y="-10"/>
      <point x="251" y="41"/>
      <point x="251" y="149" type="curve" smooth="yes"/>
      <point x="251" y="179"/>
      <point x="245" y="202"/>
      <point x="232" y="223" type="curve"/>
      <point x="274" y="255"/>
      <point x="301" y="297"/>
      <point x="301" y="365" type="curve" smooth="yes"/>
      <point x="301" y="421"/>
      <point x="279" y="450"/>
      <point x="234" y="495" type="curve" smooth="yes"/>
      <point x="207" y="522"/>
      <point x="175" y="555"/>
      <point x="175" y="604" type="curve" smooth="yes"/>
      <point x="175" y="672"/>
      <point x="208" y="713"/>
      <point x="257" y="713" type="curve" smooth="yes"/>
      <point x="333" y="713"/>
      <point x="324" y="639"/>
      <point x="316" y="582" type="curve"/>
      <point x="343" y="582" type="line"/>
      <point x="357" y="650"/>
      <point x="352" y="742"/>
      <point x="259" y="742" type="curve" smooth="yes"/>
      <point x="191" y="742"/>
      <point x="146" y="685"/>
      <point x="146" y="601" type="curve" smooth="yes"/>
      <point x="146" y="570"/>
      <point x="154" y="542"/>
      <point x="174" y="515" type="curve"/>
      <point x="126" y="487"/>
      <point x="96" y="444"/>
      <point x="96" y="384" type="curve" smooth="yes"/>
      <point x="96" y="338"/>
      <point x="116" y="299"/>
      <point x="161" y="258" type="curve" smooth="yes"/>
      <point x="205" y="217"/>
      <point x="222" y="188"/>
      <point x="222" y="146" type="curve" smooth="yes"/>
      <point x="222" y="65"/>
      <point x="187" y="18"/>
      <point x="130" y="18" type="curve" smooth="yes"/>
      <point x="48" y="18"/>
      <point x="50" y="96"/>
      <point x="60" y="161" type="curve"/>
      <point x="33" y="161" type="line"/>
      <point x="18" y="88"/>
      <point x="27" y="-10"/>
    </contour>
    <contour>
      <point x="217" y="244" type="curve"/>
      <point x="208" y="255"/>
      <point x="197" y="266"/>
      <point x="184" y="279" type="curve" smooth="yes"/>
      <point x="157" y="306"/>
      <point x="125" y="339"/>
      <point x="125" y="388" type="curve" smooth="yes"/>
      <point x="125" y="438"/>
      <point x="150" y="471"/>
      <point x="190" y="496" type="curve"/>
      <point x="196" y="488"/>
      <point x="203" y="481"/>
      <point x="211" y="474" type="curve" smooth="yes"/>
      <point x="255" y="433"/>
      <point x="272" y="404"/>
      <point x="272" y="362" type="curve" smooth="yes"/>
      <point x="272" y="309"/>
      <point x="252" y="273"/>
    </contour>
  </outline>
</glyph>
<glyph name="ordfeminine" format="2">
  <advance width="285"/>
  <unicode hex="00AA"/>
  <outline>
    <contour>
      <point x="177" y="385" type="curve" smooth="yes"/>
      <point x="212" y="385"/>
      <point x="240" y="407"/>
      <point x="247" y="444" type="curve"/>
      <point x="250" y="444" type="line"/>
      <point x="250" y="392" type="line"/>
      <point x="277" y="392" type="line"/>
      <point x="277" y="637" type="line" smooth="yes"/>
      <point x="277" y="704"/>
      <point x="249" y="735"/>
      <point x="194" y="735" type="curve" smooth="yes"/>
      <point x="143" y="735"/>
      <point x="108" y="703"/>
      <point x="108" y="640" type="curve"/>
      <point x="135" y="640" type="line"/>
      <point x="134" y="682"/>
      <point x="154" y="710"/>
      <point x="192" y="710" type="curve" smooth="yes"/>
      <point x="228" y="710"/>
      <point x="248" y="691"/>
      <point x="248" y="637" type="curve" smooth="yes"/>
      <point x="248" y="569" type="line"/>
      <point x="265" y="586" type="line"/>
      <point x="199" y="586" type="line" smooth="yes"/>
      <point x="123" y="586"/>
      <point x="102" y="532"/>
      <point x="102" y="491" type="curve" smooth="yes"/>
      <point x="102" y="475" type="line" smooth="yes"/>
      <point x="102" y="418"/>
      <point x="128" y="385"/>
    </contour>
    <contour>
      <point x="187" y="410" type="curve" smooth="yes"/>
      <point x="154" y="410"/>
      <point x="131" y="427"/>
      <point x="131" y="476" type="curve" smooth="yes"/>
      <point x="131" y="490" type="line" smooth="yes"/>
      <point x="131" y="538"/>
      <point x="155" y="564"/>
      <point x="205" y="564" type="curve" smooth="yes"/>
      <point x="248" y="564" type="line"/>
      <point x="248" y="499" type="line" smooth="yes"/>
      <point x="248" y="448"/>
      <point x="228" y="410"/>
    </contour>
  </outline>
</glyph>
<glyph name="logicalnot" format="2">
  <advance width="500"/>
  <unicode hex="00AC"/>
  <outline>
    <contour>
      <point x="373" y="145" type="line"/>
      <point x="400" y="145" type="line"/>
      <point x="448" y="375" type="line"/>
      <point x="-27" y="375" type="line"/>
      <point x="-33" y="347" type="line"/>
      <point x="415" y="347" type="line"/>
    </contour>
  </outline>
</glyph>
<glyph name="registered" format="2">
  <advance width="431"/>
  <unicode hex="00AE"/>
  <outline>
    <contour>
      <point x="248" y="310" type="curve" smooth="yes"/>
      <point x="379" y="310"/>
      <point x="434" y="472"/>
      <point x="434" y="573" type="curve" smooth="yes"/>
      <point x="434" y="672"/>
      <point x="381" y="734"/>
      <point x="296" y="734" type="curve" smooth="yes"/>
      <point x="165" y="734"/>
      <point x="110" y="571"/>
      <point x="110" y="471" type="curve" smooth="yes"/>
      <point x="110" y="372"/>
      <point x="163" y="310"/>
    </contour>
    <contour>
      <point x="249" y="334" type="curve" smooth="yes"/>
      <point x="178" y="334"/>
      <point x="136" y="385"/>
      <point x="136" y="471" type="curve" smooth="yes"/>
      <point x="136" y="553"/>
      <point x="176" y="710"/>
      <point x="296" y="710" type="curve" smooth="yes"/>
      <point x="368" y="710"/>
      <point x="408" y="660"/>
      <point x="408" y="571" type="curve" smooth="yes"/>
      <point x="408" y="488"/>
      <point x="366" y="334"/>
    </contour>
    <contour>
      <point x="191" y="385" type="line"/>
      <point x="214" y="385" type="line"/>
      <point x="268" y="637" type="line"/>
      <point x="294" y="637" type="line" smooth="yes"/>
      <point x="322" y="637"/>
      <point x="326" y="615"/>
      <point x="321" y="586" type="curve" smooth="yes"/>
      <point x="318" y="569" type="line" smooth="yes"/>
      <point x="312" y="535"/>
      <point x="295" y="523"/>
      <point x="265" y="523" type="curve" smooth="yes"/>
      <point x="240" y="523" type="line"/>
      <point x="236" y="501" type="line"/>
      <point x="263" y="501" type="line"/>
      <point x="279" y="385" type="line"/>
      <point x="304" y="385" type="line"/>
      <point x="285" y="508" type="line"/>
      <point x="284" y="503" type="line"/>
      <point x="285" y="503" type="line"/>
      <point x="322" y="509"/>
      <point x="347" y="542"/>
      <point x="347" y="605" type="curve" smooth="yes"/>
      <point x="347" y="640"/>
      <point x="328" y="658"/>
      <point x="297" y="658" type="curve" smooth="yes"/>
      <point x="249" y="658" type="line"/>
    </contour>
  </outline>
</glyph>
<glyph name="degree" format="2">
  <advance width="427"/>
  <unicode hex="00B0"/>
  <outline>
    <contour>
      <point x="276" y="443" type="curve" smooth="yes"/>
      <point x="361" y="443"/>
      <point x="430" y="503"/>
      <point x="433" y="590" type="curve" smooth="yes"/>
      <point x="436" y="678"/>
      <point x="371" y="737"/>
      <point x="286" y="737" type="curve" smooth="yes"/>
      <point x="202" y="737"/>
      <point x="134" y="678"/>
      <point x="131" y="590" type="curve" smooth="yes"/>
      <point x="128" y="503"/>
      <point x="192" y="443"/>
    </contour>
    <contour>
      <point x="277" y="478" type="curve" smooth="yes"/>
      <point x="213" y="478"/>
      <point x="165" y="524"/>
      <point x="167" y="590" type="curve" smooth="yes"/>
      <point x="170" y="656"/>
      <point x="221" y="702"/>
      <point x="285" y="702" type="curve" smooth="yes"/>
      <point x="350" y="702"/>
      <point x="398" y="656"/>
      <point x="396" y="590" type="curve" smooth="yes"/>
      <point x="394" y="524"/>
      <point x="343" y="478"/>
    </contour>
  </outline>
</glyph>
<glyph name="plusminus" format="2">
  <advance width="500"/>
  <unicode hex="00B1"/>
  <outline>
    <contour>
      <point x="166" y="168" type="line"/>
      <point x="196" y="168" type="line"/>
      <point x="234" y="347" type="line"/>
      <point x="412" y="347" type="line"/>
      <point x="418" y="375" type="line"/>
      <point x="240" y="375" type="line"/>
      <point x="278" y="554" type="line"/>
      <point x="248" y="554" type="line"/>
      <point x="210" y="375" type="line"/>
      <point x="32" y="375" type="line"/>
      <point x="26" y="347" type="line"/>
      <point x="204" y="347" type="line"/>
    </contour>
    <contour>
      <point x="-48" y="0" type="line"/>
      <point x="338" y="0" type="line"/>
      <point x="344" y="28" type="line"/>
      <point x="-42" y="28" type="line"/>
    </contour>
  </outline>
</glyph>
<glyph name="paragraph" format="2">
  <advance width="653"/>
  <unicode hex="00B6"/>
  <outline>
    <contour>
      <point x="282" y="-151" type="line"/>
      <point x="313" y="-151" type="line"/>
      <point x="313" y="699" type="line"/>
      <point x="476" y="699" type="line"/>
      <point x="476" y="-151" type="line"/>
      <point x="506" y="-151" type="line"/>
      <point x="506" y="699" type="line"/>
      <point x="579" y="699" type="line"/>
      <point x="579" y="729" type="line"/>
      <point x="283" y="729" type="line" smooth="yes"/>
      <point x="170" y="729"/>
      <point x="94" y="678"/>
      <point x="94" y="571" type="curve" smooth="yes"/>
      <point x="94" y="472"/>
      <point x="154" y="406"/>
      <point x="282" y="407" type="curve"/>
    </contour>
  </outline>
</glyph>
<glyph name="ordmasculine" format="2">
  <advance width="273"/>
  <unicode hex="00BA"/>
  <outline>
    <contour>
      <point x="201" y="385" type="curve" smooth="yes"/>
      <point x="258" y="385"/>
      <point x="297" y="420"/>
      <point x="297" y="498" type="curve" smooth="yes"/>
      <point x="297" y="623" type="line" smooth="yes"/>
      <point x="297" y="699"/>
      <point x="259" y="735"/>
      <point x="201" y="735" type="curve" smooth="yes"/>
      <point x="143" y="735"/>
      <point x="105" y="699"/>
      <point x="105" y="623" type="curve" smooth="yes"/>
      <point x="105" y="498" type="line" smooth="yes"/>
      <point x="105" y="423"/>
      <point x="142" y="385"/>
    </contour>
    <contour>
      <point x="201" y="410" type="curve" smooth="yes"/>
      <point x="151" y="410"/>
      <point x="134" y="447"/>
      <point x="134" y="496" type="curve" smooth="yes"/>
      <point x="134" y="625" type="line" smooth="yes"/>
      <point x="134" y="673"/>
      <point x="151" y="710"/>
      <point x="201" y="710" type="curve" smooth="yes"/>
      <point x="251" y="710"/>
      <point x="268" y="674"/>
      <point x="268" y="625" type="curve" smooth="yes"/>
      <point x="268" y="496" type="line" smooth="yes"/>
      <point x="268" y="446"/>
      <point x="250" y="410"/>
    </contour>
  </outline>
</glyph>
<glyph name="multiply" format="2">
  <advance width="500"/>
  <unicode hex="00D7"/>
  <outline>
    <contour>
      <point x="8" y="167" type="line"/>
      <point x="453" y="534" type="line"/>
      <point x="436" y="554" type="line"/>
      <point x="-9" y="188" type="line"/>
    </contour>
    <contour>
      <point x="356" y="169" type="line"/>
      <point x="378" y="187" type="line"/>
      <point x="88" y="553" type="line"/>
      <point x="66" y="535" type="line"/>
    </contour>
  </outline>
</glyph>
<glyph name="Thorn" format="2">
  <advance width="469"/>
  <unicode hex="00DE"/>
  <outline>
    <contour>
      <point x="171" y="0" type="line"/>
      <point x="202" y="0" type="line"/>
      <point x="202" y="729" type="line"/>
      <point x="171" y="729" type="line"/>
    </contour>
    <contour>
      <point x="195" y="168" type="line"/>
      <point x="277" y="168" type="line" smooth="yes"/>
      <point x="379" y="168"/>
      <point x="438" y="223"/>
      <point x="438" y="365" type="curve" smooth="yes"/>
      <point x="438" y="507"/>
      <point x="379" y="562"/>
      <point x="277" y="562" type="curve" smooth="yes"/>
      <point x="195" y="562" type="line"/>
      <point x="195" y="534" type="line"/>
      <point x="277" y="534" type="line" smooth="yes"/>
      <point x="371" y="534"/>
      <point x="407" y="477"/>
      <point x="407" y="391" type="curve" smooth="yes"/>
      <point x="407" y="339" type="line" smooth="yes"/>
      <point x="407" y="253"/>
      <point x="371" y="196"/>
      <point x="277" y="196" type="curve" smooth="yes"/>
      <point x="195" y="196" type="line"/>
    </contour>
  </outline>
</glyph>
<glyph name="germandbls" format="2">
  <advance width="429"/>
  <unicode hex="00DF"/>
  <outline>
    <contour>
      <point x="47" y="0" type="line"/>
      <point x="79" y="0" type="line"/>
      <point x="201" y="581" type="line" smooth="yes"/>
      <point x="220" y="672"/>
      <point x="257" y="707"/>
      <point x="309" y="707" type="curve" smooth="yes"/>
      <point x="387" y="707"/>
      <point x="411" y="643"/>
      <point x="391" y="548" type="curve" smooth="yes"/>
      <point x="374" y="467"/>
      <point x="326" y="408"/>
      <point x="255" y="408" type="curve" smooth="yes"/>
      <point x="226" y="408" type="line"/>
      <point x="220" y="379" type="line"/>
      <point x="238" y="379" type="line" smooth="yes"/>
      <point x="326" y="379"/>
      <point x="372" y="316"/>
      <point x="349" y="211" type="curve" smooth="yes"/>
      <point x="338" y="161" type="line" smooth="yes"/>
      <point x="320" y="81"/>
      <point x="270" y="27"/>
      <point x="175" y="27" type="curve" smooth="yes"/>
      <point x="121" y="27" type="line"/>
      <point x="115" y="0" type="line"/>
      <point x="181" y="0" type="line" smooth="yes"/>
      <point x="276" y="0"/>
      <point x="351" y="53"/>
      <point x="377" y="190" type="curve" smooth="yes"/>
      <point x="394" y="277"/>
      <point x="380" y="366"/>
      <point x="298" y="390" type="curve"/>
      <point x="299" y="393" type="line"/>
      <point x="358" y="407"/>
      <point x="405" y="466"/>
      <point x="422" y="548" type="curve" smooth="yes"/>
      <point x="445" y="658"/>
      <point x="404" y="735"/>
      <point x="310" y="735" type="curve" smooth="yes"/>
      <point x="246" y="735"/>
      <point x="193" y="693"/>
      <point x="172" y="593" type="curve" smooth="yes"/>
    </contour>
    <contour>
      <point x="76" y="488" type="line"/>
      <point x="170" y="488" type="line"/>
      <point x="176" y="515" type="line"/>
      <point x="82" y="515" type="line"/>
    </contour>
  </outline>
</glyph>
<glyph name="ae" format="2">
  <advance width="577"/>
  <unicode hex="00E6"/>
  <outline>
    <contour>
      <point x="104" y="-6" type="curve" smooth="yes"/>
      <point x="163" y="-6"/>
      <point x="208" y="28"/>
      <point x="237" y="84" type="curve"/>
      <point x="239" y="84" type="line"/>
      <point x="246" y="29"/>
      <point x="281" y="-6"/>
      <point x="353" y="-6" type="curve" smooth="yes"/>
      <point x="434" y="-6"/>
      <point x="488" y="48"/>
      <point x="510" y="153" type="curve"/>
      <point x="481" y="153" type="line"/>
      <point x="461" y="63"/>
      <point x="422" y="20"/>
      <point x="357" y="20" type="curve" smooth="yes"/>
      <point x="269" y="20"/>
      <point x="254" y="78"/>
      <point x="275" y="175" type="curve" smooth="yes"/>
      <point x="313" y="353" type="line" smooth="yes"/>
      <point x="331" y="438"/>
      <point x="365" y="494"/>
      <point x="439" y="494" type="curve" smooth="yes"/>
      <point x="525" y="494"/>
      <point x="538" y="436"/>
      <point x="520" y="340" type="curve" smooth="yes"/>
      <point x="510" y="288" type="line"/>
      <point x="515" y="294" type="line"/>
      <point x="289" y="294" type="line"/>
      <point x="284" y="267" type="line"/>
      <point x="535" y="267" type="line"/>
      <point x="550" y="337" type="line" smooth="yes"/>
      <point x="574" y="447"/>
      <point x="546" y="521"/>
      <point x="442" y="521" type="curve" smooth="yes"/>
      <point x="392" y="521"/>
      <point x="352" y="500"/>
      <point x="321" y="455" type="curve"/>
      <point x="312" y="494"/>
      <point x="281" y="521"/>
      <point x="229" y="521" type="curve" smooth="yes"/>
      <point x="158" y="521"/>
      <point x="96" y="477"/>
      <point x="75" y="379" type="curve"/>
      <point x="105" y="379" type="line"/>
      <point x="119" y="450"/>
      <point x="160" y="494"/>
      <point x="223" y="494" type="curve" smooth="yes"/>
      <point x="276" y="494"/>
      <point x="306" y="465"/>
      <point x="287" y="375" type="curve" smooth="yes"/>
      <point x="273" y="309" type="line" smooth="yes"/>
      <point x="263" y="262"/>
      <point x="253" y="215"/>
      <point x="243" y="168" type="curve" smooth="yes"/>
      <point x="224" y="80"/>
      <point x="175" y="21"/>
      <point x="110" y="21" type="curve" smooth="yes"/>
      <point x="64" y="21"/>
      <point x="36" y="50"/>
      <point x="41" y="112" type="curve" smooth="yes"/>
      <point x="49" y="205"/>
      <point x="105" y="267"/>
      <point x="213" y="267" type="curve" smooth="yes"/>
      <point x="271" y="267" type="line"/>
      <point x="277" y="294" type="line"/>
      <point x="223" y="294" type="line" smooth="yes"/>
      <point x="102" y="294"/>
      <point x="23" y="235"/>
      <point x="11" y="116" type="curve" smooth="yes"/>
      <point x="3" y="42"/>
      <point x="39" y="-6"/>
    </contour>
  </outline>
</glyph>
<glyph name="eth" format="2">
  <advance width="374"/>
  <unicode hex="00F0"/>
  <outline>
    <contour>
      <point x="143" y="-6" type="curve" smooth="yes"/>
      <point x="229" y="-6"/>
      <point x="279" y="41"/>
      <point x="302" y="148" type="curve" smooth="yes"/>
      <point x="330" y="280" type="line" smooth="yes"/>
      <point x="360" y="417"/>
      <point x="342" y="571"/>
      <point x="245" y="729" type="curve"/>
      <point x="215" y="729" type="line"/>
      <point x="278" y="619"/>
      <point x="319" y="510"/>
      <point x="314" y="364" type="curve"/>
      <point x="309" y="365" type="line"/>
      <point x="292" y="419"/>
      <point x="251" y="443"/>
      <point x="201" y="443" type="curve" smooth="yes"/>
      <point x="131" y="443"/>
      <point x="75" y="400"/>
      <point x="51" y="289" type="curve" smooth="yes"/>
      <point x="29" y="186" type="line" smooth="yes"/>
      <point x="4" y="71"/>
      <point x="51" y="-6"/>
    </contour>
    <contour>
      <point x="144" y="21" type="curve" smooth="yes"/>
      <point x="73" y="21"/>
      <point x="38" y="79"/>
      <point x="56" y="165" type="curve" smooth="yes"/>
      <point x="87" y="312" type="line" smooth="yes"/>
      <point x="101" y="378"/>
      <point x="144" y="416"/>
      <point x="198" y="416" type="curve" smooth="yes"/>
      <point x="262" y="416"/>
      <point x="301" y="377"/>
      <point x="304" y="308" type="curve"/>
      <point x="298" y="278"/>
      <point x="291" y="247"/>
      <point x="285" y="217" type="curve" smooth="yes"/>
      <point x="266" y="125" type="line" smooth="yes"/>
      <point x="253" y="64"/>
      <point x="214" y="21"/>
    </contour>
    <contour>
      <point x="155" y="596" type="line"/>
      <point x="397" y="646" type="line"/>
      <point x="402" y="671" type="line"/>
      <point x="160" y="621" type="line"/>
    </contour>
  </outline>
</glyph>
<glyph name="divide" format="2">
  <advance width="500"/>
  <unicode hex="00F7"/>
  <outline>
    <contour>
      <point x="26" y="347" type="line"/>
      <point x="412" y="347" type="line"/>
      <point x="418" y="375" type="line"/>
      <point x="32" y="375" type="line"/>
    </contour>
    <contour>
      <point x="224" y="481" type="line"/>
      <point x="270" y="481" type="line"/>
      <point x="283" y="542" type="line"/>
      <point x="237" y="542" type="line"/>
    </contour>
    <contour>
      <point x="161" y="181" type="line"/>
      <point x="207" y="181" type="line"/>
      <point x="220" y="242" type="line"/>
      <point x="174" y="242" type="line"/>
    </contour>
  </outline>
</glyph>
<glyph name="idotless" format="2">
  <advance width="151"/>
  <unicode hex="0131"/>
  <anchor x="21" y="0" name="bottom"/>
  <anchor x="37" y="0" name="ogonek"/>
  <anchor x="130" y="515" name="top"/>
  <outline>
    <contour>
      <point x="6" y="0" type="line"/>
      <point x="37" y="0" type="line"/>
      <point x="145" y="515" type="line"/>
      <point x="114" y="515" type="line"/>
    </contour>
  </outline>
</glyph>
<glyph name="Eng" format="2">
  <advance width="438"/>
  <unicode hex="014A"/>
  <outline>
    <contour>
      <point x="137" y="-167" type="line"/>
      <point x="239" y="-167" type="line" smooth="yes"/>
      <point x="267" y="-167"/>
      <point x="280" y="-153"/>
      <point x="284" y="-133" type="curve" smooth="yes"/>
      <point x="465" y="729" type="line"/>
      <point x="436" y="729" type="line"/>
      <point x="291" y="36" type="line"/>
      <point x="287" y="36" type="line"/>
      <point x="286" y="62" type="line"/>
      <point x="220" y="729" type="line"/>
      <point x="171" y="729" type="line"/>
      <point x="17" y="0" type="line"/>
      <point x="46" y="0" type="line"/>
      <point x="192" y="695" type="line"/>
      <point x="195" y="695" type="line"/>
      <point x="197" y="664" type="line"/>
      <point x="263" y="0" type="line"/>
      <point x="281" y="0" type="line"/>
      <point x="252" y="-140" type="line"/>
      <point x="143" y="-140" type="line"/>
    </contour>
  </outline>
</glyph>
<glyph name="eng" format="2">
  <advance width="393"/>
  <unicode hex="014B"/>
  <outline>
    <contour>
      <point x="138" y="-167" type="line"/>
      <point x="210" y="-167" type="line" smooth="yes"/>
      <point x="238" y="-167"/>
      <point x="251" y="-153"/>
      <point x="255" y="-133" type="curve" smooth="yes"/>
      <point x="358" y="354" type="line" smooth="yes"/>
      <point x="379" y="450"/>
      <point x="353" y="521"/>
      <point x="262" y="521" type="curve" smooth="yes"/>
      <point x="214" y="521"/>
      <point x="166" y="495"/>
      <point x="133" y="442" type="curve"/>
      <point x="128" y="442" type="line"/>
      <point x="140" y="515" type="line"/>
      <point x="114" y="515" type="line"/>
      <point x="4" y="0" type="line"/>
      <point x="34" y="0" type="line"/>
      <point x="115" y="378" type="line"/>
      <point x="151" y="448"/>
      <point x="196" y="494"/>
      <point x="257" y="494" type="curve" smooth="yes"/>
      <point x="327" y="494"/>
      <point x="345" y="436"/>
      <point x="329" y="358" type="curve" smooth="yes"/>
      <point x="223" y="-140" type="line"/>
      <point x="144" y="-140" type="line"/>
    </contour>
  </outline>
</glyph>
<glyph name="florin" format="2">
  <advance width="423"/>
  <unicode hex="0192"/>
  <outline>
    <contour>
      <point x="115" y="-38" type="curve" smooth="yes"/>
      <point x="375" y="699" type="line"/>
      <point x="481" y="699" type="line"/>
      <point x="488" y="729" type="line"/>
      <point x="402" y="729" type="line" smooth="yes"/>
      <point x="369" y="729"/>
      <point x="349" y="714"/>
      <point x="337" y="681" type="curve" smooth="yes"/>
      <point x="78" y="-55" type="line"/>
      <point x="-31" y="-55" type="line"/>
      <point x="-38" y="-85" type="line"/>
      <point x="50" y="-85" type="line" smooth="yes"/>
      <point x="83" y="-85"/>
      <point x="105" y="-69"/>
    </contour>
    <contour>
      <point x="141" y="440" type="line"/>
      <point x="409" y="440" type="line"/>
      <point x="415" y="469" type="line"/>
      <point x="147" y="469" type="line"/>
    </contour>
  </outline>
</glyph>
<glyph name="jdotless" format="2">
  <advance width="150"/>
  <unicode hex="0237"/>
  <anchor x="130" y="515" name="top"/>
  <outline>
    <contour>
      <point x="-109" y="-167" type="line"/>
      <point x="-37" y="-167" type="line" smooth="yes"/>
      <point x="-9" y="-167"/>
      <point x="4" y="-153"/>
      <point x="8" y="-133" type="curve" smooth="yes"/>
      <point x="145" y="515" type="line"/>
      <point x="114" y="515" type="line"/>
      <point x="-24" y="-140" type="line"/>
      <point x="-103" y="-140" type="line"/>
    </contour>
  </outline>
</glyph>
<glyph name="gravecomb" format="2">
  <unicode hex="0300"/>
  <anchor x="223" y="515" name="_top"/>
  <outline>
    <contour>
      <point x="209" y="593" type="line"/>
      <point x="237" y="593" type="line"/>
      <point x="172" y="729" type="line"/>
      <point x="140" y="729" type="line"/>
    </contour>
  </outline>
</glyph>
<glyph name="acutecomb" format="2">
  <unicode hex="0301"/>
  <anchor x="110" y="515" name="_top"/>
  <outline>
    <contour>
      <point x="111" y="593" type="line"/>
      <point x="143" y="593" type="line"/>
      <point x="239" y="729" type="line"/>
      <point x="207" y="729" type="line"/>
    </contour>
  </outline>
</glyph>
<glyph name="circumflexcomb" format="2">
  <unicode hex="0302"/>
  <anchor x="186" y="515" name="_top"/>
  <outline>
    <contour>
      <point x="111" y="593" type="line"/>
      <point x="143" y="593" type="line"/>
      <point x="232" y="710" type="line"/>
      <point x="261" y="593" type="line"/>
      <point x="288" y="593" type="line"/>
      <point x="253" y="729" type="line"/>
      <point x="217" y="729" type="line"/>
    </contour>
  </outline>
</glyph>
<glyph name="tildecomb" format="2">
  <unicode hex="0303"/>
  <anchor x="211" y="515" name="_top"/>
  <outline>
    <contour>
      <point x="295" y="609" type="curve" smooth="yes"/>
      <point x="327" y="609"/>
      <point x="354" y="631"/>
      <point x="363" y="684" type="curve"/>
      <point x="344" y="684" type="line"/>
      <point x="336" y="650"/>
      <point x="323" y="637"/>
      <point x="302" y="637" type="curve" smooth="yes"/>
      <point x="264" y="637"/>
      <point x="228" y="683"/>
      <point x="182" y="683" type="curve" smooth="yes"/>
      <point x="148" y="683"/>
      <point x="123" y="656"/>
      <point x="115" y="608" type="curve"/>
      <point x="134" y="608" type="line"/>
      <point x="141" y="636"/>
      <point x="151" y="655"/>
      <point x="175" y="655" type="curve" smooth="yes"/>
      <point x="213" y="655"/>
      <point x="248" y="609"/>
    </contour>
  </outline>
</glyph>
<glyph name="macroncomb" format="2">
  <unicode hex="0304"/>
  <anchor x="217" y="515" name="_top"/>
  <outline>
    <contour>
      <point x="123" y="649" type="line"/>
      <point x="366" y="649" type="line"/>
      <point x="372" y="676" type="line"/>
      <point x="129" y="676" type="line"/>
    </contour>
  </outline>
</glyph>
<glyph name="brevecomb" format="2">
  <unicode hex="0306"/>
  <anchor x="181" y="515" name="_top"/>
  <outline>
    <contour>
      <point x="203" y="588" type="curve" smooth="yes"/>
      <point x="255" y="588"/>
      <point x="294" y="637"/>
      <point x="305" y="729" type="curve"/>
      <point x="276" y="729" type="line"/>
      <point x="267" y="652"/>
      <point x="237" y="614"/>
      <point x="203" y="614" type="curve" smooth="yes"/>
      <point x="163" y="614"/>
      <point x="153" y="652"/>
      <point x="168" y="729" type="curve"/>
      <point x="140" y="729" type="line"/>
      <point x="122" y="638"/>
      <point x="144" y="588"/>
    </contour>
  </outline>
</glyph>
<glyph name="dotaccentcomb" format="2">
  <unicode hex="0307"/>
  <anchor x="111" y="515" name="_top"/>
  <outline>
    <contour>
      <point x="117" y="617" type="line"/>
      <point x="148" y="617" type="line"/>
      <point x="171" y="729" type="line"/>
      <point x="140" y="729" type="line"/>
    </contour>
  </outline>
</glyph>
<glyph name="dieresiscomb" format="2">
  <unicode hex="0308"/>
  <anchor x="188" y="515" name="_top"/>
  <outline>
    <contour>
      <point x="116" y="617" type="line"/>
      <point x="147" y="617" type="line"/>
      <point x="171" y="729" type="line"/>
      <point x="140" y="729" type="line"/>
    </contour>
    <contour>
      <point x="272" y="617" type="line"/>
      <point x="303" y="617" type="line"/>
      <point x="327" y="729" type="line"/>
      <point x="296" y="729" type="line"/>
    </contour>
  </outline>
</glyph>
<glyph name="hookabovecomb" format="2">
  <unicode hex="0309"/>
  <anchor x="159" y="515" name="_top"/>
  <outline>
    <contour>
      <point x="155" y="573" type="line"/>
      <point x="217" y="598"/>
      <point x="269" y="635"/>
      <point x="269" y="688" type="curve" smooth="yes"/>
      <point x="269" y="733"/>
      <point x="232" y="756"/>
      <point x="180" y="756" type="curve" smooth="yes"/>
      <point x="169" y="756"/>
      <point x="157" y="755"/>
      <point x="145" y="752" type="curve"/>
      <point x="140" y="723" type="line"/>
      <point x="151" y="726"/>
      <point x="164" y="727"/>
      <point x="175" y="727" type="curve" smooth="yes"/>
      <point x="211" y="727"/>
      <point x="234" y="716"/>
      <point x="234" y="686" type="curve" smooth="yes"/>
      <point x="234" y="643"/>
      <point x="190" y="619"/>
      <point x="141" y="599" type="curve"/>
    </contour>
  </outline>
</glyph>
<glyph name="ringcomb" format="2">
  <unicode hex="030A"/>
  <anchor x="158" y="515" name="_top"/>
  <outline>
    <contour>
      <point x="183" y="588" type="curve" smooth="yes"/>
      <point x="216" y="588"/>
      <point x="243" y="616"/>
      <point x="254" y="668" type="curve" smooth="yes"/>
      <point x="265" y="720"/>
      <point x="250" y="766"/>
      <point x="202" y="766" type="curve" smooth="yes"/>
      <point x="169" y="766"/>
      <point x="142" y="738"/>
      <point x="131" y="686" type="curve" smooth="yes"/>
      <point x="120" y="634"/>
      <point x="134" y="588"/>
    </contour>
    <contour>
      <point x="183" y="613" type="curve" smooth="yes"/>
      <point x="153" y="613"/>
      <point x="150" y="647"/>
      <point x="157" y="682" type="curve" smooth="yes"/>
      <point x="165" y="717"/>
      <point x="180" y="741"/>
      <point x="201" y="741" type="curve" smooth="yes"/>
      <point x="230" y="741"/>
      <point x="236" y="711"/>
      <point x="228" y="672" type="curve" smooth="yes"/>
      <point x="220" y="637"/>
      <point x="205" y="613"/>
    </contour>
  </outline>
</glyph>
<glyph name="hungarumlautcomb" format="2">
  <unicode hex="030B"/>
  <anchor x="160" y="515" name="_top"/>
  <outline>
    <contour>
      <point x="111" y="593" type="line"/>
      <point x="143" y="593" type="line"/>
      <point x="239" y="729" type="line"/>
      <point x="207" y="729" type="line"/>
    </contour>
    <contour>
      <point x="211" y="593" type="line"/>
      <point x="243" y="593" type="line"/>
      <point x="339" y="729" type="line"/>
      <point x="307" y="729" type="line"/>
    </contour>
  </outline>
</glyph>
<glyph name="caroncomb" format="2">
  <unicode hex="030C"/>
  <anchor x="177" y="515" name="_top"/>
  <outline>
    <contour>
      <point x="175" y="593" type="line"/>
      <point x="211" y="593" type="line"/>
      <point x="317" y="729" type="line"/>
      <point x="285" y="729" type="line"/>
      <point x="196" y="612" type="line"/>
      <point x="167" y="729" type="line"/>
      <point x="140" y="729" type="line"/>
    </contour>
  </outline>
</glyph>
<glyph name="commaturnedabovecomb" format="2">
  <unicode hex="0312"/>
  <anchor x="118" y="515" name="_top"/>
  <outline>
    <contour>
      <point x="115" y="606" type="line"/>
      <point x="161" y="606" type="line"/>
      <point x="174" y="670" type="line"/>
      <point x="147" y="670" type="line"/>
      <point x="209" y="788" type="line"/>
      <point x="189" y="788" type="line"/>
      <point x="128" y="670" type="line"/>
    </contour>
  </outline>
</glyph>
<glyph name="horncomb" format="2">
  <unicode hex="031B"/>
  <anchor x="95" y="515" name="_topright"/>
  <outline>
    <contour>
      <point x="90" y="492" type="line"/>
      <point x="141" y="492"/>
      <point x="179" y="511"/>
      <point x="191" y="569" type="curve" smooth="yes"/>
      <point x="198" y="602" type="line"/>
      <point x="167" y="602" type="line"/>
      <point x="160" y="569" type="line" smooth="yes"/>
      <point x="151" y="528"/>
      <point x="129" y="516"/>
      <point x="95" y="515" type="curve"/>
    </contour>
  </outline>
</glyph>
<glyph name="commaaccentcomb" format="2">
  <unicode hex="0326"/>
  <anchor x="19" y="0" name="_bottom"/>
  <outline>
    <contour>
      <point x="-62" y="-222" type="line"/>
      <point x="-39" y="-222" type="line"/>
      <point x="14" y="-126" type="line"/>
      <point x="26" y="-67" type="line"/>
      <point x="-18" y="-67" type="line"/>
      <point x="-30" y="-126" type="line"/>
      <point x="-6" y="-126" type="line"/>
    </contour>
  </outline>
</glyph>
<glyph name="cedillacomb" format="2">
  <unicode hex="0327"/>
  <anchor x="48" y="0" name="_bottom"/>
  <outline>
    <contour>
      <point x="20" y="-189" type="curve" smooth="yes"/>
      <point x="64" y="-189"/>
      <point x="96" y="-159"/>
      <point x="96" y="-111" type="curve" smooth="yes"/>
      <point x="96" y="-64"/>
      <point x="62" y="-40"/>
      <point x="31" y="-47" type="curve"/>
      <point x="34" y="-58" type="line"/>
      <point x="66" y="9" type="line"/>
      <point x="38" y="9" type="line"/>
      <point x="6" y="-55" type="line"/>
      <point x="13" y="-68" type="line"/>
      <point x="38" y="-61"/>
      <point x="66" y="-70"/>
      <point x="66" y="-107" type="curve" smooth="yes"/>
      <point x="66" y="-141"/>
      <point x="51" y="-163"/>
      <point x="20" y="-163" type="curve" smooth="yes"/>
      <point x="0" y="-163"/>
      <point x="-16" y="-150"/>
      <point x="-15" y="-127" type="curve"/>
      <point x="-42" y="-127" type="line"/>
      <point x="-43" y="-164"/>
      <point x="-18" y="-189"/>
    </contour>
  </outline>
</glyph>
<glyph name="ogonekcomb" format="2">
  <unicode hex="0328"/>
  <anchor x="71" y="0" name="_ogonek"/>
  <outline>
    <contour>
      <point x="16" y="-170" type="curve" smooth="yes"/>
      <point x="32" y="-170"/>
      <point x="44" y="-167"/>
      <point x="53" y="-162" type="curve"/>
      <point x="58" y="-140" type="line"/>
      <point x="50" y="-145"/>
      <point x="36" y="-149"/>
      <point x="23" y="-149" type="curve" smooth="yes"/>
      <point x="0" y="-149"/>
      <point x="-13" y="-137"/>
      <point x="-13" y="-114" type="curve" smooth="yes"/>
      <point x="-13" y="-81"/>
      <point x="17" y="-46"/>
      <point x="71" y="0" type="curve"/>
      <point x="70" y="8" type="line"/>
      <point x="62" y="18" type="line"/>
      <point x="-1" y="-31"/>
      <point x="-38" y="-77"/>
      <point x="-38" y="-118" type="curve" smooth="yes"/>
      <point x="-38" y="-150"/>
      <point x="-17" y="-170"/>
    </contour>
  </outline>
</glyph>
<glyph name="strokeshortcomb" format="2">
  <unicode hex="0335"/>
  <anchor x="212" y="611" name="_center"/>
  <outline>
    <contour>
      <point x="112" y="597" type="line"/>
      <point x="305" y="597" type="line"/>
      <point x="311" y="625" type="line"/>
      <point x="118" y="625" type="line"/>
    </contour>
  </outline>
</glyph>
<glyph name="strokelongcomb" format="2">
  <unicode hex="0336"/>
  <anchor x="254" y="290" name="_center"/>
  <outline>
    <contour>
      <point x="44" y="276" type="line"/>
      <point x="457" y="276" type="line"/>
      <point x="463" y="304" type="line"/>
      <point x="50" y="304" type="line"/>
    </contour>
  </outline>
</glyph>
<glyph name="slashshortcomb" format="2">
  <unicode hex="0337"/>
  <anchor x="135" y="365" name="_center"/>
  <outline>
    <contour>
      <point x="51" y="307" type="line"/>
      <point x="212" y="389" type="line"/>
      <point x="219" y="422" type="line"/>
      <point x="58" y="340" type="line"/>
    </contour>
  </outline>
</glyph>
<glyph name="slashlongcomb" format="2">
  <unicode hex="0338"/>
  <anchor x="194" y="258" name="_center"/>
  <outline>
    <contour>
      <point x="-19" y="-20" type="line"/>
      <point x="10" y="-20" type="line"/>
      <point x="408" y="535" type="line"/>
      <point x="378" y="535" type="line"/>
    </contour>
  </outline>
</glyph>
<glyph name="mu" format="2">
  <advance width="393"/>
  <unicode hex="03BC"/>
  <outline>
    <contour>
      <point x="-28" y="-132" type="line"/>
      <point x="1" y="-132" type="line"/>
      <point x="40" y="52" type="line"/>
      <point x="37" y="52" type="line"/>
      <point x="50" y="15"/>
      <point x="80" y="-6"/>
      <point x="131" y="-6" type="curve" smooth="yes"/>
      <point x="179" y="-6"/>
      <point x="227" y="20"/>
      <point x="260" y="73" type="curve"/>
      <point x="265" y="73" type="line"/>
      <point x="253" y="0" type="line"/>
      <point x="279" y="0" type="line"/>
      <point x="387" y="515" type="line"/>
      <point x="356" y="515" type="line"/>
      <point x="277" y="137" type="line"/>
      <point x="241" y="67"/>
      <point x="197" y="21"/>
      <point x="136" y="21" type="curve" smooth="yes"/>
      <point x="66" y="21"/>
      <point x="48" y="79"/>
      <point x="64" y="157" type="curve" smooth="yes"/>
      <point x="141" y="515" type="line"/>
      <point x="110" y="515" type="line"/>
    </contour>
  </outline>
</glyph>
<glyph name="pi" format="2">
  <advance width="383"/>
  <unicode hex="03C0"/>
  <outline>
    <contour>
      <point x="40" y="0" type="line"/>
      <point x="70" y="0" type="line"/>
      <point x="174" y="488" type="line"/>
      <point x="316" y="488" type="line"/>
      <point x="220" y="37" type="line" smooth="yes"/>
      <point x="215" y="15"/>
      <point x="223" y="0"/>
      <point x="253" y="0" type="curve"/>
      <point x="298" y="0" type="line"/>
      <point x="304" y="29" type="line"/>
      <point x="248" y="29" type="line"/>
      <point x="346" y="488" type="line"/>
      <point x="402" y="488" type="line"/>
      <point x="408" y="515" type="line"/>
      <point x="82" y="515" type="line"/>
      <point x="76" y="488" type="line"/>
      <point x="144" y="488" type="line"/>
    </contour>
  </outline>
</glyph>
<glyph name="Germandbls" format="2">
  <advance width="428"/>
  <unicode hex="1E9E"/>
  <outline>
    <contour>
      <point x="17" y="0" type="line"/>
      <point x="47" y="0" type="line"/>
      <point x="196" y="701" type="line"/>
      <point x="415" y="701" type="line"/>
      <point x="218" y="427" type="line"/>
      <point x="213" y="400" type="line"/>
      <point x="249" y="400" type="line" smooth="yes"/>
      <point x="330" y="400"/>
      <point x="364" y="341"/>
      <point x="342" y="227" type="curve" smooth="yes"/>
      <point x="333" y="181" type="line" smooth="yes"/>
      <point x="314" y="82"/>
      <point x="253" y="26"/>
      <point x="165" y="26" type="curve" smooth="yes"/>
      <point x="116" y="26" type="line"/>
      <point x="110" y="0" type="line"/>
      <point x="158" y="0" type="line" smooth="yes"/>
      <point x="263" y="0"/>
      <point x="342" y="50"/>
      <point x="371" y="210" type="curve" smooth="yes"/>
      <point x="397" y="352"/>
      <point x="347" y="427"/>
      <point x="251" y="427" type="curve" smooth="yes"/>
      <point x="244" y="427" type="line"/>
      <point x="251" y="413" type="line"/>
      <point x="255" y="431" type="line"/>
      <point x="446" y="697" type="line"/>
      <point x="452" y="729" type="line"/>
      <point x="171" y="729" type="line"/>
    </contour>
  </outline>
</glyph>
<glyph name="endash" format="2">
  <advance width="374"/>
  <unicode hex="2013"/>
  <outline>
    <contour>
      <point x="52" y="306" type="line"/>
      <point x="342" y="306" type="line"/>
      <point x="348" y="331" type="line"/>
      <point x="58" y="331" type="line"/>
    </contour>
  </outline>
</glyph>
<glyph name="emdash" format="2">
  <advance width="524"/>
  <unicode hex="2014"/>
  <outline>
    <contour>
      <point x="52" y="306" type="line"/>
      <point x="492" y="306" type="line"/>
      <point x="498" y="331" type="line"/>
      <point x="58" y="331" type="line"/>
    </contour>
  </outline>
</glyph>
<glyph name="bullet" format="2">
  <advance width="195"/>
  <unicode hex="2022"/>
  <outline>
    <contour>
      <point x="36" y="277" type="curve" smooth="yes"/>
      <point x="36" y="240"/>
      <point x="64" y="213"/>
      <point x="102" y="213" type="curve" smooth="yes"/>
      <point x="141" y="213"/>
      <point x="167" y="240"/>
      <point x="167" y="277" type="curve" smooth="yes"/>
      <point x="167" y="315"/>
      <point x="141" y="342"/>
      <point x="102" y="342" type="curve" smooth="yes"/>
      <point x="64" y="342"/>
      <point x="36" y="315"/>
    </contour>
  </outline>
</glyph>
<glyph name="guilsinglleft" format="2">
  <advance width="233"/>
  <unicode hex="2039"/>
  <anchor x="4" y="0" name="#entry"/>
  <anchor x="141" y="0" name="#exit"/>
  <outline>
    <contour>
      <point x="119" y="59" type="line"/>
      <point x="145" y="59" type="line"/>
      <point x="86" y="285" type="line"/>
      <point x="248" y="515" type="line"/>
      <point x="215" y="515" type="line"/>
      <point x="49" y="287" type="line"/>
    </contour>
  </outline>
</glyph>
<glyph name="fraction" format="2">
  <advance width="118"/>
  <unicode hex="2044"/>
  <outline>
    <contour>
      <point x="-221" y="-46" type="line"/>
      <point x="-187" y="-46" type="line"/>
      <point x="383" y="768" type="line"/>
      <point x="349" y="768" type="line"/>
    </contour>
  </outline>
</glyph>
<glyph name="zeroinferior" format="2">
  <advance width="314"/>
  <unicode hex="2080"/>
  <outline>
    <contour>
      <point x="102" y="-64" type="curve" smooth="yes"/>
      <point x="163" y="-64"/>
      <point x="199" y="-24"/>
      <point x="215" y="50" type="curve" smooth="yes"/>
      <point x="256" y="240" type="line" smooth="yes"/>
      <point x="275" y="328"/>
      <point x="246" y="381"/>
      <point x="170" y="381" type="curve" smooth="yes"/>
      <point x="112" y="381"/>
      <point x="74" y="347"/>
      <point x="57" y="268" type="curve" smooth="yes"/>
      <point x="16" y="77" type="line" smooth="yes"/>
      <point x="-4" y="-16"/>
      <point x="30" y="-64"/>
    </contour>
    <contour>
      <point x="103" y="-38" type="curve" smooth="yes"/>
      <point x="50" y="-38"/>
      <point x="30" y="-2"/>
      <point x="45" y="69" type="curve" smooth="yes"/>
      <point x="87" y="268" type="line" smooth="yes"/>
      <point x="99" y="325"/>
      <point x="123" y="355"/>
      <point x="169" y="355" type="curve" smooth="yes"/>
      <point x="222" y="355"/>
      <point x="242" y="319"/>
      <point x="227" y="249" type="curve" smooth="yes"/>
      <point x="184" y="49" type="line" smooth="yes"/>
      <point x="172" y="-7"/>
      <point x="149" y="-38"/>
    </contour>
  </outline>
</glyph>
<glyph name="oneinferior" format="2">
  <advance width="181"/>
  <unicode hex="2081"/>
  <outline>
    <contour>
      <point x="54" y="-60" type="line"/>
      <point x="146" y="377" type="line"/>
      <point x="119" y="377" type="line"/>
      <point x="100" y="311" type="line"/>
      <point x="40" y="311" type="line"/>
      <point x="34" y="282" type="line"/>
      <point x="95" y="282" type="line"/>
      <point x="23" y="-60" type="line"/>
    </contour>
  </outline>
</glyph>
<glyph name="twoinferior" format="2">
  <advance width="280"/>
  <unicode hex="2082"/>
  <outline>
    <contour>
      <point x="-27" y="-60" type="line"/>
      <point x="179" y="-60" type="line"/>
      <point x="185" y="-32" type="line"/>
      <point x="26" y="-32" type="line"/>
      <point x="11" y="-33" type="line"/>
      <point x="12" y="-31" type="line"/>
      <point x="20" y="-22" type="line"/>
      <point x="157" y="139" type="line" smooth="yes"/>
      <point x="203" y="193"/>
      <point x="237" y="238"/>
      <point x="237" y="299" type="curve" smooth="yes"/>
      <point x="237" y="349"/>
      <point x="206" y="381"/>
      <point x="151" y="381" type="curve" smooth="yes"/>
      <point x="91" y="381"/>
      <point x="51" y="337"/>
      <point x="36" y="254" type="curve"/>
      <point x="65" y="252" type="line"/>
      <point x="76" y="314"/>
      <point x="102" y="353"/>
      <point x="148" y="353" type="curve" smooth="yes"/>
      <point x="196" y="353"/>
      <point x="217" y="322"/>
      <point x="203" y="271" type="curve" smooth="yes"/>
      <point x="200" y="260" type="line" smooth="yes"/>
      <point x="192" y="231"/>
      <point x="172" y="199"/>
      <point x="132" y="152" type="curve" smooth="yes"/>
      <point x="-20" y="-27" type="line"/>
    </contour>
  </outline>
</glyph>
<glyph name="threeinferior" format="2">
  <advance width="285"/>
  <unicode hex="2083"/>
  <outline>
    <contour>
      <point x="79" y="-64" type="curve" smooth="yes"/>
      <point x="140" y="-64"/>
      <point x="180" y="-26"/>
      <point x="193" y="46" type="curve" smooth="yes"/>
      <point x="202" y="96"/>
      <point x="199" y="142"/>
      <point x="158" y="159" type="curve"/>
      <point x="158" y="162" type="line"/>
      <point x="197" y="171"/>
      <point x="227" y="201"/>
      <point x="239" y="263" type="curve" smooth="yes"/>
      <point x="253" y="335"/>
      <point x="222" y="381"/>
      <point x="158" y="381" type="curve" smooth="yes"/>
      <point x="91" y="381"/>
      <point x="58" y="329"/>
      <point x="43" y="250" type="curve"/>
      <point x="73" y="250" type="line"/>
      <point x="90" y="326"/>
      <point x="114" y="354"/>
      <point x="156" y="354" type="curve" smooth="yes"/>
      <point x="207" y="354"/>
      <point x="220" y="315"/>
      <point x="208" y="265" type="curve" smooth="yes"/>
      <point x="202" y="240" type="line" smooth="yes"/>
      <point x="193" y="202"/>
      <point x="167" y="178"/>
      <point x="120" y="178" type="curve" smooth="yes"/>
      <point x="91" y="178" type="line"/>
      <point x="85" y="151" type="line"/>
      <point x="109" y="151" type="line" smooth="yes"/>
      <point x="159" y="151"/>
      <point x="175" y="116"/>
      <point x="164" y="63" type="curve" smooth="yes"/>
      <point x="158" y="34" type="line" smooth="yes"/>
      <point x="148" y="-14"/>
      <point x="121" y="-36"/>
      <point x="82" y="-36" type="curve" smooth="yes"/>
      <point x="28" y="-36"/>
      <point x="17" y="4"/>
      <point x="27" y="64" type="curve"/>
      <point x="-3" y="64" type="line"/>
      <point x="-16" y="-8"/>
      <point x="7" y="-64"/>
    </contour>
  </outline>
</glyph>
<glyph name="fourinferior" format="2">
  <advance width="286"/>
  <unicode hex="2084"/>
  <outline>
    <contour>
      <point x="110" y="-60" type="line"/>
      <point x="140" y="-60" type="line"/>
      <point x="165" y="56" type="line"/>
      <point x="214" y="56" type="line"/>
      <point x="220" y="84" type="line"/>
      <point x="171" y="84" type="line"/>
      <point x="190" y="176" type="line"/>
      <point x="165" y="176" type="line"/>
      <point x="140" y="84" type="line"/>
      <point x="29" y="84" type="line"/>
      <point x="30" y="88" type="line"/>
      <point x="217" y="377" type="line"/>
      <point x="183" y="377" type="line"/>
      <point x="-5" y="85" type="line"/>
      <point x="-12" y="56" type="line"/>
      <point x="134" y="56" type="line"/>
    </contour>
  </outline>
</glyph>
<glyph name="fiveinferior" format="2">
  <advance width="288"/>
  <unicode hex="2085"/>
  <outline>
    <contour>
      <point x="83" y="-64" type="curve" smooth="yes"/>
      <point x="147" y="-64"/>
      <point x="182" y="-25"/>
      <point x="202" y="61" type="curve" smooth="yes"/>
      <point x="218" y="137"/>
      <point x="225" y="227"/>
      <point x="138" y="227" type="curve" smooth="yes"/>
      <point x="104" y="227"/>
      <point x="81" y="204"/>
      <point x="69" y="186" type="curve"/>
      <point x="66" y="186" type="line"/>
      <point x="114" y="350" type="line"/>
      <point x="265" y="350" type="line"/>
      <point x="271" y="377" type="line"/>
      <point x="93" y="377" type="line"/>
      <point x="26" y="141" type="line"/>
      <point x="55" y="140" type="line"/>
      <point x="71" y="178"/>
      <point x="96" y="203"/>
      <point x="131" y="203" type="curve" smooth="yes"/>
      <point x="189" y="203"/>
      <point x="184" y="137"/>
      <point x="176" y="95" type="curve" smooth="yes"/>
      <point x="167" y="50" type="line" smooth="yes"/>
      <point x="155" y="-10"/>
      <point x="126" y="-36"/>
      <point x="86" y="-36" type="curve" smooth="yes"/>
      <point x="23" y="-36"/>
      <point x="23" y="17"/>
      <point x="31" y="64" type="curve"/>
      <point x="2" y="64" type="line"/>
      <point x="-7" y="8"/>
      <point x="0" y="-64"/>
    </contour>
  </outline>
</glyph>
<glyph name="sixinferior" format="2">
  <advance width="297"/>
  <unicode hex="2086"/>
  <outline>
    <contour>
      <point x="94" y="-64" type="curve" smooth="yes"/>
      <point x="163" y="-64"/>
      <point x="197" y="-11"/>
      <point x="213" y="81" type="curve" smooth="yes"/>
      <point x="226" y="156"/>
      <point x="215" y="222"/>
      <point x="142" y="222" type="curve" smooth="yes"/>
      <point x="109" y="222"/>
      <point x="79" y="202"/>
      <point x="63" y="167" type="curve"/>
      <point x="60" y="167" type="line"/>
      <point x="63" y="179"/>
      <point x="69" y="205"/>
      <point x="78" y="245" type="curve" smooth="yes"/>
      <point x="97" y="328"/>
      <point x="123" y="355"/>
      <point x="167" y="355" type="curve" smooth="yes"/>
      <point x="218" y="355"/>
      <point x="229" y="317"/>
      <point x="221" y="259" type="curve"/>
      <point x="251" y="259" type="line"/>
      <point x="260" y="334"/>
      <point x="235" y="381"/>
      <point x="168" y="381" type="curve" smooth="yes"/>
      <point x="99" y="381"/>
      <point x="66" y="331"/>
      <point x="46" y="235" type="curve" smooth="yes"/>
      <point x="18" y="101" type="line" smooth="yes"/>
      <point x="-4" y="-4"/>
      <point x="21" y="-64"/>
    </contour>
    <contour>
      <point x="97" y="-36" type="curve" smooth="yes"/>
      <point x="30" y="-36"/>
      <point x="37" y="40"/>
      <point x="47" y="86" type="curve" smooth="yes"/>
      <point x="56" y="131" type="line"/>
      <point x="72" y="169"/>
      <point x="98" y="198"/>
      <point x="133" y="198" type="curve" smooth="yes"/>
      <point x="179" y="198"/>
      <point x="196" y="161"/>
      <point x="182" y="91" type="curve" smooth="yes"/>
      <point x="175" y="56" type="line" smooth="yes"/>
      <point x="163" y="-3"/>
      <point x="139" y="-36"/>
    </contour>
  </outline>
</glyph>
<glyph name="seveninferior" format="2">
  <advance width="277"/>
  <unicode hex="2087"/>
  <outline>
    <contour>
      <point x="39" y="-60" type="line"/>
      <point x="265" y="348" type="line"/>
      <point x="271" y="377" type="line"/>
      <point x="60" y="377" type="line"/>
      <point x="35" y="254" type="line"/>
      <point x="63" y="254" type="line"/>
      <point x="82" y="350" type="line"/>
      <point x="233" y="350" type="line"/>
      <point x="231" y="346" type="line"/>
      <point x="4" y="-60" type="line"/>
    </contour>
  </outline>
</glyph>
<glyph name="eightinferior" format="2">
  <advance width="287"/>
  <unicode hex="2088"/>
  <outline>
    <contour>
      <point x="88" y="-64" type="curve" smooth="yes"/>
      <point x="144" y="-64"/>
      <point x="185" y="-29"/>
      <point x="197" y="47" type="curve" smooth="yes"/>
      <point x="205" y="98"/>
      <point x="197" y="141"/>
      <point x="159" y="159" type="curve"/>
      <point x="160" y="163" type="line"/>
      <point x="198" y="173"/>
      <point x="229" y="202"/>
      <point x="239" y="264" type="curve" smooth="yes"/>
      <point x="247" y="305"/>
      <point x="239" y="381"/>
      <point x="155" y="381" type="curve" smooth="yes"/>
      <point x="93" y="381"/>
      <point x="62" y="332"/>
      <point x="52" y="278" type="curve" smooth="yes"/>
      <point x="45" y="244"/>
      <point x="48" y="191"/>
      <point x="87" y="171" type="curve"/>
      <point x="87" y="167" type="line"/>
      <point x="48" y="159"/>
      <point x="15" y="125"/>
      <point x="4" y="66" type="curve" smooth="yes"/>
      <point x="-10" y="-9"/>
      <point x="15" y="-64"/>
    </contour>
    <contour>
      <point x="90" y="-35" type="curve" smooth="yes"/>
      <point x="45" y="-35"/>
      <point x="21" y="-6"/>
      <point x="33" y="54" type="curve" smooth="yes"/>
      <point x="39" y="84" type="line" smooth="yes"/>
      <point x="48" y="129"/>
      <point x="78" y="152"/>
      <point x="112" y="152" type="curve" smooth="yes"/>
      <point x="160" y="152"/>
      <point x="178" y="116"/>
      <point x="168" y="63" type="curve" smooth="yes"/>
      <point x="162" y="31" type="line" smooth="yes"/>
      <point x="154" y="-12"/>
      <point x="130" y="-35"/>
    </contour>
    <contour>
      <point x="135" y="177" type="curve" smooth="yes"/>
      <point x="90" y="177"/>
      <point x="69" y="212"/>
      <point x="81" y="269" type="curve" smooth="yes"/>
      <point x="85" y="288" type="line" smooth="yes"/>
      <point x="94" y="331"/>
      <point x="119" y="353"/>
      <point x="153" y="353" type="curve" smooth="yes"/>
      <point x="197" y="353"/>
      <point x="222" y="325"/>
      <point x="209" y="263" type="curve" smooth="yes"/>
      <point x="205" y="244" type="line" smooth="yes"/>
      <point x="196" y="201"/>
      <point x="172" y="177"/>
    </contour>
  </outline>
</glyph>
<glyph name="sheqel" format="2">
  <advance width="596"/>
  <unicode hex="20AA"/>
  <outline>
    <contour>
      <point x="160" y="0" type="line"/>
      <point x="404" y="0" type="line" smooth="yes"/>
      <point x="445" y="0"/>
      <point x="467" y="17"/>
      <point x="476" y="61" type="curve" smooth="yes"/>
      <point x="618" y="729" type="line"/>
      <point x="586" y="729" type="line"/>
      <point x="438" y="30" type="line"/>
      <point x="198" y="30" type="line"/>
      <point x="313" y="571" type="line"/>
      <point x="281" y="571" type="line"/>
    </contour>
    <contour>
      <point x="24" y="0" type="line"/>
      <point x="56" y="0" type="line"/>
      <point x="204" y="699" type="line"/>
      <point x="444" y="699" type="line"/>
      <point x="329" y="158" type="line"/>
      <point x="361" y="158" type="line"/>
      <point x="470" y="668" type="line" smooth="yes"/>
      <point x="479" y="712"/>
      <point x="463" y="729"/>
      <point x="422" y="729" type="curve" smooth="yes"/>
      <point x="178" y="729" type="line"/>
    </contour>
  </outline>
</glyph>
<glyph name="rupeeIndian" format="2">
  <advance width="395"/>
  <unicode hex="20B9"/>
  <outline>
    <contour>
      <point x="196" y="0" type="line"/>
      <point x="227" y="0" type="line"/>
      <point x="103" y="340" type="line"/>
      <point x="103" y="334" type="line"/>
      <point x="132" y="334" type="line" smooth="yes"/>
      <point x="257" y="334"/>
      <point x="308" y="393"/>
      <point x="336" y="535" type="curve" smooth="yes"/>
      <point x="353" y="617"/>
      <point x="340" y="679"/>
      <point x="292" y="705" type="curve"/>
      <point x="292" y="702" type="line"/>
      <point x="442" y="702" type="line"/>
      <point x="448" y="729" type="line"/>
      <point x="150" y="729" type="line"/>
      <point x="144" y="702" type="line"/>
      <point x="228" y="702" type="line" smooth="yes"/>
      <point x="296" y="702"/>
      <point x="330" y="658"/>
      <point x="307" y="544" type="curve" smooth="yes"/>
      <point x="299" y="505" type="line" smooth="yes"/>
      <point x="276" y="394"/>
      <point x="216" y="362"/>
      <point x="146" y="362" type="curve" smooth="yes"/>
      <point x="72" y="362" type="line"/>
      <point x="69" y="347" type="line"/>
    </contour>
    <contour>
      <point x="105" y="516" type="line"/>
      <point x="316" y="516" type="line"/>
      <point x="322" y="544" type="line"/>
      <point x="111" y="544" type="line"/>
    </contour>
    <contour>
      <point x="316" y="516" type="line"/>
      <point x="402" y="516" type="line"/>
      <point x="408" y="544" type="line"/>
      <point x="322" y="544" type="line"/>
    </contour>
  </outline>
</glyph>
<glyph name="liraTurkish" format="2">
  <advance width="479"/>
  <unicode hex="20BA"/>
  <outline>
    <contour>
      <point x="98" y="0" type="line"/>
      <point x="123" y="0" type="line" smooth="yes"/>
      <point x="281" y="0"/>
      <point x="404" y="126"/>
      <point x="442" y="316" type="curve"/>
      <point x="410" y="316" type="line"/>
      <point x="375" y="147"/>
      <point x="273" y="32"/>
      <point x="136" y="29" type="curve"/>
      <point x="284" y="729" type="line"/>
      <point x="252" y="729" type="line"/>
    </contour>
    <contour>
      <point x="56" y="288" type="line"/>
      <point x="371" y="404" type="line"/>
      <point x="378" y="436" type="line"/>
      <point x="63" y="320" type="line"/>
    </contour>
    <contour>
      <point x="89" y="446" type="line"/>
      <point x="405" y="562" type="line"/>
      <point x="412" y="594" type="line"/>
      <point x="96" y="477" type="line"/>
    </contour>
  </outline>
</glyph>
<glyph name="literSign" format="2">
  <advance width="382"/>
  <unicode hex="2113"/>
  <outline>
    <contour>
      <point x="167" y="-10" type="curve" smooth="yes"/>
      <point x="215" y="-10"/>
      <point x="259" y="13"/>
      <point x="306" y="106" type="curve"/>
      <point x="278" y="116" type="line"/>
      <point x="249" y="59"/>
      <point x="218" y="21"/>
      <point x="170" y="21" type="curve" smooth="yes"/>
      <point x="80" y="21"/>
      <point x="104" y="232"/>
      <point x="136" y="395" type="curve" smooth="yes"/>
      <point x="174" y="589"/>
      <point x="223" y="707"/>
      <point x="294" y="707" type="curve" smooth="yes"/>
      <point x="357" y="707"/>
      <point x="358" y="626"/>
      <point x="336" y="542" type="curve" smooth="yes"/>
      <point x="290" y="366"/>
      <point x="165" y="217"/>
      <point x="11" y="161" type="curve"/>
      <point x="5" y="129" type="line"/>
      <point x="180" y="188"/>
      <point x="324" y="359"/>
      <point x="370" y="547" type="curve" smooth="yes"/>
      <point x="398" y="662"/>
      <point x="369" y="739"/>
      <point x="298" y="739" type="curve" smooth="yes"/>
      <point x="219" y="739"/>
      <point x="159" y="660"/>
      <point x="106" y="399" type="curve" smooth="yes"/>
      <point x="69" y="216"/>
      <point x="46" y="-10"/>
    </contour>
  </outline>
</glyph>
<glyph name="numero" format="2">
  <advance width="671"/>
  <unicode hex="2116"/>
  <outline>
    <contour>
      <point x="17" y="0" type="line"/>
      <point x="46" y="0" type="line"/>
      <point x="192" y="695" type="line"/>
      <point x="195" y="695" type="line"/>
      <point x="197" y="664" type="line"/>
      <point x="263" y="0" type="line"/>
      <point x="312" y="0" type="line"/>
      <point x="465" y="729" type="line"/>
      <point x="436" y="729" type="line"/>
      <point x="291" y="36" type="line"/>
      <point x="287" y="36" type="line"/>
      <point x="286" y="62" type="line"/>
      <point x="220" y="729" type="line"/>
      <point x="171" y="729" type="line"/>
    </contour>
    <contour>
      <point x="443" y="243" type="line"/>
      <point x="599" y="243" type="line"/>
      <point x="605" y="273" type="line"/>
      <point x="449" y="273" type="line"/>
    </contour>
    <contour>
      <point x="545" y="335" type="curve" smooth="yes"/>
      <point x="604" y="335"/>
      <point x="645" y="403"/>
      <point x="672" y="527" type="curve" smooth="yes"/>
      <point x="696" y="644"/>
      <point x="695" y="739"/>
      <point x="615" y="739" type="curve" smooth="yes"/>
      <point x="556" y="739"/>
      <point x="514" y="674"/>
      <point x="488" y="549" type="curve" smooth="yes"/>
      <point x="457" y="403"/>
      <point x="476" y="335"/>
    </contour>
    <contour>
      <point x="540" y="363" type="curve" smooth="yes"/>
      <point x="489" y="367"/>
      <point x="504" y="465"/>
      <point x="520" y="542" type="curve" smooth="yes"/>
      <point x="546" y="666"/>
      <point x="572" y="710"/>
      <point x="612" y="710" type="curve" smooth="yes"/>
      <point x="663" y="710"/>
      <point x="664" y="644"/>
      <point x="640" y="532" type="curve" smooth="yes"/>
      <point x="610" y="390"/>
      <point x="580" y="360"/>
    </contour>
  </outline>
</glyph>
<glyph name="trademark" format="2">
  <advance width="635"/>
  <unicode hex="2122"/>
  <outline>
    <contour>
      <point x="382" y="419" type="line"/>
      <point x="414" y="419" type="line"/>
      <point x="414" y="569" type="line"/>
      <point x="413" y="686" type="line"/>
      <point x="415" y="686" type="line"/>
      <point x="484" y="419" type="line"/>
      <point x="520" y="419" type="line"/>
      <point x="590" y="686" type="line"/>
      <point x="592" y="686" type="line"/>
      <point x="590" y="569" type="line"/>
      <point x="590" y="419" type="line"/>
      <point x="624" y="419" type="line"/>
      <point x="624" y="729" type="line"/>
      <point x="571" y="729" type="line"/>
      <point x="503" y="462" type="line"/>
      <point x="501" y="462" type="line"/>
      <point x="433" y="729" type="line"/>
      <point x="382" y="729" type="line"/>
    </contour>
    <contour>
      <point x="207" y="419" type="line"/>
      <point x="240" y="419" type="line"/>
      <point x="240" y="699" type="line"/>
      <point x="326" y="699" type="line"/>
      <point x="326" y="729" type="line"/>
      <point x="125" y="729" type="line"/>
      <point x="125" y="699" type="line"/>
      <point x="207" y="699" type="line"/>
    </contour>
  </outline>
</glyph>
<glyph name="arrowup" format="2">
  <advance width="484"/>
  <unicode hex="2191"/>
  <outline>
    <contour>
      <point x="277" y="95" type="line"/>
      <point x="307" y="95" type="line"/>
      <point x="307" y="585" type="line"/>
      <point x="460" y="473" type="line"/>
      <point x="460" y="510" type="line"/>
      <point x="292" y="634" type="line"/>
      <point x="124" y="510" type="line"/>
      <point x="124" y="473" type="line"/>
      <point x="277" y="585" type="line"/>
    </contour>
  </outline>
</glyph>
<glyph name="leftRightArrow" format="2">
  <advance width="659"/>
  <unicode hex="2194"/>
  <outline>
    <contour>
      <point x="207" y="197" type="line"/>
      <point x="244" y="197" type="line"/>
      <point x="132" y="350" type="line"/>
      <point x="573" y="350" type="line"/>
      <point x="461" y="197" type="line"/>
      <point x="498" y="197" type="line"/>
      <point x="622" y="365" type="line"/>
      <point x="498" y="533" type="line"/>
      <point x="461" y="533" type="line"/>
      <point x="573" y="380" type="line"/>
      <point x="132" y="380" type="line"/>
      <point x="244" y="533" type="line"/>
      <point x="207" y="533" type="line"/>
      <point x="83" y="365" type="line"/>
    </contour>
  </outline>
</glyph>
<glyph name="emptyset" format="2">
  <advance width="807"/>
  <unicode hex="2205"/>
  <outline>
    <contour>
      <point x="712" y="558" type="line"/>
      <point x="127" y="201" type="line"/>
      <point x="137" y="172" type="line"/>
      <point x="726" y="530" type="line"/>
    </contour>
    <contour>
      <point x="427" y="0" type="curve" smooth="yes"/>
      <point x="623" y="0"/>
      <point x="786" y="151"/>
      <point x="786" y="366" type="curve" smooth="yes"/>
      <point x="786" y="578"/>
      <point x="623" y="729"/>
      <point x="427" y="729" type="curve" smooth="yes"/>
      <point x="229" y="729"/>
      <point x="67" y="578"/>
      <point x="67" y="366" type="curve" smooth="yes"/>
      <point x="67" y="151"/>
      <point x="229" y="0"/>
    </contour>
    <contour>
      <point x="427" y="28" type="curve" smooth="yes"/>
      <point x="250" y="28"/>
      <point x="100" y="171"/>
      <point x="100" y="366" type="curve" smooth="yes"/>
      <point x="100" y="560"/>
      <point x="250" y="701"/>
      <point x="427" y="701" type="curve" smooth="yes"/>
      <point x="603" y="701"/>
      <point x="753" y="560"/>
      <point x="753" y="366" type="curve" smooth="yes"/>
      <point x="753" y="171"/>
      <point x="603" y="28"/>
    </contour>
  </outline>
</glyph>
<glyph name="product" format="2">
  <advance width="415"/>
  <unicode hex="220F"/>
  <outline>
    <contour>
      <point x="-14" y="-93" type="line"/>
      <point x="17" y="-93" type="line"/>
      <point x="185" y="699" type="line"/>
      <point x="418" y="699" type="line"/>
      <point x="250" y="-93" type="line"/>
      <point x="280" y="-93" type="line"/>
      <point x="454" y="729" type="line"/>
      <point x="160" y="729" type="line"/>
    </contour>
  </outline>
</glyph>
<glyph name="summation" format="2">
  <advance width="375"/>
  <unicode hex="2211"/>
  <outline>
    <contour>
      <point x="-44" y="-93" type="line"/>
      <point x="272" y="-93" type="line"/>
      <point x="278" y="-64" type="line"/>
      <point x="-6" y="-64" type="line"/>
      <point x="-6" y="-61" type="line"/>
      <point x="259" y="318" type="line"/>
      <point x="156" y="697" type="line"/>
      <point x="156" y="700" type="line"/>
      <point x="440" y="700" type="line"/>
      <point x="446" y="729" type="line"/>
      <point x="130" y="729" type="line"/>
      <point x="123" y="696" type="line"/>
      <point x="222" y="320" type="line"/>
      <point x="222" y="317" type="line"/>
      <point x="-37" y="-60" type="line"/>
    </contour>
  </outline>
</glyph>
<glyph name="minus" format="2">
  <advance width="500"/>
  <unicode hex="2212"/>
  <outline>
    <contour>
      <point x="26" y="347" type="line"/>
      <point x="412" y="347" type="line"/>
      <point x="418" y="375" type="line"/>
      <point x="32" y="375" type="line"/>
    </contour>
  </outline>
</glyph>
<glyph name="radical" format="2">
  <advance width="465"/>
  <unicode hex="221A"/>
  <outline>
    <contour>
      <point x="125" y="-93" type="line"/>
      <point x="159" y="-93" type="line"/>
      <point x="537" y="729" type="line"/>
      <point x="507" y="729" type="line"/>
      <point x="152" y="-42" type="line"/>
      <point x="150" y="-42" type="line"/>
      <point x="130" y="369" type="line"/>
      <point x="51" y="369" type="line"/>
      <point x="44" y="335" type="line"/>
      <point x="101" y="335" type="line"/>
    </contour>
  </outline>
</glyph>
<glyph name="infinity" format="2">
  <advance width="820"/>
  <unicode hex="221E"/>
  <outline>
    <contour>
      <point x="233" y="189" type="curve" smooth="yes"/>
      <point x="328" y="189"/>
      <point x="385" y="262"/>
      <point x="434" y="342" type="curve"/>
      <point x="487" y="254"/>
      <point x="541" y="189"/>
      <point x="636" y="189" type="curve" smooth="yes"/>
      <point x="740" y="189"/>
      <point x="798" y="274"/>
      <point x="798" y="363" type="curve" smooth="yes"/>
      <point x="798" y="456"/>
      <point x="740" y="540"/>
      <point x="636" y="540" type="curve" smooth="yes"/>
      <point x="537" y="540"/>
      <point x="483" y="466"/>
      <point x="434" y="388" type="curve"/>
      <point x="385" y="466"/>
      <point x="330" y="540"/>
      <point x="232" y="540" type="curve" smooth="yes"/>
      <point x="129" y="540"/>
      <point x="67" y="458"/>
      <point x="67" y="363" type="curve" smooth="yes"/>
      <point x="67" y="266"/>
      <point x="128" y="189"/>
    </contour>
    <contour>
      <point x="232" y="218" type="curve" smooth="yes"/>
      <point x="151" y="218"/>
      <point x="95" y="275"/>
      <point x="95" y="364" type="curve" smooth="yes"/>
      <point x="95" y="450"/>
      <point x="150" y="512"/>
      <point x="231" y="512" type="curve" smooth="yes"/>
      <point x="306" y="512"/>
      <point x="351" y="462"/>
      <point x="416" y="365" type="curve"/>
      <point x="349" y="261"/>
      <point x="299" y="218"/>
    </contour>
    <contour>
      <point x="636" y="218" type="curve" smooth="yes"/>
      <point x="561" y="218"/>
      <point x="517" y="266"/>
      <point x="451" y="365" type="curve"/>
      <point x="516" y="463"/>
      <point x="562" y="512"/>
      <point x="636" y="512" type="curve" smooth="yes"/>
      <point x="717" y="512"/>
      <point x="772" y="448"/>
      <point x="772" y="364" type="curve" smooth="yes"/>
      <point x="772" y="282"/>
      <point x="717" y="218"/>
    </contour>
  </outline>
</glyph>
<glyph name="integral" format="2">
  <advance width="330"/>
  <unicode hex="222B"/>
  <outline>
    <contour>
      <point x="-48" y="-93" type="line"/>
      <point x="66" y="-93" type="line" smooth="yes"/>
      <point x="91" y="-93"/>
      <point x="110" y="-75"/>
      <point x="116" y="-48" type="curve" smooth="yes"/>
      <point x="275" y="699" type="line"/>
      <point x="398" y="699" type="line"/>
      <point x="404" y="729" type="line"/>
      <point x="293" y="729" type="line" smooth="yes"/>
      <point x="267" y="729"/>
      <point x="248" y="717"/>
      <point x="241" y="687" type="curve" smooth="yes"/>
      <point x="82" y="-64" type="line"/>
      <point x="-42" y="-64" type="line"/>
    </contour>
  </outline>
</glyph>
<glyph name="approxequal" format="2">
  <advance width="500"/>
  <unicode hex="2248"/>
  <outline>
    <contour>
      <point x="91" y="389" type="curve"/>
      <point x="111" y="389" type="line"/>
      <point x="117" y="430"/>
      <point x="128" y="454"/>
      <point x="162" y="454" type="curve" smooth="yes"/>
      <point x="200" y="454"/>
      <point x="257" y="390"/>
      <point x="306" y="390" type="curve" smooth="yes"/>
      <point x="350" y="390"/>
      <point x="380" y="421"/>
      <point x="383" y="481" type="curve"/>
      <point x="363" y="481" type="line"/>
      <point x="357" y="440"/>
      <point x="346" y="416"/>
      <point x="312" y="416" type="curve" smooth="yes"/>
      <point x="274" y="416"/>
      <point x="216" y="480"/>
      <point x="167" y="480" type="curve" smooth="yes"/>
      <point x="123" y="480"/>
      <point x="94" y="449"/>
    </contour>
    <contour>
      <point x="61" y="249" type="curve"/>
      <point x="81" y="249" type="line"/>
      <point x="87" y="290"/>
      <point x="98" y="314"/>
      <point x="132" y="314" type="curve" smooth="yes"/>
      <point x="170" y="314"/>
      <point x="228" y="250"/>
      <point x="277" y="250" type="curve" smooth="yes"/>
      <point x="321" y="250"/>
      <point x="350" y="281"/>
      <point x="353" y="341" type="curve"/>
      <point x="333" y="341" type="line"/>
      <point x="327" y="300"/>
      <point x="316" y="276"/>
      <point x="282" y="276" type="curve" smooth="yes"/>
      <point x="244" y="276"/>
      <point x="187" y="340"/>
      <point x="138" y="340" type="curve" smooth="yes"/>
      <point x="94" y="340"/>
      <point x="64" y="309"/>
    </contour>
  </outline>
</glyph>
<glyph name="lessequal" format="2">
  <advance width="500"/>
  <unicode hex="2264"/>
  <outline>
    <contour>
      <point x="391" y="148" type="line"/>
      <point x="397" y="178" type="line"/>
      <point x="37" y="363" type="line"/>
      <point x="37" y="367" type="line"/>
      <point x="475" y="544" type="line"/>
      <point x="483" y="581" type="line"/>
      <point x="11" y="387" type="line"/>
      <point x="2" y="347" type="line"/>
    </contour>
    <contour>
      <point x="-72" y="0" type="line"/>
      <point x="359" y="0" type="line"/>
      <point x="365" y="28" type="line"/>
      <point x="-66" y="28" type="line"/>
    </contour>
  </outline>
</glyph>
<glyph name="greaterequal" format="2">
  <advance width="500"/>
  <unicode hex="2265"/>
  <outline>
    <contour>
      <point x="11" y="145" type="line"/>
      <point x="483" y="339" type="line"/>
      <point x="492" y="379" type="line"/>
      <point x="103" y="578" type="line"/>
      <point x="97" y="548" type="line"/>
      <point x="457" y="363" type="line"/>
      <point x="457" y="359" type="line"/>
      <point x="19" y="182" type="line"/>
    </contour>
    <contour>
      <point x="-19" y="0" type="line"/>
      <point x="411" y="0" type="line"/>
      <point x="417" y="28" type="line"/>
      <point x="-14" y="28" type="line"/>
    </contour>
  </outline>
</glyph>
<glyph name="whiteCircle" format="2">
  <advance width="554"/>
  <unicode hex="25CB"/>
  <anchor x="299" y="365" name="center"/>
  <outline>
    <contour>
      <point x="253" y="-29" type="curve" smooth="yes"/>
      <point x="363" y="-29"/>
      <point x="446" y="48"/>
      <point x="470" y="159" type="curve" smooth="yes"/>
      <point x="494" y="275"/>
      <point x="519" y="391"/>
      <point x="543" y="507" type="curve" smooth="yes"/>
      <point x="573" y="650"/>
      <point x="490" y="758"/>
      <point x="347" y="758" type="curve" smooth="yes"/>
      <point x="238" y="758"/>
      <point x="152" y="683"/>
      <point x="128" y="565" type="curve" smooth="yes"/>
      <point x="104" y="451"/>
      <point x="80" y="336"/>
      <point x="56" y="222" type="curve" smooth="yes"/>
      <point x="26" y="80"/>
      <point x="108" y="-29"/>
    </contour>
    <contour>
      <point x="252" y="2" type="curve" smooth="yes"/>
      <point x="128" y="2"/>
      <point x="60" y="96"/>
      <point x="86" y="217" type="curve" smooth="yes"/>
      <point x="110" y="332"/>
      <point x="135" y="448"/>
      <point x="159" y="563" type="curve" smooth="yes"/>
      <point x="182" y="669"/>
      <point x="259" y="726"/>
      <point x="347" y="726" type="curve" smooth="yes"/>
      <point x="466" y="726"/>
      <point x="540" y="638"/>
      <point x="513" y="512" type="curve" smooth="yes"/>
      <point x="489" y="397"/>
      <point x="464" y="281"/>
      <point x="440" y="166" type="curve" smooth="yes"/>
      <point x="417" y="60"/>
      <point x="340" y="2"/>
    </contour>
  </outline>
</glyph>
<glyph name="dottedCircle" format="2">
  <advance width="732"/>
  <unicode hex="25CC"/>
  <anchor x="312" y="0" name="bottom"/>
  <anchor x="312" y="0" name="ogonek"/>
  <anchor x="466" y="729" name="top"/>
  <outline>
    <contour>
      <point x="389" y="589" type="curve" smooth="yes"/>
      <point x="415" y="589"/>
      <point x="434" y="608"/>
      <point x="434" y="634" type="curve" smooth="yes"/>
      <point x="434" y="660"/>
      <point x="415" y="679"/>
      <point x="389" y="679" type="curve" smooth="yes"/>
      <point x="363" y="679"/>
      <point x="344" y="660"/>
      <point x="344" y="634" type="curve" smooth="yes"/>
      <point x="344" y="608"/>
      <point x="363" y="589"/>
    </contour>
    <contour>
      <point x="524" y="553" type="curve" smooth="yes"/>
      <point x="550" y="553"/>
      <point x="569" y="572"/>
      <point x="569" y="598" type="curve" smooth="yes"/>
      <point x="569" y="624"/>
      <point x="550" y="643"/>
      <point x="524" y="643" type="curve" smooth="yes"/>
      <point x="498" y="643"/>
      <point x="479" y="624"/>
      <point x="479" y="598" type="curve" smooth="yes"/>
      <point x="479" y="572"/>
      <point x="498" y="553"/>
    </contour>
    <contour>
      <point x="623" y="454" type="curve" smooth="yes"/>
      <point x="649" y="454"/>
      <point x="668" y="473"/>
      <point x="668" y="499" type="curve" smooth="yes"/>
      <point x="668" y="525"/>
      <point x="649" y="544"/>
      <point x="623" y="544" type="curve" smooth="yes"/>
      <point x="597" y="544"/>
      <point x="578" y="525"/>
      <point x="578" y="499" type="curve" smooth="yes"/>
      <point x="578" y="473"/>
      <point x="597" y="454"/>
    </contour>
    <contour>
      <point x="659" y="320" type="curve" smooth="yes"/>
      <point x="685" y="320"/>
      <point x="704" y="338"/>
      <point x="704" y="365" type="curve" smooth="yes"/>
      <point x="704" y="391"/>
      <point x="685" y="409"/>
      <point x="659" y="409" type="curve" smooth="yes"/>
      <point x="633" y="409"/>
      <point x="614" y="391"/>
      <point x="614" y="365" type="curve" smooth="yes"/>
      <point x="614" y="338"/>
      <point x="633" y="320"/>
    </contour>
    <contour>
      <point x="623" y="185" type="curve" smooth="yes"/>
      <point x="649" y="185"/>
      <point x="668" y="204"/>
      <point x="668" y="230" type="curve" smooth="yes"/>
      <point x="668" y="256"/>
      <point x="649" y="275"/>
      <point x="623" y="275" type="curve" smooth="yes"/>
      <point x="597" y="275"/>
      <point x="578" y="256"/>
      <point x="578" y="230" type="curve" smooth="yes"/>
      <point x="578" y="204"/>
      <point x="597" y="185"/>
    </contour>
    <contour>
      <point x="524" y="86" type="curve" smooth="yes"/>
      <point x="550" y="86"/>
      <point x="569" y="105"/>
      <point x="569" y="131" type="curve" smooth="yes"/>
      <point x="569" y="157"/>
      <point x="550" y="176"/>
      <point x="524" y="176" type="curve" smooth="yes"/>
      <point x="498" y="176"/>
      <point x="479" y="157"/>
      <point x="479" y="131" type="curve" smooth="yes"/>
      <point x="479" y="105"/>
      <point x="498" y="86"/>
    </contour>
    <contour>
      <point x="389" y="50" type="curve" smooth="yes"/>
      <point x="415" y="50"/>
      <point x="434" y="69"/>
      <point x="434" y="95" type="curve" smooth="yes"/>
      <point x="434" y="121"/>
      <point x="415" y="140"/>
      <point x="389" y="140" type="curve" smooth="yes"/>
      <point x="363" y="140"/>
      <point x="344" y="121"/>
      <point x="344" y="95" type="curve" smooth="yes"/>
      <point x="344" y="69"/>
      <point x="363" y="50"/>
    </contour>
    <contour>
      <point x="254" y="86" type="curve" smooth="yes"/>
      <point x="280" y="86"/>
      <point x="299" y="105"/>
      <point x="299" y="131" type="curve" smooth="yes"/>
      <point x="299" y="157"/>
      <point x="280" y="176"/>
      <point x="254" y="176" type="curve" smooth="yes"/>
      <point x="228" y="176"/>
      <point x="209" y="157"/>
      <point x="209" y="131" type="curve" smooth="yes"/>
      <point x="209" y="105"/>
      <point x="228" y="86"/>
    </contour>
    <contour>
      <point x="155" y="185" type="curve" smooth="yes"/>
      <point x="181" y="185"/>
      <point x="200" y="204"/>
      <point x="200" y="230" type="curve" smooth="yes"/>
      <point x="200" y="256"/>
      <point x="181" y="275"/>
      <point x="155" y="275" type="curve" smooth="yes"/>
      <point x="129" y="275"/>
      <point x="110" y="256"/>
      <point x="110" y="230" type="curve" smooth="yes"/>
      <point x="110" y="204"/>
      <point x="129" y="185"/>
    </contour>
    <contour>
      <point x="119" y="320" type="curve" smooth="yes"/>
      <point x="145" y="320"/>
      <point x="164" y="338"/>
      <point x="164" y="365" type="curve" smooth="yes"/>
      <point x="164" y="391"/>
      <point x="145" y="409"/>
      <point x="119" y="409" type="curve" smooth="yes"/>
      <point x="93" y="409"/>
      <point x="74" y="391"/>
      <point x="74" y="365" type="curve" smooth="yes"/>
      <point x="74" y="338"/>
      <point x="93" y="320"/>
    </contour>
    <contour>
      <point x="155" y="454" type="curve" smooth="yes"/>
      <point x="181" y="454"/>
      <point x="200" y="473"/>
      <point x="200" y="499" type="curve" smooth="yes"/>
      <point x="200" y="525"/>
      <point x="181" y="544"/>
      <point x="155" y="544" type="curve" smooth="yes"/>
      <point x="129" y="544"/>
      <point x="110" y="525"/>
      <point x="110" y="499" type="curve" smooth="yes"/>
      <point x="110" y="473"/>
      <point x="129" y="454"/>
    </contour>
    <contour>
      <point x="254" y="553" type="curve" smooth="yes"/>
      <point x="280" y="553"/>
      <point x="299" y="572"/>
      <point x="299" y="598" type="curve" smooth="yes"/>
      <point x="299" y="624"/>
      <point x="280" y="643"/>
      <point x="254" y="643" type="curve" smooth="yes"/>
      <point x="228" y="643"/>
      <point x="209" y="624"/>
      <point x="209" y="598" type="curve" smooth="yes"/>
      <point x="209" y="572"/>
      <point x="228" y="553"/>
    </contour>
  </outline>
</glyph>
<glyph name="blackCircle" format="2">
  <advance width="554"/>
  <unicode hex="25CF"/>
  <anchor x="299" y="365" name="center"/>
  <outline>
    <contour>
      <point x="253" y="-29" type="curve" smooth="yes"/>
      <point x="108" y="-29"/>
      <point x="26" y="80"/>
      <point x="56" y="222" type="curve" smooth="yes"/>
      <point x="80" y="336"/>
      <point x="104" y="451"/>
      <point x="128" y="565" type="curve" smooth="yes"/>
      <point x="152" y="683"/>
      <point x="238" y="758"/>
      <point x="347" y="758" type="curve" smooth="yes"/>
      <point x="490" y="758"/>
      <point x="573" y="650"/>
      <point x="543" y="507" type="curve" smooth="yes"/>
      <point x="519" y="391"/>
      <point x="494" y="275"/>
      <point x="470" y="159" type="curve" smooth="yes"/>
      <point x="446" y="48"/>
      <point x="363" y="-29"/>
    </contour>
  </outline>
</glyph>
<glyph name="whiteFrowningFace" format="2">
  <advance width="907"/>
  <unicode hex="2639"/>
  <outline>
    <contour>
      <point x="477" y="-10" type="curve" smooth="yes"/>
      <point x="694" y="-10"/>
      <point x="851" y="140"/>
      <point x="851" y="366" type="curve" smooth="yes"/>
      <point x="851" y="590"/>
      <point x="694" y="739"/>
      <point x="477" y="739" type="curve" smooth="yes"/>
      <point x="260" y="739"/>
      <point x="102" y="590"/>
      <point x="102" y="366" type="curve" smooth="yes"/>
      <point x="102" y="140"/>
      <point x="260" y="-10"/>
    </contour>
    <contour>
      <point x="280" y="177" type="line"/>
      <point x="316" y="244"/>
      <point x="390" y="285"/>
      <point x="477" y="285" type="curve" smooth="yes"/>
      <point x="564" y="285"/>
      <point x="638" y="244"/>
      <point x="674" y="177" type="curve"/>
      <point x="702" y="189" type="line"/>
      <point x="663" y="268"/>
      <point x="582" y="316"/>
      <point x="477" y="316" type="curve" smooth="yes"/>
      <point x="372" y="316"/>
      <point x="291" y="268"/>
      <point x="252" y="189" type="curve"/>
    </contour>
    <contour>
      <point x="477" y="19" type="curve" smooth="yes"/>
      <point x="279" y="19"/>
      <point x="135" y="158"/>
      <point x="135" y="366" type="curve" smooth="yes"/>
      <point x="135" y="572"/>
      <point x="279" y="710"/>
      <point x="477" y="710" type="curve" smooth="yes"/>
      <point x="674" y="710"/>
      <point x="818" y="572"/>
      <point x="818" y="366" type="curve" smooth="yes"/>
      <point x="818" y="158"/>
      <point x="674" y="19"/>
    </contour>
    <contour>
      <point x="389" y="392" type="curve" smooth="yes"/>
      <point x="407" y="392"/>
      <point x="416" y="405"/>
      <point x="416" y="426" type="curve" smooth="yes"/>
      <point x="416" y="491" type="line" smooth="yes"/>
      <point x="416" y="512"/>
      <point x="407" y="525"/>
      <point x="389" y="525" type="curve" smooth="yes"/>
      <point x="371" y="525"/>
      <point x="362" y="512"/>
      <point x="362" y="491" type="curve" smooth="yes"/>
      <point x="362" y="426" type="line" smooth="yes"/>
      <point x="362" y="405"/>
      <point x="371" y="392"/>
    </contour>
    <contour>
      <point x="565" y="392" type="curve" smooth="yes"/>
      <point x="583" y="392"/>
      <point x="592" y="405"/>
      <point x="592" y="426" type="curve" smooth="yes"/>
      <point x="592" y="491" type="line" smooth="yes"/>
      <point x="592" y="512"/>
      <point x="583" y="525"/>
      <point x="565" y="525" type="curve" smooth="yes"/>
      <point x="547" y="525"/>
      <point x="538" y="512"/>
      <point x="538" y="491" type="curve" smooth="yes"/>
      <point x="538" y="426" type="line" smooth="yes"/>
      <point x="538" y="405"/>
      <point x="547" y="392"/>
    </contour>
  </outline>
</glyph>
<glyph name="whiteSmilingFace" format="2">
  <advance width="907"/>
  <unicode hex="263A"/>
  <outline>
    <contour>
      <point x="477" y="-10" type="curve" smooth="yes"/>
      <point x="694" y="-10"/>
      <point x="851" y="140"/>
      <point x="851" y="366" type="curve" smooth="yes"/>
      <point x="851" y="590"/>
      <point x="694" y="739"/>
      <point x="477" y="739" type="curve" smooth="yes"/>
      <point x="260" y="739"/>
      <point x="102" y="590"/>
      <point x="102" y="366" type="curve" smooth="yes"/>
      <point x="102" y="140"/>
      <point x="260" y="-10"/>
    </contour>
    <contour>
      <point x="475" y="105" type="curve" smooth="yes"/>
      <point x="614" y="105"/>
      <point x="709" y="187"/>
      <point x="727" y="311" type="curve"/>
      <point x="763" y="311" type="line"/>
      <point x="763" y="326" type="line"/>
      <point x="654" y="326" type="line"/>
      <point x="654" y="311" type="line"/>
      <point x="693" y="311" type="line"/>
      <point x="681" y="206"/>
      <point x="592" y="136"/>
      <point x="475" y="136" type="curve" smooth="yes"/>
      <point x="361" y="136"/>
      <point x="271" y="206"/>
      <point x="258" y="311" type="curve"/>
      <point x="299" y="311" type="line"/>
      <point x="299" y="326" type="line"/>
      <point x="190" y="326" type="line"/>
      <point x="190" y="311" type="line"/>
      <point x="225" y="311" type="line"/>
      <point x="242" y="187"/>
      <point x="338" y="105"/>
    </contour>
    <contour>
      <point x="477" y="19" type="curve" smooth="yes"/>
      <point x="279" y="19"/>
      <point x="135" y="158"/>
      <point x="135" y="366" type="curve" smooth="yes"/>
      <point x="135" y="572"/>
      <point x="279" y="710"/>
      <point x="477" y="710" type="curve" smooth="yes"/>
      <point x="674" y="710"/>
      <point x="818" y="572"/>
      <point x="818" y="366" type="curve" smooth="yes"/>
      <point x="818" y="158"/>
      <point x="674" y="19"/>
    </contour>
    <contour>
      <point x="389" y="392" type="curve" smooth="yes"/>
      <point x="407" y="392"/>
      <point x="416" y="405"/>
      <point x="416" y="426" type="curve" smooth="yes"/>
      <point x="416" y="491" type="line" smooth="yes"/>
      <point x="416" y="512"/>
      <point x="407" y="525"/>
      <point x="389" y="525" type="curve" smooth="yes"/>
      <point x="371" y="525"/>
      <point x="362" y="512"/>
      <point x="362" y="491" type="curve" smooth="yes"/>
      <point x="362" y="426" type="line" smooth="yes"/>
      <point x="362" y="405"/>
      <point x="371" y="392"/>
    </contour>
    <contour>
      <point x="565" y="392" type="curve" smooth="yes"/>
      <point x="583" y="392"/>
      <point x="592" y="405"/>
      <point x="592" y="426" type="curve" smooth="yes"/>
      <point x="592" y="491" type="line" smooth="yes"/>
      <point x="592" y="512"/>
      <point x="583" y="525"/>
      <point x="565" y="525" type="curve" smooth="yes"/>
      <point x="547" y="525"/>
      <point x="538" y="512"/>
      <point x="538" y="491" type="curve" smooth="yes"/>
      <point x="538" y="426" type="line" smooth="yes"/>
      <point x="538" y="405"/>
      <point x="547" y="392"/>
    </contour>
  </outline>
</glyph>
<glyph name="checkmark" format="2">
  <advance width="770"/>
  <unicode hex="2713"/>
  <outline>
    <contour>
      <point x="271" y="137" type="line"/>
      <point x="777" y="560" type="line"/>
      <point x="754" y="587" type="line"/>
      <point x="275" y="187" type="line"/>
      <point x="111" y="412" type="line"/>
      <point x="85" y="389" type="line"/>
    </contour>
  </outline>
</glyph>
<glyph name="fi" format="2">
  <advance width="354"/>
  <unicode hex="FB01"/>
  <anchor x="177" y="0" name="caret_1"/>
  <outline>
    <contour>
      <point x="43" y="0" type="line"/>
      <point x="74" y="0" type="line"/>
      <point x="177" y="488" type="line"/>
      <point x="311" y="488" type="line"/>
      <point x="209" y="0" type="line"/>
      <point x="240" y="0" type="line"/>
      <point x="348" y="515" type="line"/>
      <point x="183" y="515" type="line"/>
      <point x="223" y="702" type="line"/>
      <point x="389" y="702" type="line"/>
      <point x="393" y="729" type="line"/>
      <point x="234" y="729" type="line" smooth="yes"/>
      <point x="208" y="729"/>
      <point x="195" y="719"/>
      <point x="189" y="693" type="curve" smooth="yes"/>
      <point x="151" y="515" type="line"/>
      <point x="82" y="515" type="line"/>
      <point x="76" y="488" type="line"/>
      <point x="146" y="488" type="line"/>
    </contour>
  </outline>
</glyph>
<glyph name="fl" format="2">
  <advance width="404"/>
  <unicode hex="FB02"/>
  <anchor x="202" y="0" name="caret_1"/>
  <outline>
    <contour>
      <point x="43" y="0" type="line"/>
      <point x="74" y="0" type="line"/>
      <point x="177" y="488" type="line"/>
      <point x="257" y="488" type="line"/>
      <point x="263" y="515" type="line"/>
      <point x="183" y="515" type="line"/>
      <point x="223" y="702" type="line"/>
      <point x="406" y="702" type="line"/>
      <point x="259" y="0" type="line"/>
      <point x="290" y="0" type="line"/>
      <point x="443" y="729" type="line"/>
      <point x="234" y="729" type="line" smooth="yes"/>
      <point x="208" y="729"/>
      <point x="195" y="719"/>
      <point x="189" y="693" type="curve" smooth="yes"/>
      <point x="151" y="515" type="line"/>
      <point x="82" y="515" type="line"/>
      <point x="76" y="488" type="line"/>
      <point x="146" y="488" type="line"/>
    </contour>
  </outline>
</glyph>
<glyph name="I.ss04" format="2">
  <advance width="175"/>
  <note>
I
</note>
  <anchor x="34" y="0" name="bottom"/>
  <anchor x="49" y="0" name="ogonek"/>
  <anchor x="187" y="729" name="top"/>
  <anchor x="115" y="729" name="topleft"/>
  <outline>
    <contour>
      <point x="18" y="0" type="line"/>
      <point x="49" y="0" type="line"/>
      <point x="202" y="729" type="line"/>
      <point x="171" y="729" type="line"/>
    </contour>
  </outline>
</glyph>
<glyph name="_AE.E" format="2">
  <advance width="373"/>
  <anchor x="126" y="0" name="#entry"/>
  <outline>
    <contour>
      <point x="140" y="701" type="line"/>
      <point x="420" y="701" type="line"/>
      <point x="426" y="729" type="line"/>
      <point x="140" y="729" type="line"/>
    </contour>
    <contour>
      <point x="126" y="0" type="line"/>
      <point x="278" y="0" type="line"/>
      <point x="284" y="28" type="line"/>
      <point x="126" y="28" type="line"/>
    </contour>
    <contour>
      <point x="145" y="362" type="line"/>
      <point x="283" y="362" type="line"/>
      <point x="288" y="390" type="line"/>
      <point x="144" y="390" type="line"/>
    </contour>
  </outline>
</glyph>
<glyph name="_Euro.bars" format="2">
  <advance width="310"/>
  <anchor x="226" y="0" name="_bottom"/>
  <outline>
    <contour>
      <point x="274" y="280" type="line"/>
      <point x="280" y="306" type="line"/>
      <point x="127" y="306" type="line"/>
      <point x="121" y="280" type="line"/>
    </contour>
    <contour>
      <point x="45" y="280" type="line"/>
      <point x="121" y="280" type="line"/>
      <point x="127" y="306" type="line"/>
      <point x="51" y="306" type="line"/>
    </contour>
    <contour>
      <point x="75" y="422" type="line"/>
      <point x="151" y="422" type="line"/>
      <point x="157" y="448" type="line"/>
      <point x="81" y="448" type="line"/>
    </contour>
    <contour>
      <point x="304" y="422" type="line"/>
      <point x="310" y="448" type="line"/>
      <point x="157" y="448" type="line"/>
      <point x="151" y="422" type="line"/>
    </contour>
  </outline>
</glyph>
<glyph name="_OE.O" format="2">
  <advance width="390"/>
  <anchor x="235" y="0" name="#exit"/>
  <outline>
    <contour>
      <point x="179" y="0" type="curve" smooth="yes"/>
      <point x="284" y="0" type="line"/>
      <point x="284" y="28" type="line"/>
      <point x="179" y="28" type="line" smooth="yes"/>
      <point x="78" y="28"/>
      <point x="58" y="98"/>
      <point x="88" y="235" type="curve" smooth="yes"/>
      <point x="150" y="521" type="line" smooth="yes"/>
      <point x="179" y="653"/>
      <point x="225" y="701"/>
      <point x="320" y="701" type="curve" smooth="yes"/>
      <point x="444" y="701" type="line"/>
      <point x="444" y="729" type="line"/>
      <point x="324" y="729" type="line" smooth="yes"/>
      <point x="210" y="729"/>
      <point x="150" y="669"/>
      <point x="120" y="528" type="curve" smooth="yes"/>
      <point x="57" y="234" type="line" smooth="yes"/>
      <point x="25" y="86"/>
      <point x="61" y="0"/>
    </contour>
  </outline>
</glyph>
<glyph name="_Stem.Uppercase" format="2">
  <advance width="234"/>
  <outline>
    <contour>
      <point x="60" y="0" type="line"/>
      <point x="91" y="0" type="line"/>
      <point x="219" y="729" type="line"/>
      <point x="188" y="729" type="line"/>
    </contour>
  </outline>
</glyph>
<glyph name="_bitcoin.bars" format="2">
  <advance width="178"/>
  <anchor x="56" y="0" name="_bottom"/>
  <outline>
    <contour>
      <point x="207" y="713" type="line"/>
      <point x="235" y="713" type="line"/>
      <point x="264" y="850" type="line"/>
      <point x="236" y="850" type="line"/>
    </contour>
    <contour>
      <point x="-40" y="-121" type="line"/>
      <point x="-12" y="-121" type="line"/>
      <point x="16" y="12" type="line"/>
      <point x="-12" y="12" type="line"/>
    </contour>
    <contour>
      <point x="30" y="-121" type="line"/>
      <point x="58" y="-121" type="line"/>
      <point x="86" y="12" type="line"/>
      <point x="58" y="12" type="line"/>
    </contour>
    <contour>
      <point x="137" y="713" type="line"/>
      <point x="165" y="713" type="line"/>
      <point x="194" y="850" type="line"/>
      <point x="166" y="850" type="line"/>
    </contour>
  </outline>
</glyph>
<glyph name="_copyright.C" format="2">
  <advance width="308"/>
  <anchor x="175" y="365" name="_center"/>
  <outline>
    <contour>
      <point x="138" y="89" type="curve" smooth="yes"/>
      <point x="204" y="89"/>
      <point x="242" y="135"/>
      <point x="266" y="249" type="curve"/>
      <point x="233" y="254" type="line"/>
      <point x="215" y="156"/>
      <point x="189" y="117"/>
      <point x="139" y="117" type="curve" smooth="yes"/>
      <point x="68" y="117"/>
      <point x="54" y="165"/>
      <point x="69" y="240" type="curve" smooth="yes"/>
      <point x="126" y="509" type="line" smooth="yes"/>
      <point x="140" y="574"/>
      <point x="164" y="612"/>
      <point x="213" y="612" type="curve" smooth="yes"/>
      <point x="292" y="612"/>
      <point x="297" y="553"/>
      <point x="275" y="453" type="curve"/>
      <point x="308" y="448" type="line"/>
      <point x="332" y="561"/>
      <point x="318" y="640"/>
      <point x="210" y="640" type="curve" smooth="yes"/>
      <point x="155" y="640"/>
      <point x="113" y="603"/>
      <point x="94" y="511" type="curve" smooth="yes"/>
      <point x="39" y="249" type="line" smooth="yes"/>
      <point x="19" y="153"/>
      <point x="47" y="89"/>
    </contour>
  </outline>
</glyph>
<glyph name=".notdef" format="2">
  <advance width="883"/>
  <outline>
    <contour>
      <point x="462" y="738" type="curve" smooth="yes"/>
      <point x="250" y="738"/>
      <point x="80" y="567"/>
      <point x="80" y="356" type="curve" smooth="yes"/>
      <point x="80" y="186"/>
      <point x="188" y="41"/>
      <point x="342" y="-8" type="curve"/>
      <point x="356" y="-12"/>
      <point x="367" y="-5"/>
      <point x="367" y="10" type="curve" smooth="yes"/>
      <point x="367" y="19"/>
      <point x="367" y="48"/>
      <point x="367" y="80" type="curve"/>
      <point x="261" y="58"/>
      <point x="237" y="126"/>
      <point x="237" y="126" type="curve"/>
      <point x="221" y="171"/>
      <point x="197" y="182"/>
      <point x="197" y="182" type="curve"/>
      <point x="162" y="206"/>
      <point x="198" y="206"/>
      <point x="198" y="206" type="curve"/>
      <point x="236" y="203"/>
      <point x="258" y="165"/>
      <point x="258" y="165" type="curve"/>
      <point x="290" y="107"/>
      <point x="346" y="125"/>
      <point x="367" y="134" type="curve"/>
      <point x="371" y="158"/>
      <point x="382" y="176"/>
      <point x="393" y="186" type="curve"/>
      <point x="307" y="196"/>
      <point x="218" y="228"/>
      <point x="218" y="376" type="curve" smooth="yes"/>
      <point x="218" y="416"/>
      <point x="233" y="451"/>
      <point x="258" y="477" type="curve"/>
      <point x="254" y="487"/>
      <point x="240" y="526"/>
      <point x="262" y="579" type="curve"/>
      <point x="262" y="579"/>
      <point x="293" y="590"/>
      <point x="366" y="539" type="curve"/>
      <point x="398" y="549"/>
      <point x="430" y="553"/>
      <point x="462" y="553" type="curve" smooth="yes"/>
      <point x="495" y="553"/>
      <point x="527" y="549"/>
      <point x="559" y="539" type="curve"/>
      <point x="632" y="590"/>
      <point x="663" y="579"/>
      <point x="663" y="579" type="curve"/>
      <point x="685" y="526"/>
      <point x="671" y="487"/>
      <point x="667" y="477" type="curve"/>
      <point x="692" y="451"/>
      <point x="707" y="416"/>
      <point x="707" y="376" type="curve" smooth="yes"/>
      <point x="707" y="226"/>
      <point x="618" y="196"/>
      <point x="532" y="186" type="curve"/>
      <point x="545" y="175"/>
      <point x="558" y="150"/>
      <point x="558" y="115" type="curve" smooth="yes"/>
      <point x="558" y="65"/>
      <point x="558" y="21"/>
      <point x="558" y="10" type="curve" smooth="yes"/>
      <point x="558" y="-5"/>
      <point x="569" y="-12"/>
      <point x="585" y="-8" type="curve"/>
      <point x="737" y="41"/>
      <point x="845" y="186"/>
      <point x="845" y="356" type="curve" smooth="yes"/>
      <point x="845" y="567"/>
      <point x="675" y="738"/>
    </contour>
    <contour>
      <point x="226" y="189" type="line"/>
      <point x="225" y="186"/>
      <point x="221" y="186"/>
      <point x="218" y="187" type="curve"/>
      <point x="215" y="189"/>
      <point x="214" y="190"/>
      <point x="215" y="192" type="curve"/>
      <point x="215" y="194"/>
      <point x="218" y="196"/>
      <point x="221" y="192" type="curve"/>
      <point x="225" y="192"/>
      <point x="226" y="190"/>
      <point x="226" y="189" type="curve"/>
    </contour>
    <contour>
      <point x="239" y="171" type="line"/>
      <point x="237" y="168"/>
      <point x="235" y="171"/>
      <point x="232" y="172" type="curve"/>
      <point x="229" y="175"/>
      <point x="229" y="179"/>
      <point x="230" y="180" type="curve"/>
      <point x="233" y="182"/>
      <point x="236" y="182"/>
      <point x="239" y="179" type="curve"/>
      <point x="240" y="176"/>
      <point x="241" y="172"/>
      <point x="239" y="171" type="curve"/>
    </contour>
    <contour>
      <point x="257" y="148" type="line"/>
      <point x="254" y="146"/>
      <point x="248" y="148"/>
      <point x="246" y="151" type="curve"/>
      <point x="244" y="154"/>
      <point x="244" y="160"/>
      <point x="246" y="161" type="curve"/>
      <point x="248" y="162"/>
      <point x="254" y="161"/>
      <point x="257" y="158" type="curve"/>
      <point x="258" y="154"/>
      <point x="258" y="150"/>
      <point x="257" y="148" type="curve"/>
    </contour>
    <contour>
      <point x="276" y="127" type="line"/>
      <point x="274" y="125"/>
      <point x="269" y="126"/>
      <point x="267" y="129" type="curve"/>
      <point x="264" y="132"/>
      <point x="262" y="136"/>
      <point x="264" y="139" type="curve"/>
      <point x="267" y="141"/>
      <point x="271" y="140"/>
      <point x="274" y="137" type="curve"/>
      <point x="276" y="134"/>
      <point x="278" y="129"/>
      <point x="276" y="127" type="curve"/>
    </contour>
    <contour>
      <point x="304" y="115" type="line"/>
      <point x="303" y="112"/>
      <point x="299" y="111"/>
      <point x="294" y="112" type="curve"/>
      <point x="290" y="114"/>
      <point x="289" y="116"/>
      <point x="289" y="120" type="curve"/>
      <point x="290" y="123"/>
      <point x="293" y="125"/>
      <point x="299" y="123" type="curve"/>
      <point x="301" y="122"/>
      <point x="304" y="118"/>
      <point x="304" y="115" type="curve"/>
    </contour>
    <contour>
      <point x="335" y="114" type="line"/>
      <point x="335" y="111"/>
      <point x="332" y="107"/>
      <point x="328" y="105" type="curve"/>
      <point x="324" y="105"/>
      <point x="321" y="111"/>
      <point x="321" y="114" type="curve"/>
      <point x="321" y="116"/>
      <point x="324" y="118"/>
      <point x="328" y="118" type="curve"/>
      <point x="332" y="118"/>
      <point x="335" y="116"/>
      <point x="335" y="114" type="curve"/>
    </contour>
    <contour>
      <point x="364" y="118" type="line"/>
      <point x="366" y="115"/>
      <point x="361" y="112"/>
      <point x="357" y="111" type="curve"/>
      <point x="353" y="111"/>
      <point x="349" y="112"/>
      <point x="349" y="115" type="curve"/>
      <point x="347" y="118"/>
      <point x="350" y="122"/>
      <point x="356" y="122" type="curve"/>
      <point x="360" y="123"/>
      <point x="364" y="120"/>
      <point x="364" y="118" type="curve"/>
    </contour>
  </outline>
</glyph>
<glyph name="_published.P" format="2">
  <advance width="270"/>
  <anchor x="145" y="365" name="_center"/>
  <outline>
    <contour>
      <point x="4" y="89" type="line"/>
      <point x="33" y="89" type="line"/>
      <point x="145" y="615" type="line"/>
      <point x="180" y="615" type="line" smooth="yes"/>
      <point x="232" y="615"/>
      <point x="261" y="578"/>
      <point x="247" y="482" type="curve" smooth="yes"/>
      <point x="232" y="386"/>
      <point x="187" y="352"/>
      <point x="123" y="352" type="curve" smooth="yes"/>
      <point x="84" y="352" type="line"/>
      <point x="78" y="327" type="line"/>
      <point x="120" y="327" type="line" smooth="yes"/>
      <point x="200" y="327"/>
      <point x="260" y="370"/>
      <point x="277" y="482" type="curve" smooth="yes"/>
      <point x="292" y="579"/>
      <point x="257" y="640"/>
      <point x="179" y="640" type="curve" smooth="yes"/>
      <point x="122" y="640" type="line"/>
    </contour>
  </outline>
</glyph>
<glyph name="_tail.Q" format="2">
  <advance width="202"/>
  <anchor x="-1" y="0" name="_bottom"/>
  <outline>
    <contour>
      <point x="-11" y="-167" type="curve" smooth="yes"/>
      <point x="72" y="-167" type="line"/>
      <point x="78" y="-139" type="line"/>
      <point x="-15" y="-139" type="line"/>
      <point x="15" y="4" type="line"/>
      <point x="-14" y="4" type="line"/>
      <point x="-42" y="-126" type="line" smooth="yes"/>
      <point x="-47" y="-149"/>
      <point x="-41" y="-167"/>
    </contour>
  </outline>
</glyph>
<glyph name="_tail.Q.ss01" format="2">
  <advance width="253"/>
  <anchor x="-28" y="0" name="_bottom"/>
  <outline>
    <contour>
      <point x="157" y="-5" type="line"/>
      <point x="164" y="25" type="line"/>
      <point x="17" y="146" type="line"/>
      <point x="10" y="116" type="line"/>
    </contour>
  </outline>
</glyph>
